<?xml version="1.0" encoding="utf-8" standalone="no"?>
<!DOCTYPE svg PUBLIC "-//W3C//DTD SVG 1.1//EN"
  "http://www.w3.org/Graphics/SVG/1.1/DTD/svg11.dtd">
<svg height="432pt" version="1.1" viewBox="0 0 576 432" width="576pt" xmlns="http://www.w3.org/2000/svg" xmlns:xlink="http://www.w3.org/1999/xlink">
 <metadata>
  <rdf:RDF xmlns:cc="http://creativecommons.org/ns#" xmlns:dc="http://purl.org/dc/elements/1.1/" xmlns:rdf="http://www.w3.org/1999/02/22-rdf-syntax-ns#">
   <cc:Work>
    <dc:type rdf:resource="http://purl.org/dc/dcmitype/StillImage"/>
    <dc:date>2021-08-26T10:00:22.005979</dc:date>
    <dc:format>image/svg+xml</dc:format>
    <dc:creator>
     <cc:Agent>
      <dc:title>Matplotlib v3.4.2, https://matplotlib.org/</dc:title>
     </cc:Agent>
    </dc:creator>
   </cc:Work>
  </rdf:RDF>
 </metadata>
 <defs>
  <style type="text/css">*{stroke-linecap:butt;stroke-linejoin:round;}</style>
 </defs>
 <g id="figure_1">
  <g id="patch_1">
   <path d="M 0 432 
L 576 432 
L 576 0 
L 0 0 
z
" style="fill:#f3f3f3;"/>
  </g>
  <g id="axes_1">
   <g id="patch_2">
    <path d="M 35.77 387.888592 
L 574 387.888592 
L 574 18.08 
L 35.77 18.08 
z
" style="fill:#f3f3f3;"/>
   </g>
   <g id="patch_3">
    <path clip-path="url(#pd92bb8263f)" d="M 60.235 387.888592 
L 65.763814 387.888592 
L 65.763814 131.218316 
L 60.235 131.218316 
z
" style="fill:#003f5c;"/>
   </g>
   <g id="patch_4">
    <path clip-path="url(#pd92bb8263f)" d="M 94.790085 387.888592 
L 100.318898 387.888592 
L 100.318898 223.034856 
L 94.790085 223.034856 
z
" style="fill:#003f5c;"/>
   </g>
   <g id="patch_5">
    <path clip-path="url(#pd92bb8263f)" d="M 129.345169 387.888592 
L 134.873983 387.888592 
L 134.873983 286.797947 
L 129.345169 286.797947 
z
" style="fill:#003f5c;"/>
   </g>
   <g id="patch_6">
    <path clip-path="url(#pd92bb8263f)" d="M 163.900254 387.888592 
L 169.429068 387.888592 
L 169.429068 325.584512 
L 163.900254 325.584512 
z
" style="fill:#003f5c;"/>
   </g>
   <g id="patch_7">
    <path clip-path="url(#pd92bb8263f)" d="M 198.455339 387.888592 
L 203.984153 387.888592 
L 203.984153 331.369994 
L 198.455339 331.369994 
z
" style="fill:#003f5c;"/>
   </g>
   <g id="patch_8">
    <path clip-path="url(#pd92bb8263f)" d="M 233.010424 387.888592 
L 238.539237 387.888592 
L 238.539237 350.904122 
L 233.010424 350.904122 
z
" style="fill:#003f5c;"/>
   </g>
   <g id="patch_9">
    <path clip-path="url(#pd92bb8263f)" d="M 267.565508 387.888592 
L 273.094322 387.888592 
L 273.094322 361.046772 
L 267.565508 361.046772 
z
" style="fill:#003f5c;"/>
   </g>
   <g id="patch_10">
    <path clip-path="url(#pd92bb8263f)" d="M 302.120593 387.888592 
L 307.649407 387.888592 
L 307.649407 367.763096 
L 302.120593 367.763096 
z
" style="fill:#003f5c;"/>
   </g>
   <g id="patch_11">
    <path clip-path="url(#pd92bb8263f)" d="M 336.675678 387.888592 
L 342.204492 387.888592 
L 342.204492 369.145364 
L 336.675678 369.145364 
z
" style="fill:#003f5c;"/>
   </g>
   <g id="patch_12">
    <path clip-path="url(#pd92bb8263f)" d="M 371.230763 387.888592 
L 376.759576 387.888592 
L 376.759576 370.579546 
L 371.230763 370.579546 
z
" style="fill:#003f5c;"/>
   </g>
   <g id="patch_13">
    <path clip-path="url(#pd92bb8263f)" d="M 405.785847 387.888592 
L 411.314661 387.888592 
L 411.314661 372.174323 
L 405.785847 372.174323 
z
" style="fill:#003f5c;"/>
   </g>
   <g id="patch_14">
    <path clip-path="url(#pd92bb8263f)" d="M 440.340932 387.888592 
L 445.869746 387.888592 
L 445.869746 372.41956 
L 440.340932 372.41956 
z
" style="fill:#003f5c;"/>
   </g>
   <g id="patch_15">
    <path clip-path="url(#pd92bb8263f)" d="M 474.896017 387.888592 
L 480.424831 387.888592 
L 480.424831 369.734306 
L 474.896017 369.734306 
z
" style="fill:#003f5c;"/>
   </g>
   <g id="patch_16">
    <path clip-path="url(#pd92bb8263f)" d="M 509.451102 387.888592 
L 514.979915 387.888592 
L 514.979915 367.566612 
L 509.451102 367.566612 
z
" style="fill:#003f5c;"/>
   </g>
   <g id="patch_17">
    <path clip-path="url(#pd92bb8263f)" d="M 544.006186 387.888592 
L 549.535 387.888592 
L 549.535 369.871378 
L 544.006186 369.871378 
z
" style="fill:#003f5c;"/>
   </g>
   <g id="patch_18">
    <path clip-path="url(#pd92bb8263f)" d="M 65.763814 387.888592 
L 71.292627 387.888592 
L 71.292627 -3789.648392 
L 65.763814 -3789.648392 
z
" style="fill:#58508d;"/>
   </g>
   <g id="patch_19">
    <path clip-path="url(#pd92bb8263f)" d="M 100.318898 387.888592 
L 105.847712 387.888592 
L 105.847712 -1760.641546 
L 100.318898 -1760.641546 
z
" style="fill:#58508d;"/>
   </g>
   <g id="patch_20">
    <path clip-path="url(#pd92bb8263f)" d="M 134.873983 387.888592 
L 140.402797 387.888592 
L 140.402797 -730.435704 
L 134.873983 -730.435704 
z
" style="fill:#58508d;"/>
   </g>
   <g id="patch_21">
    <path clip-path="url(#pd92bb8263f)" d="M 169.429068 387.888592 
L 174.957881 387.888592 
L 174.957881 -209.984281 
L 169.429068 -209.984281 
z
" style="fill:#58508d;"/>
   </g>
   <g id="patch_22">
    <path clip-path="url(#pd92bb8263f)" d="M 203.984153 387.888592 
L 209.512966 387.888592 
L 209.512966 -17.570054 
L 203.984153 -17.570054 
z
" style="fill:#58508d;"/>
   </g>
   <g id="patch_23">
    <path clip-path="url(#pd92bb8263f)" d="M 238.539237 387.888592 
L 244.068051 387.888592 
L 244.068051 161.169562 
L 238.539237 161.169562 
z
" style="fill:#58508d;"/>
   </g>
   <g id="patch_24">
    <path clip-path="url(#pd92bb8263f)" d="M 273.094322 387.888592 
L 278.623136 387.888592 
L 278.623136 251.497297 
L 273.094322 251.497297 
z
" style="fill:#58508d;"/>
   </g>
   <g id="patch_25">
    <path clip-path="url(#pd92bb8263f)" d="M 307.649407 387.888592 
L 313.17822 387.888592 
L 313.17822 301.536345 
L 307.649407 301.536345 
z
" style="fill:#58508d;"/>
   </g>
   <g id="patch_26">
    <path clip-path="url(#pd92bb8263f)" d="M 342.204492 387.888592 
L 347.733305 387.888592 
L 347.733305 318.89313 
L 342.204492 318.89313 
z
" style="fill:#58508d;"/>
   </g>
   <g id="patch_27">
    <path clip-path="url(#pd92bb8263f)" d="M 376.759576 387.888592 
L 382.28839 387.888592 
L 382.28839 326.642252 
L 376.759576 326.642252 
z
" style="fill:#58508d;"/>
   </g>
   <g id="patch_28">
    <path clip-path="url(#pd92bb8263f)" d="M 411.314661 387.888592 
L 416.843475 387.888592 
L 416.843475 334.814289 
L 411.314661 334.814289 
z
" style="fill:#58508d;"/>
   </g>
   <g id="patch_29">
    <path clip-path="url(#pd92bb8263f)" d="M 445.869746 387.888592 
L 451.398559 387.888592 
L 451.398559 338.210595 
L 445.869746 338.210595 
z
" style="fill:#58508d;"/>
   </g>
   <g id="patch_30">
    <path clip-path="url(#pd92bb8263f)" d="M 0 0 
z
" style="fill:#58508d;"/>
   </g>
   <g id="patch_31">
    <path clip-path="url(#pd92bb8263f)" d="M 0 0 
z
" style="fill:#58508d;"/>
   </g>
   <g id="patch_32">
    <path clip-path="url(#pd92bb8263f)" d="M 0 0 
z
" style="fill:#58508d;"/>
   </g>
   <g id="patch_33">
    <path clip-path="url(#pd92bb8263f)" d="M 71.292627 387.888592 
L 76.821441 387.888592 
L 76.821441 -1908.391635 
L 71.292627 -1908.391635 
z
" style="fill:#bc5090;"/>
   </g>
   <g id="patch_34">
    <path clip-path="url(#pd92bb8263f)" d="M 105.847712 387.888592 
L 111.376525 387.888592 
L 111.376525 -841.551629 
L 105.847712 -841.551629 
z
" style="fill:#bc5090;"/>
   </g>
   <g id="patch_35">
    <path clip-path="url(#pd92bb8263f)" d="M 140.402797 387.888592 
L 145.93161 387.888592 
L 145.93161 -299.182547 
L 140.402797 -299.182547 
z
" style="fill:#bc5090;"/>
   </g>
   <g id="patch_36">
    <path clip-path="url(#pd92bb8263f)" d="M 174.957881 387.888592 
L 180.486695 387.888592 
L 180.486695 6.021495 
L 174.957881 6.021495 
z
" style="fill:#bc5090;"/>
   </g>
   <g id="patch_37">
    <path clip-path="url(#pd92bb8263f)" d="M 209.512966 387.888592 
L 215.04178 387.888592 
L 215.04178 58.210011 
L 209.512966 58.210011 
z
" style="fill:#bc5090;"/>
   </g>
   <g id="patch_38">
    <path clip-path="url(#pd92bb8263f)" d="M 244.068051 387.888592 
L 249.596864 387.888592 
L 249.596864 199.721385 
L 244.068051 199.721385 
z
" style="fill:#bc5090;"/>
   </g>
   <g id="patch_39">
    <path clip-path="url(#pd92bb8263f)" d="M 278.623136 387.888592 
L 284.151949 387.888592 
L 284.151949 255.702786 
L 278.623136 255.702786 
z
" style="fill:#bc5090;"/>
   </g>
   <g id="patch_40">
    <path clip-path="url(#pd92bb8263f)" d="M 313.17822 387.888592 
L 318.707034 387.888592 
L 318.707034 293.075935 
L 313.17822 293.075935 
z
" style="fill:#bc5090;"/>
   </g>
   <g id="patch_41">
    <path clip-path="url(#pd92bb8263f)" d="M 347.733305 387.888592 
L 353.262119 387.888592 
L 353.262119 290.4343 
L 347.733305 290.4343 
z
" style="fill:#bc5090;"/>
   </g>
   <g id="patch_42">
    <path clip-path="url(#pd92bb8263f)" d="M 382.28839 387.888592 
L 387.817203 387.888592 
L 387.817203 304.217996 
L 382.28839 304.217996 
z
" style="fill:#bc5090;"/>
   </g>
   <g id="patch_43">
    <path clip-path="url(#pd92bb8263f)" d="M 416.843475 387.888592 
L 422.372288 387.888592 
L 422.372288 307.68631 
L 416.843475 307.68631 
z
" style="fill:#bc5090;"/>
   </g>
   <g id="patch_44">
    <path clip-path="url(#pd92bb8263f)" d="M 451.398559 387.888592 
L 456.927373 387.888592 
L 456.927373 314.22679 
L 451.398559 314.22679 
z
" style="fill:#bc5090;"/>
   </g>
   <g id="patch_45">
    <path clip-path="url(#pd92bb8263f)" d="M 0 0 
z
" style="fill:#bc5090;"/>
   </g>
   <g id="patch_46">
    <path clip-path="url(#pd92bb8263f)" d="M 0 0 
z
" style="fill:#bc5090;"/>
   </g>
   <g id="patch_47">
    <path clip-path="url(#pd92bb8263f)" d="M 0 0 
z
" style="fill:#bc5090;"/>
   </g>
   <g id="patch_48">
    <path clip-path="url(#pd92bb8263f)" d="M 76.821441 387.888592 
L 82.350254 387.888592 
L 82.350254 -1491.201317 
L 76.821441 -1491.201317 
z
" style="fill:#ff6361;"/>
   </g>
   <g id="patch_49">
    <path clip-path="url(#pd92bb8263f)" d="M 111.376525 387.888592 
L 116.905339 387.888592 
L 116.905339 -622.151125 
L 111.376525 -622.151125 
z
" style="fill:#ff6361;"/>
   </g>
   <g id="patch_50">
    <path clip-path="url(#pd92bb8263f)" d="M 145.93161 387.888592 
L 151.460424 387.888592 
L 151.460424 -119.948168 
L 145.93161 -119.948168 
z
" style="fill:#ff6361;"/>
   </g>
   <g id="patch_51">
    <path clip-path="url(#pd92bb8263f)" d="M 180.486695 387.888592 
L 186.015508 387.888592 
L 186.015508 73.226262 
L 180.486695 73.226262 
z
" style="fill:#ff6361;"/>
   </g>
   <g id="patch_52">
    <path clip-path="url(#pd92bb8263f)" d="M 215.04178 387.888592 
L 220.570593 387.888592 
L 220.570593 167.059775 
L 215.04178 167.059775 
z
" style="fill:#ff6361;"/>
   </g>
   <g id="patch_53">
    <path clip-path="url(#pd92bb8263f)" d="M 249.596864 387.888592 
L 255.125678 387.888592 
L 255.125678 261.823227 
L 249.596864 261.823227 
z
" style="fill:#ff6361;"/>
   </g>
   <g id="patch_54">
    <path clip-path="url(#pd92bb8263f)" d="M 284.151949 387.888592 
L 289.680763 387.888592 
L 289.680763 310.00172 
L 284.151949 310.00172 
z
" style="fill:#ff6361;"/>
   </g>
   <g id="patch_55">
    <path clip-path="url(#pd92bb8263f)" d="M 318.707034 387.888592 
L 324.235847 387.888592 
L 324.235847 331.634078 
L 318.707034 331.634078 
z
" style="fill:#ff6361;"/>
   </g>
   <g id="patch_56">
    <path clip-path="url(#pd92bb8263f)" d="M 353.262119 387.888592 
L 358.790932 387.888592 
L 358.790932 338.947752 
L 353.262119 338.947752 
z
" style="fill:#ff6361;"/>
   </g>
   <g id="patch_57">
    <path clip-path="url(#pd92bb8263f)" d="M 387.817203 387.888592 
L 393.346017 387.888592 
L 393.346017 346.264529 
L 387.817203 346.264529 
z
" style="fill:#ff6361;"/>
   </g>
   <g id="patch_58">
    <path clip-path="url(#pd92bb8263f)" d="M 422.372288 387.888592 
L 427.901102 387.888592 
L 427.901102 351.274141 
L 422.372288 351.274141 
z
" style="fill:#ff6361;"/>
   </g>
   <g id="patch_59">
    <path clip-path="url(#pd92bb8263f)" d="M 456.927373 387.888592 
L 462.456186 387.888592 
L 462.456186 351.793752 
L 456.927373 351.793752 
z
" style="fill:#ff6361;"/>
   </g>
   <g id="patch_60">
    <path clip-path="url(#pd92bb8263f)" d="M 491.482458 387.888592 
L 497.011271 387.888592 
L 497.011271 346.017467 
L 491.482458 346.017467 
z
" style="fill:#ff6361;"/>
   </g>
   <g id="patch_61">
    <path clip-path="url(#pd92bb8263f)" d="M 526.037542 387.888592 
L 531.566356 387.888592 
L 531.566356 358.935366 
L 526.037542 358.935366 
z
" style="fill:#ff6361;"/>
   </g>
   <g id="patch_62">
    <path clip-path="url(#pd92bb8263f)" d="M 0 0 
z
" style="fill:#ff6361;"/>
   </g>
   <g id="patch_63">
    <path clip-path="url(#pd92bb8263f)" d="M 82.350254 387.888592 
L 87.879068 387.888592 
L 87.879068 -2248.442192 
L 82.350254 -2248.442192 
z
" style="fill:#ffa600;"/>
   </g>
   <g id="patch_64">
    <path clip-path="url(#pd92bb8263f)" d="M 116.905339 387.888592 
L 122.434153 387.888592 
L 122.434153 -1157.579074 
L 116.905339 -1157.579074 
z
" style="fill:#ffa600;"/>
   </g>
   <g id="patch_65">
    <path clip-path="url(#pd92bb8263f)" d="M 151.460424 387.888592 
L 156.989237 387.888592 
L 156.989237 -408.463875 
L 151.460424 -408.463875 
z
" style="fill:#ffa600;"/>
   </g>
   <g id="patch_66">
    <path clip-path="url(#pd92bb8263f)" d="M 186.015508 387.888592 
L 191.544322 387.888592 
L 191.544322 -134.104903 
L 186.015508 -134.104903 
z
" style="fill:#ffa600;"/>
   </g>
   <g id="patch_67">
    <path clip-path="url(#pd92bb8263f)" d="M 220.570593 387.888592 
L 226.099407 387.888592 
L 226.099407 -15.686703 
L 220.570593 -15.686703 
z
" style="fill:#ffa600;"/>
   </g>
   <g id="patch_68">
    <path clip-path="url(#pd92bb8263f)" d="M 255.125678 387.888592 
L 260.654492 387.888592 
L 260.654492 116.152408 
L 255.125678 116.152408 
z
" style="fill:#ffa600;"/>
   </g>
   <g id="patch_69">
    <path clip-path="url(#pd92bb8263f)" d="M 289.680763 387.888592 
L 295.209576 387.888592 
L 295.209576 224.126856 
L 289.680763 224.126856 
z
" style="fill:#ffa600;"/>
   </g>
   <g id="patch_70">
    <path clip-path="url(#pd92bb8263f)" d="M 324.235847 387.888592 
L 329.764661 387.888592 
L 329.764661 254.978472 
L 324.235847 254.978472 
z
" style="fill:#ffa600;"/>
   </g>
   <g id="patch_71">
    <path clip-path="url(#pd92bb8263f)" d="M 358.790932 387.888592 
L 364.319746 387.888592 
L 364.319746 240.691388 
L 358.790932 240.691388 
z
" style="fill:#ffa600;"/>
   </g>
   <g id="patch_72">
    <path clip-path="url(#pd92bb8263f)" d="M 393.346017 387.888592 
L 398.874831 387.888592 
L 398.874831 282.331815 
L 393.346017 282.331815 
z
" style="fill:#ffa600;"/>
   </g>
   <g id="patch_73">
    <path clip-path="url(#pd92bb8263f)" d="M 427.901102 387.888592 
L 433.429915 387.888592 
L 433.429915 251.519041 
L 427.901102 251.519041 
z
" style="fill:#ffa600;"/>
   </g>
   <g id="patch_74">
    <path clip-path="url(#pd92bb8263f)" d="M 462.456186 387.888592 
L 467.985 387.888592 
L 467.985 300.090181 
L 462.456186 300.090181 
z
" style="fill:#ffa600;"/>
   </g>
   <g id="patch_75">
    <path clip-path="url(#pd92bb8263f)" d="M 0 0 
z
" style="fill:#ffa600;"/>
   </g>
   <g id="patch_76">
    <path clip-path="url(#pd92bb8263f)" d="M 0 0 
z
" style="fill:#ffa600;"/>
   </g>
   <g id="patch_77">
    <path clip-path="url(#pd92bb8263f)" d="M 0 0 
z
" style="fill:#ffa600;"/>
   </g>
   <g id="matplotlib.axis_1">
    <g id="xtick_1">
     <g id="line2d_1">
      <defs>
       <path d="M 0 0 
L 0 3.5 
" id="m3789019942" style="stroke:#000000;stroke-width:0.8;"/>
      </defs>
      <g>
       <use style="stroke:#000000;stroke-width:0.8;" x="76.821441" xlink:href="#m3789019942" y="387.888592"/>
      </g>
     </g>
     <g id="text_1">
      <!-- $2^{10}$ -->
      <g transform="translate(73.221825 411.363075)rotate(-45)scale(0.1 -0.1)">
       <defs>
        <path d="M 1228 531 
L 3431 531 
L 3431 0 
L 469 0 
L 469 531 
Q 828 903 1448 1529 
Q 2069 2156 2228 2338 
Q 2531 2678 2651 2914 
Q 2772 3150 2772 3378 
Q 2772 3750 2511 3984 
Q 2250 4219 1831 4219 
Q 1534 4219 1204 4116 
Q 875 4013 500 3803 
L 500 4441 
Q 881 4594 1212 4672 
Q 1544 4750 1819 4750 
Q 2544 4750 2975 4387 
Q 3406 4025 3406 3419 
Q 3406 3131 3298 2873 
Q 3191 2616 2906 2266 
Q 2828 2175 2409 1742 
Q 1991 1309 1228 531 
z
" id="DejaVuSans-32" transform="scale(0.015625)"/>
        <path d="M 794 531 
L 1825 531 
L 1825 4091 
L 703 3866 
L 703 4441 
L 1819 4666 
L 2450 4666 
L 2450 531 
L 3481 531 
L 3481 0 
L 794 0 
L 794 531 
z
" id="DejaVuSans-31" transform="scale(0.015625)"/>
        <path d="M 2034 4250 
Q 1547 4250 1301 3770 
Q 1056 3291 1056 2328 
Q 1056 1369 1301 889 
Q 1547 409 2034 409 
Q 2525 409 2770 889 
Q 3016 1369 3016 2328 
Q 3016 3291 2770 3770 
Q 2525 4250 2034 4250 
z
M 2034 4750 
Q 2819 4750 3233 4129 
Q 3647 3509 3647 2328 
Q 3647 1150 3233 529 
Q 2819 -91 2034 -91 
Q 1250 -91 836 529 
Q 422 1150 422 2328 
Q 422 3509 836 4129 
Q 1250 4750 2034 4750 
z
" id="DejaVuSans-30" transform="scale(0.015625)"/>
       </defs>
       <use transform="translate(0 0.765625)" xlink:href="#DejaVuSans-32"/>
       <use transform="translate(64.580078 39.046875)scale(0.7)" xlink:href="#DejaVuSans-31"/>
       <use transform="translate(109.116211 39.046875)scale(0.7)" xlink:href="#DejaVuSans-30"/>
      </g>
     </g>
    </g>
    <g id="xtick_2">
     <g id="line2d_2">
      <g>
       <use style="stroke:#000000;stroke-width:0.8;" x="111.376525" xlink:href="#m3789019942" y="387.888592"/>
      </g>
     </g>
     <g id="text_2">
      <!-- $2^{11}$ -->
      <g transform="translate(107.77691 411.363075)rotate(-45)scale(0.1 -0.1)">
       <use transform="translate(0 0.684375)" xlink:href="#DejaVuSans-32"/>
       <use transform="translate(64.580078 38.965625)scale(0.7)" xlink:href="#DejaVuSans-31"/>
       <use transform="translate(109.116211 38.965625)scale(0.7)" xlink:href="#DejaVuSans-31"/>
      </g>
     </g>
    </g>
    <g id="xtick_3">
     <g id="line2d_3">
      <g>
       <use style="stroke:#000000;stroke-width:0.8;" x="145.93161" xlink:href="#m3789019942" y="387.888592"/>
      </g>
     </g>
     <g id="text_3">
      <!-- $2^{12}$ -->
      <g transform="translate(142.331995 411.363075)rotate(-45)scale(0.1 -0.1)">
       <use transform="translate(0 0.765625)" xlink:href="#DejaVuSans-32"/>
       <use transform="translate(64.580078 39.046875)scale(0.7)" xlink:href="#DejaVuSans-31"/>
       <use transform="translate(109.116211 39.046875)scale(0.7)" xlink:href="#DejaVuSans-32"/>
      </g>
     </g>
    </g>
    <g id="xtick_4">
     <g id="line2d_4">
      <g>
       <use style="stroke:#000000;stroke-width:0.8;" x="180.486695" xlink:href="#m3789019942" y="387.888592"/>
      </g>
     </g>
     <g id="text_4">
      <!-- $2^{13}$ -->
      <g transform="translate(176.887079 411.363075)rotate(-45)scale(0.1 -0.1)">
       <defs>
        <path d="M 2597 2516 
Q 3050 2419 3304 2112 
Q 3559 1806 3559 1356 
Q 3559 666 3084 287 
Q 2609 -91 1734 -91 
Q 1441 -91 1130 -33 
Q 819 25 488 141 
L 488 750 
Q 750 597 1062 519 
Q 1375 441 1716 441 
Q 2309 441 2620 675 
Q 2931 909 2931 1356 
Q 2931 1769 2642 2001 
Q 2353 2234 1838 2234 
L 1294 2234 
L 1294 2753 
L 1863 2753 
Q 2328 2753 2575 2939 
Q 2822 3125 2822 3475 
Q 2822 3834 2567 4026 
Q 2313 4219 1838 4219 
Q 1578 4219 1281 4162 
Q 984 4106 628 3988 
L 628 4550 
Q 988 4650 1302 4700 
Q 1616 4750 1894 4750 
Q 2613 4750 3031 4423 
Q 3450 4097 3450 3541 
Q 3450 3153 3228 2886 
Q 3006 2619 2597 2516 
z
" id="DejaVuSans-33" transform="scale(0.015625)"/>
       </defs>
       <use transform="translate(0 0.765625)" xlink:href="#DejaVuSans-32"/>
       <use transform="translate(64.580078 39.046875)scale(0.7)" xlink:href="#DejaVuSans-31"/>
       <use transform="translate(109.116211 39.046875)scale(0.7)" xlink:href="#DejaVuSans-33"/>
      </g>
     </g>
    </g>
    <g id="xtick_5">
     <g id="line2d_5">
      <g>
       <use style="stroke:#000000;stroke-width:0.8;" x="215.04178" xlink:href="#m3789019942" y="387.888592"/>
      </g>
     </g>
     <g id="text_5">
      <!-- $2^{14}$ -->
      <g transform="translate(211.442164 411.363075)rotate(-45)scale(0.1 -0.1)">
       <defs>
        <path d="M 2419 4116 
L 825 1625 
L 2419 1625 
L 2419 4116 
z
M 2253 4666 
L 3047 4666 
L 3047 1625 
L 3713 1625 
L 3713 1100 
L 3047 1100 
L 3047 0 
L 2419 0 
L 2419 1100 
L 313 1100 
L 313 1709 
L 2253 4666 
z
" id="DejaVuSans-34" transform="scale(0.015625)"/>
       </defs>
       <use transform="translate(0 0.684375)" xlink:href="#DejaVuSans-32"/>
       <use transform="translate(64.580078 38.965625)scale(0.7)" xlink:href="#DejaVuSans-31"/>
       <use transform="translate(109.116211 38.965625)scale(0.7)" xlink:href="#DejaVuSans-34"/>
      </g>
     </g>
    </g>
    <g id="xtick_6">
     <g id="line2d_6">
      <g>
       <use style="stroke:#000000;stroke-width:0.8;" x="249.596864" xlink:href="#m3789019942" y="387.888592"/>
      </g>
     </g>
     <g id="text_6">
      <!-- $2^{15}$ -->
      <g transform="translate(245.997249 411.363075)rotate(-45)scale(0.1 -0.1)">
       <defs>
        <path d="M 691 4666 
L 3169 4666 
L 3169 4134 
L 1269 4134 
L 1269 2991 
Q 1406 3038 1543 3061 
Q 1681 3084 1819 3084 
Q 2600 3084 3056 2656 
Q 3513 2228 3513 1497 
Q 3513 744 3044 326 
Q 2575 -91 1722 -91 
Q 1428 -91 1123 -41 
Q 819 9 494 109 
L 494 744 
Q 775 591 1075 516 
Q 1375 441 1709 441 
Q 2250 441 2565 725 
Q 2881 1009 2881 1497 
Q 2881 1984 2565 2268 
Q 2250 2553 1709 2553 
Q 1456 2553 1204 2497 
Q 953 2441 691 2322 
L 691 4666 
z
" id="DejaVuSans-35" transform="scale(0.015625)"/>
       </defs>
       <use transform="translate(0 0.684375)" xlink:href="#DejaVuSans-32"/>
       <use transform="translate(64.580078 38.965625)scale(0.7)" xlink:href="#DejaVuSans-31"/>
       <use transform="translate(109.116211 38.965625)scale(0.7)" xlink:href="#DejaVuSans-35"/>
      </g>
     </g>
    </g>
    <g id="xtick_7">
     <g id="line2d_7">
      <g>
       <use style="stroke:#000000;stroke-width:0.8;" x="284.151949" xlink:href="#m3789019942" y="387.888592"/>
      </g>
     </g>
     <g id="text_7">
      <!-- $2^{16}$ -->
      <g transform="translate(280.552334 411.363075)rotate(-45)scale(0.1 -0.1)">
       <defs>
        <path d="M 2113 2584 
Q 1688 2584 1439 2293 
Q 1191 2003 1191 1497 
Q 1191 994 1439 701 
Q 1688 409 2113 409 
Q 2538 409 2786 701 
Q 3034 994 3034 1497 
Q 3034 2003 2786 2293 
Q 2538 2584 2113 2584 
z
M 3366 4563 
L 3366 3988 
Q 3128 4100 2886 4159 
Q 2644 4219 2406 4219 
Q 1781 4219 1451 3797 
Q 1122 3375 1075 2522 
Q 1259 2794 1537 2939 
Q 1816 3084 2150 3084 
Q 2853 3084 3261 2657 
Q 3669 2231 3669 1497 
Q 3669 778 3244 343 
Q 2819 -91 2113 -91 
Q 1303 -91 875 529 
Q 447 1150 447 2328 
Q 447 3434 972 4092 
Q 1497 4750 2381 4750 
Q 2619 4750 2861 4703 
Q 3103 4656 3366 4563 
z
" id="DejaVuSans-36" transform="scale(0.015625)"/>
       </defs>
       <use transform="translate(0 0.765625)" xlink:href="#DejaVuSans-32"/>
       <use transform="translate(64.580078 39.046875)scale(0.7)" xlink:href="#DejaVuSans-31"/>
       <use transform="translate(109.116211 39.046875)scale(0.7)" xlink:href="#DejaVuSans-36"/>
      </g>
     </g>
    </g>
    <g id="xtick_8">
     <g id="line2d_8">
      <g>
       <use style="stroke:#000000;stroke-width:0.8;" x="318.707034" xlink:href="#m3789019942" y="387.888592"/>
      </g>
     </g>
     <g id="text_8">
      <!-- $2^{17}$ -->
      <g transform="translate(315.107418 411.363075)rotate(-45)scale(0.1 -0.1)">
       <defs>
        <path d="M 525 4666 
L 3525 4666 
L 3525 4397 
L 1831 0 
L 1172 0 
L 2766 4134 
L 525 4134 
L 525 4666 
z
" id="DejaVuSans-37" transform="scale(0.015625)"/>
       </defs>
       <use transform="translate(0 0.684375)" xlink:href="#DejaVuSans-32"/>
       <use transform="translate(64.580078 38.965625)scale(0.7)" xlink:href="#DejaVuSans-31"/>
       <use transform="translate(109.116211 38.965625)scale(0.7)" xlink:href="#DejaVuSans-37"/>
      </g>
     </g>
    </g>
    <g id="xtick_9">
     <g id="line2d_9">
      <g>
       <use style="stroke:#000000;stroke-width:0.8;" x="353.262119" xlink:href="#m3789019942" y="387.888592"/>
      </g>
     </g>
     <g id="text_9">
      <!-- $2^{18}$ -->
      <g transform="translate(349.662503 411.363075)rotate(-45)scale(0.1 -0.1)">
       <defs>
        <path d="M 2034 2216 
Q 1584 2216 1326 1975 
Q 1069 1734 1069 1313 
Q 1069 891 1326 650 
Q 1584 409 2034 409 
Q 2484 409 2743 651 
Q 3003 894 3003 1313 
Q 3003 1734 2745 1975 
Q 2488 2216 2034 2216 
z
M 1403 2484 
Q 997 2584 770 2862 
Q 544 3141 544 3541 
Q 544 4100 942 4425 
Q 1341 4750 2034 4750 
Q 2731 4750 3128 4425 
Q 3525 4100 3525 3541 
Q 3525 3141 3298 2862 
Q 3072 2584 2669 2484 
Q 3125 2378 3379 2068 
Q 3634 1759 3634 1313 
Q 3634 634 3220 271 
Q 2806 -91 2034 -91 
Q 1263 -91 848 271 
Q 434 634 434 1313 
Q 434 1759 690 2068 
Q 947 2378 1403 2484 
z
M 1172 3481 
Q 1172 3119 1398 2916 
Q 1625 2713 2034 2713 
Q 2441 2713 2670 2916 
Q 2900 3119 2900 3481 
Q 2900 3844 2670 4047 
Q 2441 4250 2034 4250 
Q 1625 4250 1398 4047 
Q 1172 3844 1172 3481 
z
" id="DejaVuSans-38" transform="scale(0.015625)"/>
       </defs>
       <use transform="translate(0 0.765625)" xlink:href="#DejaVuSans-32"/>
       <use transform="translate(64.580078 39.046875)scale(0.7)" xlink:href="#DejaVuSans-31"/>
       <use transform="translate(109.116211 39.046875)scale(0.7)" xlink:href="#DejaVuSans-38"/>
      </g>
     </g>
    </g>
    <g id="xtick_10">
     <g id="line2d_10">
      <g>
       <use style="stroke:#000000;stroke-width:0.8;" x="387.817203" xlink:href="#m3789019942" y="387.888592"/>
      </g>
     </g>
     <g id="text_10">
      <!-- $2^{19}$ -->
      <g transform="translate(384.217588 411.363075)rotate(-45)scale(0.1 -0.1)">
       <defs>
        <path d="M 703 97 
L 703 672 
Q 941 559 1184 500 
Q 1428 441 1663 441 
Q 2288 441 2617 861 
Q 2947 1281 2994 2138 
Q 2813 1869 2534 1725 
Q 2256 1581 1919 1581 
Q 1219 1581 811 2004 
Q 403 2428 403 3163 
Q 403 3881 828 4315 
Q 1253 4750 1959 4750 
Q 2769 4750 3195 4129 
Q 3622 3509 3622 2328 
Q 3622 1225 3098 567 
Q 2575 -91 1691 -91 
Q 1453 -91 1209 -44 
Q 966 3 703 97 
z
M 1959 2075 
Q 2384 2075 2632 2365 
Q 2881 2656 2881 3163 
Q 2881 3666 2632 3958 
Q 2384 4250 1959 4250 
Q 1534 4250 1286 3958 
Q 1038 3666 1038 3163 
Q 1038 2656 1286 2365 
Q 1534 2075 1959 2075 
z
" id="DejaVuSans-39" transform="scale(0.015625)"/>
       </defs>
       <use transform="translate(0 0.765625)" xlink:href="#DejaVuSans-32"/>
       <use transform="translate(64.580078 39.046875)scale(0.7)" xlink:href="#DejaVuSans-31"/>
       <use transform="translate(109.116211 39.046875)scale(0.7)" xlink:href="#DejaVuSans-39"/>
      </g>
     </g>
    </g>
    <g id="xtick_11">
     <g id="line2d_11">
      <g>
       <use style="stroke:#000000;stroke-width:0.8;" x="422.372288" xlink:href="#m3789019942" y="387.888592"/>
      </g>
     </g>
     <g id="text_11">
      <!-- $2^{20}$ -->
      <g transform="translate(418.772673 411.363075)rotate(-45)scale(0.1 -0.1)">
       <use transform="translate(0 0.765625)" xlink:href="#DejaVuSans-32"/>
       <use transform="translate(64.580078 39.046875)scale(0.7)" xlink:href="#DejaVuSans-32"/>
       <use transform="translate(109.116211 39.046875)scale(0.7)" xlink:href="#DejaVuSans-30"/>
      </g>
     </g>
    </g>
    <g id="xtick_12">
     <g id="line2d_12">
      <g>
       <use style="stroke:#000000;stroke-width:0.8;" x="456.927373" xlink:href="#m3789019942" y="387.888592"/>
      </g>
     </g>
     <g id="text_12">
      <!-- $2^{21}$ -->
      <g transform="translate(453.327757 411.363075)rotate(-45)scale(0.1 -0.1)">
       <use transform="translate(0 0.765625)" xlink:href="#DejaVuSans-32"/>
       <use transform="translate(64.580078 39.046875)scale(0.7)" xlink:href="#DejaVuSans-32"/>
       <use transform="translate(109.116211 39.046875)scale(0.7)" xlink:href="#DejaVuSans-31"/>
      </g>
     </g>
    </g>
    <g id="xtick_13">
     <g id="line2d_13">
      <g>
       <use style="stroke:#000000;stroke-width:0.8;" x="491.482458" xlink:href="#m3789019942" y="387.888592"/>
      </g>
     </g>
     <g id="text_13">
      <!-- $2^{22}$ -->
      <g transform="translate(487.882842 411.363075)rotate(-45)scale(0.1 -0.1)">
       <use transform="translate(0 0.765625)" xlink:href="#DejaVuSans-32"/>
       <use transform="translate(64.580078 39.046875)scale(0.7)" xlink:href="#DejaVuSans-32"/>
       <use transform="translate(109.116211 39.046875)scale(0.7)" xlink:href="#DejaVuSans-32"/>
      </g>
     </g>
    </g>
    <g id="xtick_14">
     <g id="line2d_14">
      <g>
       <use style="stroke:#000000;stroke-width:0.8;" x="526.037542" xlink:href="#m3789019942" y="387.888592"/>
      </g>
     </g>
     <g id="text_14">
      <!-- $2^{23}$ -->
      <g transform="translate(522.437927 411.363075)rotate(-45)scale(0.1 -0.1)">
       <use transform="translate(0 0.765625)" xlink:href="#DejaVuSans-32"/>
       <use transform="translate(64.580078 39.046875)scale(0.7)" xlink:href="#DejaVuSans-32"/>
       <use transform="translate(109.116211 39.046875)scale(0.7)" xlink:href="#DejaVuSans-33"/>
      </g>
     </g>
    </g>
    <g id="xtick_15">
     <g id="line2d_15">
      <g>
       <use style="stroke:#000000;stroke-width:0.8;" x="560.592627" xlink:href="#m3789019942" y="387.888592"/>
      </g>
     </g>
     <g id="text_15">
      <!-- $2^{24}$ -->
      <g transform="translate(556.993012 411.363075)rotate(-45)scale(0.1 -0.1)">
       <use transform="translate(0 0.765625)" xlink:href="#DejaVuSans-32"/>
       <use transform="translate(64.580078 39.046875)scale(0.7)" xlink:href="#DejaVuSans-32"/>
       <use transform="translate(109.116211 39.046875)scale(0.7)" xlink:href="#DejaVuSans-34"/>
      </g>
     </g>
    </g>
    <g id="text_16">
     <!-- Haystack size -->
     <g transform="translate(270.544375 424.432074)scale(0.1 -0.1)">
      <defs>
       <path d="M 628 4666 
L 1259 4666 
L 1259 2753 
L 3553 2753 
L 3553 4666 
L 4184 4666 
L 4184 0 
L 3553 0 
L 3553 2222 
L 1259 2222 
L 1259 0 
L 628 0 
L 628 4666 
z
" id="DejaVuSans-48" transform="scale(0.015625)"/>
       <path d="M 2194 1759 
Q 1497 1759 1228 1600 
Q 959 1441 959 1056 
Q 959 750 1161 570 
Q 1363 391 1709 391 
Q 2188 391 2477 730 
Q 2766 1069 2766 1631 
L 2766 1759 
L 2194 1759 
z
M 3341 1997 
L 3341 0 
L 2766 0 
L 2766 531 
Q 2569 213 2275 61 
Q 1981 -91 1556 -91 
Q 1019 -91 701 211 
Q 384 513 384 1019 
Q 384 1609 779 1909 
Q 1175 2209 1959 2209 
L 2766 2209 
L 2766 2266 
Q 2766 2663 2505 2880 
Q 2244 3097 1772 3097 
Q 1472 3097 1187 3025 
Q 903 2953 641 2809 
L 641 3341 
Q 956 3463 1253 3523 
Q 1550 3584 1831 3584 
Q 2591 3584 2966 3190 
Q 3341 2797 3341 1997 
z
" id="DejaVuSans-61" transform="scale(0.015625)"/>
       <path d="M 2059 -325 
Q 1816 -950 1584 -1140 
Q 1353 -1331 966 -1331 
L 506 -1331 
L 506 -850 
L 844 -850 
Q 1081 -850 1212 -737 
Q 1344 -625 1503 -206 
L 1606 56 
L 191 3500 
L 800 3500 
L 1894 763 
L 2988 3500 
L 3597 3500 
L 2059 -325 
z
" id="DejaVuSans-79" transform="scale(0.015625)"/>
       <path d="M 2834 3397 
L 2834 2853 
Q 2591 2978 2328 3040 
Q 2066 3103 1784 3103 
Q 1356 3103 1142 2972 
Q 928 2841 928 2578 
Q 928 2378 1081 2264 
Q 1234 2150 1697 2047 
L 1894 2003 
Q 2506 1872 2764 1633 
Q 3022 1394 3022 966 
Q 3022 478 2636 193 
Q 2250 -91 1575 -91 
Q 1294 -91 989 -36 
Q 684 19 347 128 
L 347 722 
Q 666 556 975 473 
Q 1284 391 1588 391 
Q 1994 391 2212 530 
Q 2431 669 2431 922 
Q 2431 1156 2273 1281 
Q 2116 1406 1581 1522 
L 1381 1569 
Q 847 1681 609 1914 
Q 372 2147 372 2553 
Q 372 3047 722 3315 
Q 1072 3584 1716 3584 
Q 2034 3584 2315 3537 
Q 2597 3491 2834 3397 
z
" id="DejaVuSans-73" transform="scale(0.015625)"/>
       <path d="M 1172 4494 
L 1172 3500 
L 2356 3500 
L 2356 3053 
L 1172 3053 
L 1172 1153 
Q 1172 725 1289 603 
Q 1406 481 1766 481 
L 2356 481 
L 2356 0 
L 1766 0 
Q 1100 0 847 248 
Q 594 497 594 1153 
L 594 3053 
L 172 3053 
L 172 3500 
L 594 3500 
L 594 4494 
L 1172 4494 
z
" id="DejaVuSans-74" transform="scale(0.015625)"/>
       <path d="M 3122 3366 
L 3122 2828 
Q 2878 2963 2633 3030 
Q 2388 3097 2138 3097 
Q 1578 3097 1268 2742 
Q 959 2388 959 1747 
Q 959 1106 1268 751 
Q 1578 397 2138 397 
Q 2388 397 2633 464 
Q 2878 531 3122 666 
L 3122 134 
Q 2881 22 2623 -34 
Q 2366 -91 2075 -91 
Q 1284 -91 818 406 
Q 353 903 353 1747 
Q 353 2603 823 3093 
Q 1294 3584 2113 3584 
Q 2378 3584 2631 3529 
Q 2884 3475 3122 3366 
z
" id="DejaVuSans-63" transform="scale(0.015625)"/>
       <path d="M 581 4863 
L 1159 4863 
L 1159 1991 
L 2875 3500 
L 3609 3500 
L 1753 1863 
L 3688 0 
L 2938 0 
L 1159 1709 
L 1159 0 
L 581 0 
L 581 4863 
z
" id="DejaVuSans-6b" transform="scale(0.015625)"/>
       <path id="DejaVuSans-20" transform="scale(0.015625)"/>
       <path d="M 603 3500 
L 1178 3500 
L 1178 0 
L 603 0 
L 603 3500 
z
M 603 4863 
L 1178 4863 
L 1178 4134 
L 603 4134 
L 603 4863 
z
" id="DejaVuSans-69" transform="scale(0.015625)"/>
       <path d="M 353 3500 
L 3084 3500 
L 3084 2975 
L 922 459 
L 3084 459 
L 3084 0 
L 275 0 
L 275 525 
L 2438 3041 
L 353 3041 
L 353 3500 
z
" id="DejaVuSans-7a" transform="scale(0.015625)"/>
       <path d="M 3597 1894 
L 3597 1613 
L 953 1613 
Q 991 1019 1311 708 
Q 1631 397 2203 397 
Q 2534 397 2845 478 
Q 3156 559 3463 722 
L 3463 178 
Q 3153 47 2828 -22 
Q 2503 -91 2169 -91 
Q 1331 -91 842 396 
Q 353 884 353 1716 
Q 353 2575 817 3079 
Q 1281 3584 2069 3584 
Q 2775 3584 3186 3129 
Q 3597 2675 3597 1894 
z
M 3022 2063 
Q 3016 2534 2758 2815 
Q 2500 3097 2075 3097 
Q 1594 3097 1305 2825 
Q 1016 2553 972 2059 
L 3022 2063 
z
" id="DejaVuSans-65" transform="scale(0.015625)"/>
      </defs>
      <use xlink:href="#DejaVuSans-48"/>
      <use x="75.195312" xlink:href="#DejaVuSans-61"/>
      <use x="136.474609" xlink:href="#DejaVuSans-79"/>
      <use x="195.654297" xlink:href="#DejaVuSans-73"/>
      <use x="247.753906" xlink:href="#DejaVuSans-74"/>
      <use x="286.962891" xlink:href="#DejaVuSans-61"/>
      <use x="348.242188" xlink:href="#DejaVuSans-63"/>
      <use x="403.222656" xlink:href="#DejaVuSans-6b"/>
      <use x="461.132812" xlink:href="#DejaVuSans-20"/>
      <use x="492.919922" xlink:href="#DejaVuSans-73"/>
      <use x="545.019531" xlink:href="#DejaVuSans-69"/>
      <use x="572.802734" xlink:href="#DejaVuSans-7a"/>
      <use x="625.292969" xlink:href="#DejaVuSans-65"/>
     </g>
    </g>
   </g>
   <g id="matplotlib.axis_2">
    <g id="ytick_1">
     <g id="line2d_16">
      <defs>
       <path d="M 0 0 
L -3.5 0 
" id="m1a990170e6" style="stroke:#000000;stroke-width:0.8;"/>
      </defs>
      <g>
       <use style="stroke:#000000;stroke-width:0.8;" x="35.77" xlink:href="#m1a990170e6" y="387.888592"/>
      </g>
     </g>
     <g id="text_17">
      <!-- 0 -->
      <g transform="translate(22.4075 391.687811)scale(0.1 -0.1)">
       <use xlink:href="#DejaVuSans-30"/>
      </g>
     </g>
    </g>
    <g id="ytick_2">
     <g id="line2d_17">
      <g>
       <use style="stroke:#000000;stroke-width:0.8;" x="35.77" xlink:href="#m1a990170e6" y="313.926874"/>
      </g>
     </g>
     <g id="text_18">
      <!-- 2 -->
      <g transform="translate(22.4075 317.726093)scale(0.1 -0.1)">
       <use xlink:href="#DejaVuSans-32"/>
      </g>
     </g>
    </g>
    <g id="ytick_3">
     <g id="line2d_18">
      <g>
       <use style="stroke:#000000;stroke-width:0.8;" x="35.77" xlink:href="#m1a990170e6" y="239.965155"/>
      </g>
     </g>
     <g id="text_19">
      <!-- 4 -->
      <g transform="translate(22.4075 243.764374)scale(0.1 -0.1)">
       <use xlink:href="#DejaVuSans-34"/>
      </g>
     </g>
    </g>
    <g id="ytick_4">
     <g id="line2d_19">
      <g>
       <use style="stroke:#000000;stroke-width:0.8;" x="35.77" xlink:href="#m1a990170e6" y="166.003437"/>
      </g>
     </g>
     <g id="text_20">
      <!-- 6 -->
      <g transform="translate(22.4075 169.802656)scale(0.1 -0.1)">
       <use xlink:href="#DejaVuSans-36"/>
      </g>
     </g>
    </g>
    <g id="ytick_5">
     <g id="line2d_20">
      <g>
       <use style="stroke:#000000;stroke-width:0.8;" x="35.77" xlink:href="#m1a990170e6" y="92.041718"/>
      </g>
     </g>
     <g id="text_21">
      <!-- 8 -->
      <g transform="translate(22.4075 95.840937)scale(0.1 -0.1)">
       <use xlink:href="#DejaVuSans-38"/>
      </g>
     </g>
    </g>
    <g id="ytick_6">
     <g id="line2d_21">
      <g>
       <use style="stroke:#000000;stroke-width:0.8;" x="35.77" xlink:href="#m1a990170e6" y="18.08"/>
      </g>
     </g>
     <g id="text_22">
      <!-- 10 -->
      <g transform="translate(16.045 21.879219)scale(0.1 -0.1)">
       <use xlink:href="#DejaVuSans-31"/>
       <use x="63.623047" xlink:href="#DejaVuSans-30"/>
      </g>
     </g>
    </g>
    <g id="text_23">
     <!-- Memory per straw (kiB) -->
     <g transform="translate(9.965313 261.782734)rotate(-90)scale(0.1 -0.1)">
      <defs>
       <path d="M 628 4666 
L 1569 4666 
L 2759 1491 
L 3956 4666 
L 4897 4666 
L 4897 0 
L 4281 0 
L 4281 4097 
L 3078 897 
L 2444 897 
L 1241 4097 
L 1241 0 
L 628 0 
L 628 4666 
z
" id="DejaVuSans-4d" transform="scale(0.015625)"/>
       <path d="M 3328 2828 
Q 3544 3216 3844 3400 
Q 4144 3584 4550 3584 
Q 5097 3584 5394 3201 
Q 5691 2819 5691 2113 
L 5691 0 
L 5113 0 
L 5113 2094 
Q 5113 2597 4934 2840 
Q 4756 3084 4391 3084 
Q 3944 3084 3684 2787 
Q 3425 2491 3425 1978 
L 3425 0 
L 2847 0 
L 2847 2094 
Q 2847 2600 2669 2842 
Q 2491 3084 2119 3084 
Q 1678 3084 1418 2786 
Q 1159 2488 1159 1978 
L 1159 0 
L 581 0 
L 581 3500 
L 1159 3500 
L 1159 2956 
Q 1356 3278 1631 3431 
Q 1906 3584 2284 3584 
Q 2666 3584 2933 3390 
Q 3200 3197 3328 2828 
z
" id="DejaVuSans-6d" transform="scale(0.015625)"/>
       <path d="M 1959 3097 
Q 1497 3097 1228 2736 
Q 959 2375 959 1747 
Q 959 1119 1226 758 
Q 1494 397 1959 397 
Q 2419 397 2687 759 
Q 2956 1122 2956 1747 
Q 2956 2369 2687 2733 
Q 2419 3097 1959 3097 
z
M 1959 3584 
Q 2709 3584 3137 3096 
Q 3566 2609 3566 1747 
Q 3566 888 3137 398 
Q 2709 -91 1959 -91 
Q 1206 -91 779 398 
Q 353 888 353 1747 
Q 353 2609 779 3096 
Q 1206 3584 1959 3584 
z
" id="DejaVuSans-6f" transform="scale(0.015625)"/>
       <path d="M 2631 2963 
Q 2534 3019 2420 3045 
Q 2306 3072 2169 3072 
Q 1681 3072 1420 2755 
Q 1159 2438 1159 1844 
L 1159 0 
L 581 0 
L 581 3500 
L 1159 3500 
L 1159 2956 
Q 1341 3275 1631 3429 
Q 1922 3584 2338 3584 
Q 2397 3584 2469 3576 
Q 2541 3569 2628 3553 
L 2631 2963 
z
" id="DejaVuSans-72" transform="scale(0.015625)"/>
       <path d="M 1159 525 
L 1159 -1331 
L 581 -1331 
L 581 3500 
L 1159 3500 
L 1159 2969 
Q 1341 3281 1617 3432 
Q 1894 3584 2278 3584 
Q 2916 3584 3314 3078 
Q 3713 2572 3713 1747 
Q 3713 922 3314 415 
Q 2916 -91 2278 -91 
Q 1894 -91 1617 61 
Q 1341 213 1159 525 
z
M 3116 1747 
Q 3116 2381 2855 2742 
Q 2594 3103 2138 3103 
Q 1681 3103 1420 2742 
Q 1159 2381 1159 1747 
Q 1159 1113 1420 752 
Q 1681 391 2138 391 
Q 2594 391 2855 752 
Q 3116 1113 3116 1747 
z
" id="DejaVuSans-70" transform="scale(0.015625)"/>
       <path d="M 269 3500 
L 844 3500 
L 1563 769 
L 2278 3500 
L 2956 3500 
L 3675 769 
L 4391 3500 
L 4966 3500 
L 4050 0 
L 3372 0 
L 2619 2869 
L 1863 0 
L 1184 0 
L 269 3500 
z
" id="DejaVuSans-77" transform="scale(0.015625)"/>
       <path d="M 1984 4856 
Q 1566 4138 1362 3434 
Q 1159 2731 1159 2009 
Q 1159 1288 1364 580 
Q 1569 -128 1984 -844 
L 1484 -844 
Q 1016 -109 783 600 
Q 550 1309 550 2009 
Q 550 2706 781 3412 
Q 1013 4119 1484 4856 
L 1984 4856 
z
" id="DejaVuSans-28" transform="scale(0.015625)"/>
       <path d="M 1259 2228 
L 1259 519 
L 2272 519 
Q 2781 519 3026 730 
Q 3272 941 3272 1375 
Q 3272 1813 3026 2020 
Q 2781 2228 2272 2228 
L 1259 2228 
z
M 1259 4147 
L 1259 2741 
L 2194 2741 
Q 2656 2741 2882 2914 
Q 3109 3088 3109 3444 
Q 3109 3797 2882 3972 
Q 2656 4147 2194 4147 
L 1259 4147 
z
M 628 4666 
L 2241 4666 
Q 2963 4666 3353 4366 
Q 3744 4066 3744 3513 
Q 3744 3084 3544 2831 
Q 3344 2578 2956 2516 
Q 3422 2416 3680 2098 
Q 3938 1781 3938 1306 
Q 3938 681 3513 340 
Q 3088 0 2303 0 
L 628 0 
L 628 4666 
z
" id="DejaVuSans-42" transform="scale(0.015625)"/>
       <path d="M 513 4856 
L 1013 4856 
Q 1481 4119 1714 3412 
Q 1947 2706 1947 2009 
Q 1947 1309 1714 600 
Q 1481 -109 1013 -844 
L 513 -844 
Q 928 -128 1133 580 
Q 1338 1288 1338 2009 
Q 1338 2731 1133 3434 
Q 928 4138 513 4856 
z
" id="DejaVuSans-29" transform="scale(0.015625)"/>
      </defs>
      <use xlink:href="#DejaVuSans-4d"/>
      <use x="86.279297" xlink:href="#DejaVuSans-65"/>
      <use x="147.802734" xlink:href="#DejaVuSans-6d"/>
      <use x="245.214844" xlink:href="#DejaVuSans-6f"/>
      <use x="306.396484" xlink:href="#DejaVuSans-72"/>
      <use x="347.509766" xlink:href="#DejaVuSans-79"/>
      <use x="406.689453" xlink:href="#DejaVuSans-20"/>
      <use x="438.476562" xlink:href="#DejaVuSans-70"/>
      <use x="501.953125" xlink:href="#DejaVuSans-65"/>
      <use x="563.476562" xlink:href="#DejaVuSans-72"/>
      <use x="604.589844" xlink:href="#DejaVuSans-20"/>
      <use x="636.376953" xlink:href="#DejaVuSans-73"/>
      <use x="688.476562" xlink:href="#DejaVuSans-74"/>
      <use x="727.685547" xlink:href="#DejaVuSans-72"/>
      <use x="768.798828" xlink:href="#DejaVuSans-61"/>
      <use x="830.078125" xlink:href="#DejaVuSans-77"/>
      <use x="911.865234" xlink:href="#DejaVuSans-20"/>
      <use x="943.652344" xlink:href="#DejaVuSans-28"/>
      <use x="982.666016" xlink:href="#DejaVuSans-6b"/>
      <use x="1040.576172" xlink:href="#DejaVuSans-69"/>
      <use x="1068.359375" xlink:href="#DejaVuSans-42"/>
      <use x="1136.962891" xlink:href="#DejaVuSans-29"/>
     </g>
    </g>
   </g>
   <g id="patch_78">
    <path d="M 35.77 387.888592 
L 35.77 18.08 
" style="fill:none;stroke:#000000;stroke-linecap:square;stroke-linejoin:miter;stroke-width:0.8;"/>
   </g>
   <g id="patch_79">
    <path d="M 574 387.888592 
L 574 18.08 
" style="fill:none;stroke:#000000;stroke-linecap:square;stroke-linejoin:miter;stroke-width:0.8;"/>
   </g>
   <g id="patch_80">
    <path d="M 35.77 387.888592 
L 574 387.888592 
" style="fill:none;stroke:#000000;stroke-linecap:square;stroke-linejoin:miter;stroke-width:0.8;"/>
   </g>
   <g id="patch_81">
    <path d="M 35.77 18.08 
L 574 18.08 
" style="fill:none;stroke:#000000;stroke-linecap:square;stroke-linejoin:miter;stroke-width:0.8;"/>
   </g>
   <g id="text_24">
    <!-- Memory use divided by size of the haystack -->
    <g transform="translate(172.928125 12.08)scale(0.12 -0.12)">
     <defs>
      <path d="M 544 1381 
L 544 3500 
L 1119 3500 
L 1119 1403 
Q 1119 906 1312 657 
Q 1506 409 1894 409 
Q 2359 409 2629 706 
Q 2900 1003 2900 1516 
L 2900 3500 
L 3475 3500 
L 3475 0 
L 2900 0 
L 2900 538 
Q 2691 219 2414 64 
Q 2138 -91 1772 -91 
Q 1169 -91 856 284 
Q 544 659 544 1381 
z
M 1991 3584 
L 1991 3584 
z
" id="DejaVuSans-75" transform="scale(0.015625)"/>
      <path d="M 2906 2969 
L 2906 4863 
L 3481 4863 
L 3481 0 
L 2906 0 
L 2906 525 
Q 2725 213 2448 61 
Q 2172 -91 1784 -91 
Q 1150 -91 751 415 
Q 353 922 353 1747 
Q 353 2572 751 3078 
Q 1150 3584 1784 3584 
Q 2172 3584 2448 3432 
Q 2725 3281 2906 2969 
z
M 947 1747 
Q 947 1113 1208 752 
Q 1469 391 1925 391 
Q 2381 391 2643 752 
Q 2906 1113 2906 1747 
Q 2906 2381 2643 2742 
Q 2381 3103 1925 3103 
Q 1469 3103 1208 2742 
Q 947 2381 947 1747 
z
" id="DejaVuSans-64" transform="scale(0.015625)"/>
      <path d="M 191 3500 
L 800 3500 
L 1894 563 
L 2988 3500 
L 3597 3500 
L 2284 0 
L 1503 0 
L 191 3500 
z
" id="DejaVuSans-76" transform="scale(0.015625)"/>
      <path d="M 3116 1747 
Q 3116 2381 2855 2742 
Q 2594 3103 2138 3103 
Q 1681 3103 1420 2742 
Q 1159 2381 1159 1747 
Q 1159 1113 1420 752 
Q 1681 391 2138 391 
Q 2594 391 2855 752 
Q 3116 1113 3116 1747 
z
M 1159 2969 
Q 1341 3281 1617 3432 
Q 1894 3584 2278 3584 
Q 2916 3584 3314 3078 
Q 3713 2572 3713 1747 
Q 3713 922 3314 415 
Q 2916 -91 2278 -91 
Q 1894 -91 1617 61 
Q 1341 213 1159 525 
L 1159 0 
L 581 0 
L 581 4863 
L 1159 4863 
L 1159 2969 
z
" id="DejaVuSans-62" transform="scale(0.015625)"/>
      <path d="M 2375 4863 
L 2375 4384 
L 1825 4384 
Q 1516 4384 1395 4259 
Q 1275 4134 1275 3809 
L 1275 3500 
L 2222 3500 
L 2222 3053 
L 1275 3053 
L 1275 0 
L 697 0 
L 697 3053 
L 147 3053 
L 147 3500 
L 697 3500 
L 697 3744 
Q 697 4328 969 4595 
Q 1241 4863 1831 4863 
L 2375 4863 
z
" id="DejaVuSans-66" transform="scale(0.015625)"/>
      <path d="M 3513 2113 
L 3513 0 
L 2938 0 
L 2938 2094 
Q 2938 2591 2744 2837 
Q 2550 3084 2163 3084 
Q 1697 3084 1428 2787 
Q 1159 2491 1159 1978 
L 1159 0 
L 581 0 
L 581 4863 
L 1159 4863 
L 1159 2956 
Q 1366 3272 1645 3428 
Q 1925 3584 2291 3584 
Q 2894 3584 3203 3211 
Q 3513 2838 3513 2113 
z
" id="DejaVuSans-68" transform="scale(0.015625)"/>
     </defs>
     <use xlink:href="#DejaVuSans-4d"/>
     <use x="86.279297" xlink:href="#DejaVuSans-65"/>
     <use x="147.802734" xlink:href="#DejaVuSans-6d"/>
     <use x="245.214844" xlink:href="#DejaVuSans-6f"/>
     <use x="306.396484" xlink:href="#DejaVuSans-72"/>
     <use x="347.509766" xlink:href="#DejaVuSans-79"/>
     <use x="406.689453" xlink:href="#DejaVuSans-20"/>
     <use x="438.476562" xlink:href="#DejaVuSans-75"/>
     <use x="501.855469" xlink:href="#DejaVuSans-73"/>
     <use x="553.955078" xlink:href="#DejaVuSans-65"/>
     <use x="615.478516" xlink:href="#DejaVuSans-20"/>
     <use x="647.265625" xlink:href="#DejaVuSans-64"/>
     <use x="710.742188" xlink:href="#DejaVuSans-69"/>
     <use x="738.525391" xlink:href="#DejaVuSans-76"/>
     <use x="797.705078" xlink:href="#DejaVuSans-69"/>
     <use x="825.488281" xlink:href="#DejaVuSans-64"/>
     <use x="888.964844" xlink:href="#DejaVuSans-65"/>
     <use x="950.488281" xlink:href="#DejaVuSans-64"/>
     <use x="1013.964844" xlink:href="#DejaVuSans-20"/>
     <use x="1045.751953" xlink:href="#DejaVuSans-62"/>
     <use x="1109.228516" xlink:href="#DejaVuSans-79"/>
     <use x="1168.408203" xlink:href="#DejaVuSans-20"/>
     <use x="1200.195312" xlink:href="#DejaVuSans-73"/>
     <use x="1252.294922" xlink:href="#DejaVuSans-69"/>
     <use x="1280.078125" xlink:href="#DejaVuSans-7a"/>
     <use x="1332.568359" xlink:href="#DejaVuSans-65"/>
     <use x="1394.091797" xlink:href="#DejaVuSans-20"/>
     <use x="1425.878906" xlink:href="#DejaVuSans-6f"/>
     <use x="1487.060547" xlink:href="#DejaVuSans-66"/>
     <use x="1522.265625" xlink:href="#DejaVuSans-20"/>
     <use x="1554.052734" xlink:href="#DejaVuSans-74"/>
     <use x="1593.261719" xlink:href="#DejaVuSans-68"/>
     <use x="1656.640625" xlink:href="#DejaVuSans-65"/>
     <use x="1718.164062" xlink:href="#DejaVuSans-20"/>
     <use x="1749.951172" xlink:href="#DejaVuSans-68"/>
     <use x="1813.330078" xlink:href="#DejaVuSans-61"/>
     <use x="1874.609375" xlink:href="#DejaVuSans-79"/>
     <use x="1933.789062" xlink:href="#DejaVuSans-73"/>
     <use x="1985.888672" xlink:href="#DejaVuSans-74"/>
     <use x="2025.097656" xlink:href="#DejaVuSans-61"/>
     <use x="2086.376953" xlink:href="#DejaVuSans-63"/>
     <use x="2141.357422" xlink:href="#DejaVuSans-6b"/>
    </g>
   </g>
   <g id="legend_1">
    <g id="patch_82">
     <path d="M 440.151563 99.470625 
L 567 99.470625 
Q 569 99.470625 569 97.470625 
L 569 25.08 
Q 569 23.08 567 23.08 
L 440.151563 23.08 
Q 438.151563 23.08 438.151563 25.08 
L 438.151563 97.470625 
Q 438.151563 99.470625 440.151563 99.470625 
z
" style="fill:#ffffff;opacity:0.8;stroke:#cccccc;stroke-linejoin:miter;"/>
    </g>
    <g id="patch_83">
     <path d="M 442.151563 34.678437 
L 462.151563 34.678437 
L 462.151563 27.678437 
L 442.151563 27.678437 
z
" style="fill:#003f5c;"/>
    </g>
    <g id="text_25">
     <!-- Go (native) -->
     <g transform="translate(470.151563 34.678437)scale(0.1 -0.1)">
      <defs>
       <path d="M 3809 666 
L 3809 1919 
L 2778 1919 
L 2778 2438 
L 4434 2438 
L 4434 434 
Q 4069 175 3628 42 
Q 3188 -91 2688 -91 
Q 1594 -91 976 548 
Q 359 1188 359 2328 
Q 359 3472 976 4111 
Q 1594 4750 2688 4750 
Q 3144 4750 3555 4637 
Q 3966 4525 4313 4306 
L 4313 3634 
Q 3963 3931 3569 4081 
Q 3175 4231 2741 4231 
Q 1884 4231 1454 3753 
Q 1025 3275 1025 2328 
Q 1025 1384 1454 906 
Q 1884 428 2741 428 
Q 3075 428 3337 486 
Q 3600 544 3809 666 
z
" id="DejaVuSans-47" transform="scale(0.015625)"/>
       <path d="M 3513 2113 
L 3513 0 
L 2938 0 
L 2938 2094 
Q 2938 2591 2744 2837 
Q 2550 3084 2163 3084 
Q 1697 3084 1428 2787 
Q 1159 2491 1159 1978 
L 1159 0 
L 581 0 
L 581 3500 
L 1159 3500 
L 1159 2956 
Q 1366 3272 1645 3428 
Q 1925 3584 2291 3584 
Q 2894 3584 3203 3211 
Q 3513 2838 3513 2113 
z
" id="DejaVuSans-6e" transform="scale(0.015625)"/>
      </defs>
      <use xlink:href="#DejaVuSans-47"/>
      <use x="77.490234" xlink:href="#DejaVuSans-6f"/>
      <use x="138.671875" xlink:href="#DejaVuSans-20"/>
      <use x="170.458984" xlink:href="#DejaVuSans-28"/>
      <use x="209.472656" xlink:href="#DejaVuSans-6e"/>
      <use x="272.851562" xlink:href="#DejaVuSans-61"/>
      <use x="334.130859" xlink:href="#DejaVuSans-74"/>
      <use x="373.339844" xlink:href="#DejaVuSans-69"/>
      <use x="401.123047" xlink:href="#DejaVuSans-76"/>
      <use x="460.302734" xlink:href="#DejaVuSans-65"/>
      <use x="521.826172" xlink:href="#DejaVuSans-29"/>
     </g>
    </g>
    <g id="patch_84">
     <path d="M 442.151563 49.356562 
L 462.151563 49.356562 
L 462.151563 42.356562 
L 442.151563 42.356562 
z
" style="fill:#58508d;"/>
    </g>
    <g id="text_26">
     <!-- Go (WebAssembly) -->
     <g transform="translate(470.151563 49.356562)scale(0.1 -0.1)">
      <defs>
       <path d="M 213 4666 
L 850 4666 
L 1831 722 
L 2809 4666 
L 3519 4666 
L 4500 722 
L 5478 4666 
L 6119 4666 
L 4947 0 
L 4153 0 
L 3169 4050 
L 2175 0 
L 1381 0 
L 213 4666 
z
" id="DejaVuSans-57" transform="scale(0.015625)"/>
       <path d="M 2188 4044 
L 1331 1722 
L 3047 1722 
L 2188 4044 
z
M 1831 4666 
L 2547 4666 
L 4325 0 
L 3669 0 
L 3244 1197 
L 1141 1197 
L 716 0 
L 50 0 
L 1831 4666 
z
" id="DejaVuSans-41" transform="scale(0.015625)"/>
       <path d="M 603 4863 
L 1178 4863 
L 1178 0 
L 603 0 
L 603 4863 
z
" id="DejaVuSans-6c" transform="scale(0.015625)"/>
      </defs>
      <use xlink:href="#DejaVuSans-47"/>
      <use x="77.490234" xlink:href="#DejaVuSans-6f"/>
      <use x="138.671875" xlink:href="#DejaVuSans-20"/>
      <use x="170.458984" xlink:href="#DejaVuSans-28"/>
      <use x="209.472656" xlink:href="#DejaVuSans-57"/>
      <use x="302.474609" xlink:href="#DejaVuSans-65"/>
      <use x="363.998047" xlink:href="#DejaVuSans-62"/>
      <use x="427.474609" xlink:href="#DejaVuSans-41"/>
      <use x="495.882812" xlink:href="#DejaVuSans-73"/>
      <use x="547.982422" xlink:href="#DejaVuSans-73"/>
      <use x="600.082031" xlink:href="#DejaVuSans-65"/>
      <use x="661.605469" xlink:href="#DejaVuSans-6d"/>
      <use x="759.017578" xlink:href="#DejaVuSans-62"/>
      <use x="822.494141" xlink:href="#DejaVuSans-6c"/>
      <use x="850.277344" xlink:href="#DejaVuSans-79"/>
      <use x="909.457031" xlink:href="#DejaVuSans-29"/>
     </g>
    </g>
    <g id="patch_85">
     <path d="M 442.151563 64.034687 
L 462.151563 64.034687 
L 462.151563 57.034687 
L 442.151563 57.034687 
z
" style="fill:#bc5090;"/>
    </g>
    <g id="text_27">
     <!-- TinyGo -->
     <g transform="translate(470.151563 64.034687)scale(0.1 -0.1)">
      <defs>
       <path d="M -19 4666 
L 3928 4666 
L 3928 4134 
L 2272 4134 
L 2272 0 
L 1638 0 
L 1638 4134 
L -19 4134 
L -19 4666 
z
" id="DejaVuSans-54" transform="scale(0.015625)"/>
      </defs>
      <use xlink:href="#DejaVuSans-54"/>
      <use x="57.958984" xlink:href="#DejaVuSans-69"/>
      <use x="85.742188" xlink:href="#DejaVuSans-6e"/>
      <use x="149.121094" xlink:href="#DejaVuSans-79"/>
      <use x="208.300781" xlink:href="#DejaVuSans-47"/>
      <use x="285.791016" xlink:href="#DejaVuSans-6f"/>
     </g>
    </g>
    <g id="patch_86">
     <path d="M 442.151563 78.712812 
L 462.151563 78.712812 
L 462.151563 71.712812 
L 442.151563 71.712812 
z
" style="fill:#ff6361;"/>
    </g>
    <g id="text_28">
     <!-- fzf-for-js -->
     <g transform="translate(470.151563 78.712812)scale(0.1 -0.1)">
      <defs>
       <path d="M 313 2009 
L 1997 2009 
L 1997 1497 
L 313 1497 
L 313 2009 
z
" id="DejaVuSans-2d" transform="scale(0.015625)"/>
       <path d="M 603 3500 
L 1178 3500 
L 1178 -63 
Q 1178 -731 923 -1031 
Q 669 -1331 103 -1331 
L -116 -1331 
L -116 -844 
L 38 -844 
Q 366 -844 484 -692 
Q 603 -541 603 -63 
L 603 3500 
z
M 603 4863 
L 1178 4863 
L 1178 4134 
L 603 4134 
L 603 4863 
z
" id="DejaVuSans-6a" transform="scale(0.015625)"/>
      </defs>
      <use xlink:href="#DejaVuSans-66"/>
      <use x="35.205078" xlink:href="#DejaVuSans-7a"/>
      <use x="87.695312" xlink:href="#DejaVuSans-66"/>
      <use x="117.400391" xlink:href="#DejaVuSans-2d"/>
      <use x="153.484375" xlink:href="#DejaVuSans-66"/>
      <use x="188.689453" xlink:href="#DejaVuSans-6f"/>
      <use x="249.871094" xlink:href="#DejaVuSans-72"/>
      <use x="284.609375" xlink:href="#DejaVuSans-2d"/>
      <use x="320.693359" xlink:href="#DejaVuSans-6a"/>
      <use x="348.476562" xlink:href="#DejaVuSans-73"/>
     </g>
    </g>
    <g id="patch_87">
     <path d="M 442.151563 93.390937 
L 462.151563 93.390937 
L 462.151563 86.390937 
L 442.151563 86.390937 
z
" style="fill:#ffa600;"/>
    </g>
    <g id="text_29">
     <!-- GopherJS -->
     <g transform="translate(470.151563 93.390937)scale(0.1 -0.1)">
      <defs>
       <path d="M 628 4666 
L 1259 4666 
L 1259 325 
Q 1259 -519 939 -900 
Q 619 -1281 -91 -1281 
L -331 -1281 
L -331 -750 
L -134 -750 
Q 284 -750 456 -515 
Q 628 -281 628 325 
L 628 4666 
z
" id="DejaVuSans-4a" transform="scale(0.015625)"/>
       <path d="M 3425 4513 
L 3425 3897 
Q 3066 4069 2747 4153 
Q 2428 4238 2131 4238 
Q 1616 4238 1336 4038 
Q 1056 3838 1056 3469 
Q 1056 3159 1242 3001 
Q 1428 2844 1947 2747 
L 2328 2669 
Q 3034 2534 3370 2195 
Q 3706 1856 3706 1288 
Q 3706 609 3251 259 
Q 2797 -91 1919 -91 
Q 1588 -91 1214 -16 
Q 841 59 441 206 
L 441 856 
Q 825 641 1194 531 
Q 1563 422 1919 422 
Q 2459 422 2753 634 
Q 3047 847 3047 1241 
Q 3047 1584 2836 1778 
Q 2625 1972 2144 2069 
L 1759 2144 
Q 1053 2284 737 2584 
Q 422 2884 422 3419 
Q 422 4038 858 4394 
Q 1294 4750 2059 4750 
Q 2388 4750 2728 4690 
Q 3069 4631 3425 4513 
z
" id="DejaVuSans-53" transform="scale(0.015625)"/>
      </defs>
      <use xlink:href="#DejaVuSans-47"/>
      <use x="77.490234" xlink:href="#DejaVuSans-6f"/>
      <use x="138.671875" xlink:href="#DejaVuSans-70"/>
      <use x="202.148438" xlink:href="#DejaVuSans-68"/>
      <use x="265.527344" xlink:href="#DejaVuSans-65"/>
      <use x="327.050781" xlink:href="#DejaVuSans-72"/>
      <use x="368.164062" xlink:href="#DejaVuSans-4a"/>
      <use x="397.65625" xlink:href="#DejaVuSans-53"/>
     </g>
    </g>
   </g>
  </g>
 </g>
 <defs>
  <clipPath id="pd92bb8263f">
   <rect height="369.808592" width="538.23" x="35.77" y="18.08"/>
  </clipPath>
 </defs>
</svg>
