<svg height="200" width="480" xmlns="http://www.w3.org/2000/svg">
  <style>
    path {
        fill: #AAF;
        stroke: black;
        stroke-width: 1;
    }
    g#convex {

    }
    g#concave {
        transform: translate(80px, 0px);
    }

    g#insideout {
        transform: translate(160px, 0px);
    }

    g#insideout path:nth-child(1) {
        stroke: none;
    }

    g#insideout path:nth-child(2) {
        fill: white;
    }

    g#discontinuous {
        transform: translate(240px, 0px);
    }

    g#islands {
        transform: translate(320px, 0px);
    }

    g#islands path:nth-child(2) {
        fill: white;
    }
    g#islands path:nth-child(3) {
        fill: white;
    }

    g#vertextouch {
        transform: translate(400px, 0px);
    }

    g#cross {
        transform: translate(0px, 100px);
    }

    g#edgetouch {
        transform: translate(80px, 100px);
    }

    g#edgeoverlap {
        transform: translate(160px, 100px);
    }

    g#shared1 {
        transform: translate(240px, 100px);
    }
    g#shared2 {
        transform: translate(320px, 100px);
    }
    g#shared3 {
        transform: translate(400px, 100px);
    }


    text {
        text-anchor: middle;
        transform: translate(40px, 90px);
    }
    text.point {
        font: 0.6em arial, helvetica, sans-serif;
        transform: translate(0, 0);
    }
  </style>
  <g id="convex">
      <path d="M40,30 L60,50 L25,55 L30,40 Z" />
      <text x="0" y="0">Convex</text>
  </g>
  <g id="concave">
      <path d="M20,20 L60,50 L25,55 L35,40 Z" />
      <text x="0" y="0">Concave</text>
  </g>
  <g id="insideout">
      <path d="M0,0 L80,0 L80,100 L0,100 Z" />
      <path d="M20,20 L60,50 L25,55 L35,40 Z" />
      <text x="0" y="0">Inside out</text>
  </g>

  <g id="discontinuous">
      <path d="M20,20 L70,52 L25,55 L35,40 Z" />
      <path d="M50,20 L60,10 L70,30 L45,30 Z" />
      <text x="0" y="-14">Dis-</text>
      <text x="0" y="0">continuous</text>
  </g>

  <g id="islands">
      <path d="M10,10 L30,12 L80,5 L70,75 L50,60 L5,70 Z" />
      <path d="M20,20 L70,52 L25,55 L35,40 Z" />
      <path d="M50,20 L60,10 L70,30 L45,30 Z" />
      <path d="M35,47 L40,41 L45,40 L55,50 L46,47 L38,50 Z" />
      <text x="0" y="0">Islands</text>
  </g>

  <g id="shared1">
      <path d="M20,10 L60,10 L30,20 L30,50 L60,60 L20,60 L30,50 L30,20 Z" />
      <text x="0" y="-14">Shared</text>
      <text x="0" y="0">edge</text>
  </g>

  <g id="shared2">
      <path d="M40,30 L50,25 L40,30 L60,50 L25,55 L30,40 Z" />
      <text class="point" x="25" y="40">A</text>
      <text class="point" x="35" y="27">B,D</text>
      <text class="point" x="55" y="25">C</text>
      <text class="point" x="65" y="55">E</text>
      <text class="point" x="20" y="60">F</text>
      <text x="0" y="-14">Shared</text>
      <text x="0" y="0">edge</text>
  </g>

  <g id="shared3">
      <path d="M20,10 L60,10 L60,40 L40,40 L30,20 L30,50 L40,40 L60,40 L60,60 L20,60Z" />
      <text x="0" y="-14">Shared</text>
      <text x="0" y="0">edge</text>
  </g>

  <g id="cross">
      <path d="M20,10 L60,10 L30,50 L55,55 Z" />
      <text class="point" x="15" y="12">A</text>
      <text class="point" x="65" y="12">B</text>
      <text class="point" x="25" y="55">C</text>
      <text class="point" x="60" y="60">D</text>
      <text x="0" y="-14">Self-</text>
      <text x="0" y="0">intersecting</text>
  </g>

  <g id="edgetouch">
      <path d="M20,10 L60,10 L20,35 L60,60 L20,60 Z" />
      <text class="point" x="15" y="12">A</text>
      <text class="point" x="65" y="12">B</text>
      <text class="point" x="30" y="38">C</text>
      <text class="point" x="65" y="65">D</text>
      <text class="point" x="15" y="65">E</text>
      <text x="0" y="0">Edge touch</text>
  </g>

  <g id="edgeoverlap">
      <path d="M20,10 L60,10 L20,20 L20,50 L60,60 L20,60 Z" />
      <text class="point" x="15" y="12">A</text>
      <text class="point" x="65" y="12">B</text>
      <text class="point" x="25" y="28">C</text>
      <text class="point" x="25" y="48">D</text>
      <text class="point" x="65" y="65">E</text>
      <text class="point" x="15" y="65">F</text>
      <text x="0" y="-14">Edge</text>
      <text x="0" y="0">overlap</text>
  </g>

  <g id="vertextouch">
      <path d="M20,10 L60,10 L25,35 L60,60 L20,60 L25,35 Z" />
      <text class="point" x="15" y="12">A</text>
      <text class="point" x="65" y="12">B</text>
      <text class="point" x="15" y="38">C,F</text>
      <text class="point" x="65" y="65">D</text>
      <text class="point" x="15" y="65">E</text>
      <text x="0" y="-14">Vertex</text>
      <text x="0" y="0">touch</text>
  </g>
</svg>
