<?xml version="1.0" standalone="no"?>
<!DOCTYPE svg PUBLIC "-//W3C//DTD SVG 20010904//EN"
 "http://www.w3.org/TR/2001/REC-SVG-20010904/DTD/svg10.dtd">
<svg version="1.0" xmlns="http://www.w3.org/2000/svg"
 width="1258.000000pt" height="1280.000000pt" viewBox="0 0 1258.000000 1280.000000"
 preserveAspectRatio="xMidYMid meet">
<metadata>
Created by potrace 1.15, written by Peter Selinger 2001-2017
</metadata>
<g transform="translate(0.000000,1280.000000) scale(0.100000,-0.100000)"
fill="#000000" stroke="none">
<path d="M3790 12790 c-80 -4 -155 -10 -166 -14 -20 -6 -44 -71 -44 -121 0
-52 162 -125 277 -125 56 0 70 -4 96 -26 46 -39 96 -29 231 42 l111 59 149 -3
c82 -1 166 3 187 8 54 15 97 54 109 101 12 42 24 47 54 24 27 -21 55 -19 95 6
32 19 33 22 16 31 -43 24 -753 35 -1115 18z"/>
<path d="M5072 12792 c-21 -7 -21 -8 18 -46 22 -22 57 -71 77 -109 72 -136
203 -249 290 -251 37 -1 49 -6 62 -26 15 -23 15 -24 -4 -16 -101 41 -57 2 90
-80 188 -104 258 -163 306 -256 25 -46 31 -133 16 -218 l-7 -45 70 71 c80 81
83 93 49 186 -18 49 -20 63 -10 85 12 25 13 26 89 20 42 -4 97 -9 122 -13 l45
-6 -25 25 c-14 14 -77 53 -140 87 -198 107 -295 181 -522 393 -75 71 -151 140
-169 153 -41 30 -84 31 -99 3 -11 -20 -11 -20 19 -4 26 13 31 13 31 1 0 -21
-26 -38 -52 -34 -18 2 -24 10 -26 35 -3 28 -8 34 -40 43 -40 11 -153 12 -190
2z"/>
<path d="M5820 12787 c0 -21 109 -120 186 -169 76 -49 122 -69 202 -88 48 -11
55 -10 74 6 49 45 107 199 84 228 -16 22 -123 36 -280 36 l-138 0 61 -65 c68
-73 97 -113 88 -121 -3 -4 -41 30 -84 73 -76 78 -130 113 -172 113 -12 0 -21
-6 -21 -13z"/>
<path d="M6550 12791 c-58 -4 -111 -10 -118 -14 -31 -20 4 -79 74 -127 50 -35
53 -50 28 -123 -19 -56 -15 -91 10 -95 11 -2 50 6 87 19 l68 23 63 -34 c189
-101 234 -116 382 -126 89 -6 93 -5 167 28 41 20 100 43 130 53 70 23 85 37
105 97 31 95 5 174 -70 212 -34 16 -44 17 -94 6 -159 -34 -195 -39 -292 -40
-77 0 -122 5 -170 20 -36 11 -70 20 -77 20 -8 0 -11 -31 -10 -109 2 -103 -4
-134 -20 -117 -9 8 -9 243 -1 251 3 3 36 -2 74 -11 104 -26 304 -23 417 4 48
12 100 22 116 22 15 0 62 -18 104 -40 41 -22 78 -40 80 -40 2 0 10 20 17 46 9
32 10 48 2 56 -6 6 -62 14 -124 19 -130 9 -791 9 -948 0z"/>
<path d="M8890 12796 c0 -3 46 -31 103 -62 280 -156 375 -224 408 -290 30 -64
76 -106 154 -145 80 -39 161 -50 196 -25 31 21 68 20 131 -5 34 -13 63 -18 83
-15 32 7 135 71 135 85 0 13 -32 37 -85 64 -85 42 -315 124 -415 147 -229 53
-269 64 -342 92 -43 16 -78 34 -78 39 0 19 56 7 166 -36 101 -40 120 -45 166
-39 65 7 136 -17 430 -144 233 -102 291 -123 368 -131 l55 -7 -32 -17 c-40
-21 -80 -22 -129 -1 -51 21 -88 8 -176 -60 l-68 -53 83 -72 c110 -97 156 -124
214 -123 56 2 105 -23 158 -77 21 -23 47 -41 58 -41 27 0 50 64 51 142 0 58
-5 77 -41 150 -38 76 -77 128 -215 289 -26 30 -61 84 -79 120 -35 72 -106 151
-161 180 -20 10 -76 23 -125 29 -84 9 -1013 15 -1013 6z"/>
<path d="M11305 12660 c53 -171 79 -293 71 -331 -5 -27 -3 -29 27 -29 46 1
103 29 175 89 77 64 116 81 186 81 67 0 128 -25 204 -83 77 -59 133 -91 217
-122 99 -37 136 -64 169 -126 44 -81 80 -123 130 -150 55 -29 65 -22 77 48 10
61 11 524 1 539 -15 23 -57 36 -149 45 -116 11 -221 38 -372 96 -186 72 -205
75 -508 80 l-271 5 43 -142z"/>
<path d="M11970 12791 c1 -11 141 -69 230 -94 81 -24 313 -67 359 -67 19 0 21
5 21 63 0 105 11 102 -326 103 -156 1 -284 -1 -284 -5z"/>
<path d="M10641 12781 c-43 -8 -56 -28 -47 -76 10 -53 88 -128 208 -198 53
-31 108 -71 122 -89 l25 -32 50 18 c45 16 52 16 79 2 40 -21 152 -170 152
-202 0 -39 -75 -68 -152 -60 -41 4 -58 2 -58 -6 0 -20 68 -136 111 -191 51
-64 95 -153 110 -226 7 -31 13 -57 14 -58 1 -2 60 23 131 54 197 86 213 85
509 -22 246 -89 353 -153 416 -248 49 -73 85 -107 117 -107 28 0 91 31 115 57
28 32 39 126 35 305 -3 188 -9 202 -84 245 -53 30 -117 94 -165 165 -43 62
-109 118 -142 118 -28 0 -109 43 -198 106 -106 75 -160 97 -234 98 -73 0 -103
-14 -191 -94 -37 -33 -77 -63 -90 -66 -45 -12 -93 7 -198 76 -173 114 -213
128 -306 107 -32 -7 -31 -6 14 19 74 40 109 32 239 -55 60 -39 114 -71 119
-71 14 0 7 32 -54 246 l-51 181 -66 7 c-82 7 -484 6 -530 -3z"/>
<path d="M6366 12608 c-49 -73 -59 -125 -35 -177 10 -23 24 -41 31 -41 21 0
125 117 138 154 18 56 -22 116 -79 116 -14 0 -32 -17 -55 -52z"/>
<path d="M2662 12630 c-41 -25 -80 -68 -88 -97 -16 -58 20 -84 192 -144 65
-22 122 -44 127 -48 8 -8 -7 -58 -64 -216 -26 -72 -33 -112 -39 -200 -5 -98
-10 -119 -43 -192 -46 -100 -44 -104 55 -167 105 -65 147 -74 245 -53 43 10
138 26 211 37 169 25 224 52 337 165 81 81 102 116 124 210 24 99 121 265 156
265 8 0 53 29 100 65 108 83 141 103 188 116 27 7 37 15 37 30 0 30 -50 46
-176 59 -143 14 -198 25 -326 66 -136 43 -237 61 -435 74 -87 6 -236 20 -332
31 -215 24 -228 24 -269 -1z"/>
<path d="M4981 12464 c-27 -34 -27 -64 0 -98 32 -41 71 -33 82 17 5 21 6 53 3
72 -6 30 -11 35 -36 35 -19 0 -35 -9 -49 -26z"/>
<path d="M6433 12413 c-41 -62 -8 -299 55 -403 32 -51 108 -103 187 -125 28
-7 73 -20 100 -27 84 -23 68 -76 -28 -92 -21 -4 -41 -14 -44 -23 -9 -24 33
-96 98 -166 70 -75 77 -73 132 32 51 102 50 123 -23 272 -57 118 -69 161 -52
185 17 24 59 44 95 44 41 0 104 28 128 56 26 32 91 54 159 54 71 0 96 10 87
33 -20 54 -380 45 -526 -13 -67 -26 -149 -78 -208 -133 -36 -33 -42 -36 -28
-14 14 21 17 40 12 85 -9 98 -82 262 -117 262 -5 0 -18 -12 -27 -27z"/>
<path d="M6643 12433 c-34 -6 -63 -50 -63 -95 0 -33 17 -126 25 -136 3 -4 268
99 278 108 9 8 -78 78 -128 102 -35 18 -81 26 -112 21z"/>
<path d="M2616 12368 c-20 -31 -51 -146 -78 -287 -27 -147 -33 -436 -8 -451
46 -29 111 -1 158 69 47 70 64 125 67 231 4 107 16 154 79 298 l44 101 -55 11
c-31 7 -80 21 -111 31 -70 24 -78 24 -96 -3z"/>
<path d="M7401 12334 c-21 -27 -25 -38 -34 -98 -10 -65 11 -69 172 -31 132 32
141 37 118 63 -28 30 -141 84 -190 89 -39 5 -46 2 -66 -23z"/>
<path d="M8227 12346 c-26 -8 -59 -21 -72 -30 -45 -29 -123 -55 -217 -71 -116
-20 -157 -38 -235 -104 -79 -67 -117 -82 -181 -74 -64 7 -113 -2 -140 -27 -27
-25 -21 -39 32 -79 52 -39 81 -89 89 -152 21 -164 114 -265 279 -304 92 -22
126 -19 171 12 33 23 50 28 96 27 58 -1 87 -11 180 -64 82 -46 147 -43 265 12
74 35 104 43 163 46 65 4 74 2 95 -20 13 -13 28 -33 35 -44 11 -18 14 -17 52
22 52 53 92 63 286 74 161 9 234 19 390 51 80 17 128 20 235 17 130 -3 135 -2
134 17 -2 26 -41 180 -70 278 -13 43 -21 83 -18 88 30 49 -156 214 -303 269
-76 28 -89 26 -136 -26 -23 -26 -57 -53 -75 -61 -53 -22 -163 -32 -254 -22
-103 12 -149 26 -281 83 -57 25 -137 54 -178 66 -96 27 -274 35 -342 16z"/>
<path d="M9752 12248 c-31 -31 1 -92 107 -202 43 -46 48 -53 20 -32 -45 33
-49 33 -49 -4 0 -38 23 -84 52 -104 41 -29 236 -12 271 23 15 15 -23 68 -115
157 -154 150 -246 202 -286 162z"/>
<path d="M4944 12186 c-39 -39 -45 -84 -19 -155 34 -98 89 -131 119 -73 37 72
27 216 -17 247 -31 22 -45 19 -83 -19z"/>
<path d="M4129 12035 c-27 -14 -53 -60 -44 -76 11 -16 62 -10 89 12 29 23 35
63 10 73 -21 8 -25 7 -55 -9z"/>
<path d="M10207 11929 c-82 -43 -125 -56 -218 -69 -44 -6 -87 -14 -96 -17 -52
-20 69 -260 207 -408 33 -35 61 -72 62 -82 1 -10 2 -63 2 -118 1 -93 4 -106
34 -167 25 -51 51 -83 109 -135 143 -127 187 -177 243 -276 75 -134 102 -158
185 -168 134 -16 196 -65 285 -224 77 -135 134 -187 303 -268 207 -102 219
-103 399 -51 l123 35 55 -63 c95 -111 150 -159 213 -188 115 -53 386 -85 422
-49 24 23 35 117 36 304 0 186 -6 221 -59 298 -67 97 -73 128 -58 268 l8 76
-40 40 c-45 45 -89 127 -139 258 -50 134 -52 183 -14 294 17 50 31 108 31 129
-1 93 -66 163 -221 236 -115 54 -353 140 -436 157 -56 11 -67 11 -129 -10
-122 -39 -246 -106 -302 -161 -69 -69 -166 -114 -223 -105 -59 10 -344 156
-415 213 -39 32 -81 81 -126 147 -95 142 -136 160 -241 104z"/>
<path d="M5586 11739 c-93 -15 -83 -31 71 -108 124 -62 148 -64 169 -15 29 70
29 90 -3 102 -23 10 -166 33 -183 31 -3 -1 -27 -5 -54 -10z"/>
<path d="M9593 11595 c-3 -9 -3 -19 1 -22 3 -4 -1 -17 -10 -30 -25 -40 -42
-96 -64 -220 -27 -152 -42 -174 -155 -237 -103 -58 -145 -91 -145 -116 0 -10
20 -45 44 -77 44 -61 108 -103 154 -103 37 0 253 -117 347 -188 50 -37 123
-94 164 -125 103 -77 203 -127 273 -134 73 -7 107 7 154 64 20 24 48 49 62 54
23 9 125 0 200 -18 31 -7 28 9 -15 59 -20 23 -56 85 -81 137 -51 107 -87 151
-187 226 -145 110 -219 252 -208 398 5 59 3 71 -21 112 -37 63 -142 172 -187
195 -75 39 -313 56 -326 25z"/>
<path d="M4995 11590 c-49 -12 -99 -36 -114 -54 -12 -14 -12 -24 -3 -49 35
-98 26 -147 -54 -316 -30 -63 -54 -118 -54 -123 0 -5 29 -46 63 -91 89 -114
138 -190 182 -277 44 -88 61 -110 87 -110 19 0 38 35 38 73 0 51 49 127 139
213 l90 88 -75 79 c-101 105 -109 125 -84 208 25 81 25 115 0 164 -16 32 -19
51 -14 92 6 47 4 54 -20 76 -38 35 -108 46 -181 27z"/>
<path d="M9430 11564 c-41 -8 -166 -20 -278 -28 -168 -12 -210 -18 -247 -36
-131 -64 -201 -255 -100 -274 83 -16 87 -100 12 -261 -57 -123 -93 -286 -84
-382 7 -66 59 -196 91 -222 14 -12 22 -11 59 5 82 37 143 108 192 224 41 97
91 167 141 196 24 14 44 33 44 41 0 8 -14 34 -30 59 -40 58 -57 57 -182 -7
-112 -58 -168 -70 -216 -45 -18 9 -32 18 -32 19 0 2 26 3 58 2 75 0 122 22
366 175 106 66 198 120 204 120 18 0 30 39 58 180 21 104 40 160 82 243 5 10
-52 7 -138 -9z m-620 -917 c-6 -29 -17 -65 -25 -82 l-13 -30 -1 36 c-1 43 16
141 32 189 l12 35 3 -48 c2 -27 -2 -72 -8 -100z"/>
<path d="M4125 11516 c-181 -25 -300 -67 -519 -186 l-138 -75 6 -40 c35 -259
38 -294 26 -348 -16 -81 -39 -96 -121 -83 -90 15 -199 -42 -199 -105 0 -37
-54 -90 -169 -167 -97 -64 -161 -94 -241 -112 -66 -15 -166 -59 -234 -102 -77
-50 -105 -133 -71 -216 34 -81 119 -151 785 -649 531 -397 781 -589 862 -662
l51 -46 122 0 122 0 84 43 c86 43 323 212 636 454 234 181 257 202 250 221 -3
9 -51 46 -106 82 -193 127 -258 262 -200 415 18 47 20 69 16 145 -4 50 -11
122 -17 160 -7 39 -13 121 -16 183 -3 88 -9 124 -26 165 -39 91 -106 203 -195
324 -47 64 -87 123 -90 129 -2 7 10 41 28 75 47 93 95 209 102 247 7 37 -6 79
-31 98 -30 24 -84 35 -237 49 -176 17 -354 17 -480 1z"/>
<path d="M2933 11355 c-12 -8 -46 -50 -76 -93 -61 -87 -144 -167 -257 -247
-93 -66 -165 -141 -213 -223 -41 -71 -77 -185 -77 -247 0 -105 -134 -245 -379
-396 l-104 -64 49 -3 c85 -6 498 4 515 12 20 9 39 49 39 83 0 91 159 209 343
254 156 39 377 188 377 255 0 59 106 123 217 131 107 9 103 3 103 153 0 153
-13 225 -43 241 -11 7 -72 22 -134 35 -142 29 -199 47 -254 83 -59 39 -81 44
-106 26z"/>
<path d="M8454 11340 c-22 -23 -44 -33 -87 -40 -70 -11 -77 -15 -77 -44 0 -40
24 -52 77 -38 86 24 165 95 150 136 -9 24 -29 19 -63 -14z"/>
<path d="M12495 11329 c-32 -12 -64 -17 -87 -14 -45 6 -69 -13 -101 -83 -17
-37 -21 -66 -21 -137 0 -81 4 -100 41 -192 49 -125 99 -210 134 -229 35 -18
41 -46 28 -144 -12 -96 0 -170 34 -222 29 -42 41 -42 45 -1 3 26 -3 39 -28 62
-29 26 -30 29 -12 33 37 10 44 66 49 425 6 349 0 480 -20 506 -10 13 -18 12
-62 -4z"/>
<path d="M7055 11295 c87 -41 177 -65 249 -65 85 0 129 28 92 59 -28 23 -151
41 -281 40 l-130 -1 70 -33z"/>
<path d="M8770 11175 c-18 -22 -40 -103 -40 -149 0 -88 36 -86 83 4 16 30 27
68 27 90 0 57 -41 90 -70 55z"/>
<path d="M8700 10920 c-6 -11 -20 -61 -31 -111 -22 -100 -36 -134 -69 -164
-27 -25 -22 -61 26 -165 48 -104 92 -146 108 -104 11 29 6 68 -15 114 -31 69
-34 123 -10 239 22 110 27 196 12 206 -6 3 -15 -4 -21 -15z"/>
<path d="M5385 10917 c-16 -8 -62 -48 -102 -90 -73 -77 -113 -139 -113 -176 0
-11 -18 -54 -40 -96 -38 -72 -40 -81 -40 -164 0 -48 5 -114 11 -147 19 -99 17
-250 -5 -318 -48 -149 15 -268 206 -392 53 -35 109 -76 124 -93 31 -35 73 -53
203 -86 110 -28 215 -32 279 -10 82 29 201 -5 437 -125 94 -47 262 -140 375
-206 246 -145 375 -214 401 -214 11 0 21 9 25 25 4 16 17 28 39 35 19 6 36 19
39 28 20 66 26 278 26 1012 l0 815 -133 64 c-238 115 -371 145 -454 104 -61
-30 -77 -61 -78 -156 -2 -96 -14 -125 -79 -185 -64 -59 -77 -60 -182 -14 -49
22 -138 52 -198 67 -60 16 -122 38 -139 49 -17 12 -58 54 -91 95 -73 89 -124
117 -278 155 -138 35 -195 40 -233 23z"/>
<path d="M9220 10749 c-45 -26 -77 -72 -117 -172 -37 -90 -76 -146 -142 -200
-65 -53 -113 -66 -156 -43 -38 21 -65 16 -65 -12 0 -34 39 -175 67 -242 54
-130 143 -261 382 -565 111 -141 157 -225 219 -400 64 -181 97 -234 246 -401
43 -49 87 -107 97 -129 33 -74 132 -199 176 -223 22 -12 32 -9 105 27 101 51
119 51 321 6 221 -50 228 -49 313 26 151 133 337 213 594 254 286 46 520 220
520 387 0 92 -79 158 -221 184 -132 25 -182 41 -245 82 -91 59 -129 97 -194
191 -41 60 -72 94 -102 111 -80 47 -120 97 -152 190 -42 125 -93 216 -159 287
-117 125 -226 176 -407 192 -167 15 -311 77 -429 186 -82 75 -128 107 -256
178 -190 104 -316 132 -395 86z"/>
<path d="M7305 10674 c-10 -25 -24 -647 -24 -1110 l-1 -372 133 -6 c72 -4 370
-11 660 -16 486 -8 531 -8 555 7 15 9 73 53 130 96 85 66 101 84 97 101 -13
49 -185 379 -319 614 -80 140 -154 281 -165 314 -45 133 19 97 176 -99 l78
-97 12 50 c16 70 15 127 -3 198 -20 81 -82 202 -116 231 -25 21 -35 23 -91 18
-44 -3 -87 1 -148 16 -104 25 -164 26 -267 5 -81 -17 -230 -15 -342 5 -53 9
-101 18 -227 42 -125 22 -129 23 -138 3z"/>
<path d="M10413 10426 c-17 -8 -36 -24 -43 -35 -9 -18 -7 -25 15 -47 32 -32
126 -74 166 -74 23 0 32 6 40 26 31 83 -88 170 -178 130z"/>
<path d="M1722 9943 c-99 -154 -141 -223 -214 -353 -36 -63 -106 -178 -157
-254 -94 -144 -123 -208 -103 -228 20 -20 96 -27 293 -28 l196 0 7 85 c3 46
11 94 17 107 5 13 38 41 72 63 46 30 65 49 74 75 7 22 12 106 12 228 l1 192
250 0 250 0 0 110 0 110 -314 0 -314 0 -70 -107z"/>
<path d="M2463 9908 c-6 -39 -18 -78 -27 -87 -14 -14 -50 -16 -251 -19 l-235
-3 0 -190 c0 -222 -3 -231 -85 -283 -76 -49 -87 -70 -93 -180 l-5 -93 -256 -6
c-141 -3 -268 -9 -283 -13 -23 -5 -25 -9 -18 -33 4 -14 19 -49 32 -76 79 -155
109 -397 68 -537 -12 -37 -19 -72 -16 -76 3 -5 43 -6 89 -4 78 4 89 2 149 -27
79 -37 148 -102 217 -205 57 -84 79 -100 95 -72 36 60 54 81 81 90 17 5 204
12 425 15 l395 6 5 740 c4 577 8 745 18 763 7 12 28 29 47 37 19 7 35 18 35
22 0 16 -75 81 -215 185 -77 57 -145 107 -150 110 -7 4 -15 -20 -22 -64z"/>
<path d="M11690 9685 c-147 -147 -223 -194 -324 -202 -59 -5 -79 0 -173 38
-41 17 -49 9 -29 -29 44 -85 202 -171 380 -207 124 -25 146 -23 146 14 0 9 21
50 47 91 72 117 93 163 99 228 7 63 -3 192 -14 192 -4 0 -63 -56 -132 -125z"/>
<path d="M11086 9735 c-25 -38 -23 -81 5 -111 41 -44 100 -18 86 38 -8 29 -48
90 -63 95 -6 2 -19 -8 -28 -22z"/>
<path d="M2777 9613 c-4 -3 -7 -349 -7 -769 l0 -762 -397 -4 c-440 -4 -456 -6
-487 -67 -26 -50 -19 -91 34 -200 41 -84 50 -112 50 -156 0 -47 3 -57 26 -71
29 -20 151 -22 197 -5 32 12 80 14 91 4 9 -9 -115 -43 -182 -50 -45 -5 -62 -1
-115 25 -84 41 -199 59 -272 43 -42 -10 -68 -25 -127 -75 -40 -35 -88 -79
-107 -99 l-33 -35 112 -146 c62 -81 118 -149 123 -153 6 -4 30 15 54 42 58 63
123 115 147 115 25 0 109 -63 150 -113 19 -23 45 -67 59 -98 16 -37 40 -68 72
-94 26 -22 57 -59 69 -85 16 -35 27 -46 48 -48 36 -4 101 31 128 68 52 73 7
447 -76 629 -27 61 -27 61 -15 61 20 0 55 -65 77 -144 33 -114 37 -116 194
-116 71 0 136 3 145 6 9 4 69 86 133 183 180 273 250 332 447 382 71 18 151
54 194 88 66 52 145 79 331 112 234 41 265 48 320 71 19 8 41 22 48 31 23 27
44 202 40 333 -5 144 -17 174 -73 174 -35 0 -52 12 -87 63 -54 78 -533 440
-917 692 -216 143 -279 175 -340 175 -26 0 -51 -3 -54 -7z"/>
<path d="M11841 9494 c-31 -26 -131 -211 -131 -242 0 -10 15 -29 33 -44 79
-63 88 -145 30 -270 -60 -126 -90 -148 -385 -281 -67 -30 -67 -17 3 -163 61
-126 84 -149 146 -146 176 7 342 132 512 385 50 75 127 181 170 235 115 145
141 183 141 207 0 63 -386 345 -471 345 -10 0 -31 -12 -48 -26z"/>
<path d="M5065 9144 c-470 -351 -631 -454 -708 -454 -68 0 -73 -15 -82 -253
-7 -188 -26 -265 -78 -315 -32 -31 -38 -33 -153 -43 -177 -16 -303 -36 -330
-54 -21 -14 -24 -23 -24 -85 0 -82 9 -110 49 -147 30 -29 361 -233 377 -233 6
0 18 15 29 33 115 198 200 276 301 277 47 0 87 -13 194 -63 215 -100 389 -121
517 -63 65 30 130 33 194 10 51 -18 122 -13 171 12 36 18 88 71 88 89 0 26
102 209 187 338 51 76 101 162 112 192 32 85 47 293 32 435 -21 191 -66 346
-124 422 -30 39 -38 42 -142 69 -60 15 -141 39 -180 53 -38 14 -77 26 -85 26
-9 0 -164 -111 -345 -246z"/>
<path d="M5892 9310 c-34 -32 -29 -92 17 -202 62 -145 64 -161 63 -388 -2
-297 -11 -327 -151 -535 -141 -208 -155 -237 -155 -314 0 -73 11 -98 96 -234
l49 -78 -64 -112 c-126 -220 -165 -309 -187 -437 -21 -124 -93 -230 -192 -282
-34 -18 -60 -23 -128 -23 -99 -1 -127 -13 -186 -77 -56 -62 -81 -106 -100
-178 -24 -95 -16 -124 59 -223 62 -81 87 -134 87 -183 0 -12 8 -32 18 -44 24
-29 88 -36 474 -51 294 -11 321 -11 363 5 54 21 103 76 111 126 10 68 14 78
31 85 10 4 82 10 161 14 105 6 146 11 152 21 5 8 6 36 3 62 -5 39 -2 53 13 70
34 38 106 78 141 78 19 0 81 -22 143 -50 170 -77 179 -79 302 -46 232 64 277
74 358 85 196 27 261 46 284 83 15 24 1 45 -118 169 -54 57 -112 128 -128 156
-23 40 -45 62 -91 90 -99 62 -124 94 -158 208 -49 162 -92 245 -127 245 -32 0
-147 -66 -277 -159 -71 -51 -168 -115 -215 -143 -47 -28 -113 -73 -147 -100
-79 -62 -181 -109 -310 -141 -127 -32 -166 -50 -202 -96 -47 -60 -91 -146 -91
-179 0 -63 119 -300 199 -397 49 -59 56 -93 10 -49 -42 40 -120 164 -179 285
-39 80 -50 113 -50 151 0 59 41 154 93 216 21 24 37 54 37 65 0 32 -52 136
-116 234 -30 47 -53 91 -50 99 3 7 18 21 33 30 76 47 94 61 109 90 23 43 15
102 -29 204 -20 46 -34 86 -32 88 2 3 25 -37 49 -87 79 -163 73 -221 -30 -282
-33 -19 -60 -43 -62 -52 -2 -10 19 -52 46 -95 27 -42 60 -99 72 -125 13 -28
34 -54 51 -62 62 -32 225 -5 339 56 30 16 89 57 130 90 41 33 102 74 134 90
60 31 173 108 374 256 l112 83 -44 88 c-25 48 -52 107 -61 131 -55 156 45 449
175 514 35 18 41 62 43 345 l2 243 -225 131 c-438 254 -599 340 -748 399 -155
62 -242 74 -280 39z"/>
<path d="M8754 9239 l-109 -90 -682 3 -681 3 -4 -146 c-3 -152 -10 -179 -49
-179 -10 0 -23 -9 -29 -20 -13 -24 -29 -277 -31 -485 0 -77 -4 -151 -8 -165
-4 -17 -22 -32 -53 -47 -77 -37 -137 -144 -163 -291 -16 -93 -4 -158 55 -291
24 -52 43 -106 44 -120 1 -15 17 -41 37 -61 36 -36 68 -108 108 -245 26 -87
52 -131 93 -153 54 -29 98 -73 173 -172 40 -52 111 -131 159 -176 76 -70 86
-84 86 -115 0 -69 87 -199 134 -199 7 0 41 12 76 26 82 33 112 28 193 -29 34
-24 76 -52 94 -61 86 -44 499 21 533 84 11 21 70 50 102 50 50 0 98 20 104 44
8 32 -13 68 -86 151 -34 39 -73 94 -87 123 -27 56 -55 82 -148 132 -80 43
-109 72 -101 98 4 12 40 42 80 67 105 65 108 70 111 167 4 118 48 220 195 455
44 71 87 153 96 183 17 59 19 64 47 103 18 26 18 28 -3 89 -52 151 20 325 194
467 l76 63 -56 61 c-119 132 -158 210 -175 352 -15 123 -49 203 -140 327 -35
48 -67 88 -70 88 -4 0 -56 -41 -115 -91z"/>
<path d="M11135 8621 c-197 -52 -351 -132 -477 -248 -70 -65 -81 -65 -264 -23
-71 17 -165 33 -209 36 -74 5 -84 4 -135 -23 -78 -40 -85 -59 -70 -186 24
-209 101 -436 167 -496 24 -21 33 -23 87 -16 85 9 235 61 406 140 80 37 199
89 265 116 202 84 297 145 452 294 l98 93 -44 83 c-66 126 -118 214 -134 227
-25 21 -70 22 -142 3z"/>
<path d="M9239 8412 c-76 -49 -132 -128 -168 -241 -24 -74 -27 -155 -6 -191
l13 -25 204 -1 c188 0 207 -2 263 -23 79 -31 101 -47 225 -165 116 -110 188
-162 204 -146 29 29 -104 180 -322 367 -186 160 -214 198 -257 354 -28 102
-74 123 -156 71z"/>
<path d="M0 8382 c0 -21 29 -52 48 -52 18 0 15 57 -4 64 -28 11 -44 6 -44 -12z"/>
<path d="M1343 8271 c-77 -36 -193 -177 -193 -235 0 -34 54 -147 82 -173 16
-14 38 -18 131 -18 96 0 119 -3 165 -24 57 -26 71 -56 30 -66 -48 -10 -195
-25 -256 -25 -70 0 -132 -21 -132 -45 0 -21 27 -62 47 -69 8 -3 67 8 132 25
100 26 128 30 206 26 50 -3 122 -11 160 -18 39 -7 100 -14 137 -14 56 0 71 4
89 22 l22 21 -35 64 c-152 275 -308 472 -415 523 -56 27 -120 29 -170 6z"/>
<path d="M351 8091 c-13 -24 8 -55 34 -50 23 5 40 32 32 53 -9 22 -54 20 -66
-3z"/>
<path d="M3585 7993 c-16 -9 -47 -31 -67 -49 -54 -48 -106 -72 -220 -100 -186
-46 -228 -81 -396 -335 l-102 -153 48 -49 c61 -63 114 -93 182 -105 77 -13
137 -5 155 21 8 12 16 46 16 77 1 45 4 34 17 -60 14 -106 13 -125 -4 -255 -26
-200 -29 -322 -10 -405 17 -75 53 -177 64 -184 25 -15 464 145 493 180 13 16
6 44 -46 184 -21 56 -45 206 -45 282 0 75 -25 192 -53 248 -31 63 -56 72 -221
79 -133 5 -137 6 -66 12 41 4 121 7 177 8 111 1 262 28 334 59 52 22 117 84
125 118 10 41 -5 59 -84 104 -118 66 -175 114 -207 172 -26 48 -27 55 -16 96
18 69 -10 89 -74 55z"/>
<path d="M9190 7916 c-97 -27 -128 -54 -159 -136 -11 -30 -66 -129 -120 -219
-131 -215 -174 -318 -177 -428 -1 -46 -5 -87 -9 -93 -4 -6 -47 -38 -96 -71
-59 -40 -89 -66 -87 -76 2 -9 44 -39 95 -67 105 -58 148 -96 156 -135 8 -41
86 -138 183 -230 100 -94 181 -154 302 -222 99 -56 149 -62 224 -30 150 64
176 67 342 45 46 -6 57 -3 140 40 50 26 136 59 192 75 163 46 174 55 343 250
135 157 166 197 176 228 8 28 -2 32 -180 78 -165 42 -212 58 -305 106 -123 62
-180 114 -229 209 -26 49 -68 108 -107 149 -35 38 -64 78 -64 89 0 11 16 39
35 62 19 23 35 50 35 60 0 45 -173 217 -271 270 -103 55 -306 77 -419 46z"/>
<path d="M4395 7833 c-68 -19 -160 -124 -216 -248 -35 -77 -35 -82 -7 -140 25
-51 23 -61 -33 -245 -50 -164 -70 -276 -70 -393 0 -118 7 -137 50 -137 75 0
227 -67 297 -132 36 -33 48 -54 65 -110 19 -62 26 -72 55 -84 61 -26 310 -10
345 22 10 9 28 46 40 83 28 86 61 142 119 201 69 71 112 90 188 83 151 -14
287 114 305 288 7 78 56 195 159 381 l89 160 -47 74 c-92 148 -104 154 -204
104 -72 -36 -118 -38 -205 -8 l-63 22 -88 -34 c-82 -32 -97 -35 -189 -33 -113
1 -216 30 -374 104 -84 39 -168 56 -216 42z"/>
<path d="M1300 7804 c-98 -26 -82 -34 72 -34 154 0 186 9 124 35 -44 19 -124
18 -196 -1z"/>
<path d="M1450 7639 c-75 -20 -117 -34 -175 -60 l-60 -27 86 -41 c156 -73 237
-53 303 77 27 52 17 62 -56 61 -35 0 -79 -5 -98 -10z"/>
<path d="M9923 7572 c-79 -25 -96 -98 -38 -157 40 -39 63 -43 102 -18 45 30
68 118 40 156 -14 19 -70 30 -104 19z"/>
<path d="M3942 7497 c-42 -40 -94 -83 -114 -96 -21 -12 -38 -30 -38 -39 0 -9
16 -63 36 -120 39 -113 64 -249 64 -352 0 -73 21 -191 40 -232 9 -19 21 -28
36 -28 36 0 55 49 65 164 13 153 30 246 67 366 66 212 68 228 44 283 -30 66
-79 127 -103 127 -12 0 -53 -31 -97 -73z"/>
<path d="M11125 7479 c-107 -59 -415 -142 -720 -195 -70 -12 -100 -13 -134 -4
-88 22 -173 79 -192 128 -7 19 -12 21 -28 12 -33 -17 -61 -61 -61 -95 0 -47
54 -147 104 -193 77 -71 199 -122 421 -177 206 -51 234 -78 174 -165 -48 -68
-243 -296 -301 -351 -52 -50 -114 -79 -213 -99 -249 -53 -445 -302 -445 -565
0 -83 11 -146 50 -279 11 -38 18 -71 16 -73 -8 -8 -56 111 -71 172 -8 37 -15
112 -15 168 0 130 24 220 92 345 47 88 49 95 34 110 -13 14 -35 17 -104 16
-71 -1 -103 -7 -177 -34 -154 -57 -198 -46 -451 110 -115 70 -135 73 -243 30
-73 -28 -131 -72 -131 -96 0 -7 9 -28 19 -46 36 -60 83 -219 84 -283 0 -52 -5
-69 -39 -130 -38 -66 -94 -196 -127 -292 l-14 -42 222 -111 c123 -61 263 -136
312 -166 84 -52 91 -60 116 -117 32 -71 128 -237 138 -237 4 0 15 21 25 46 35
92 116 202 329 444 55 63 142 166 193 228 117 143 223 243 422 402 147 118
228 201 295 304 113 174 449 827 485 945 11 35 20 84 20 110 0 44 -24 199 -31
205 -2 1 -26 -10 -54 -25z"/>
<path d="M3665 7371 c-5 -18 1 -92 25 -309 21 -188 63 -344 115 -421 50 -75
59 -64 63 69 7 246 -57 548 -135 640 -38 44 -58 50 -68 21z"/>
<path d="M2454 7218 c22 -212 17 -288 -24 -368 -25 -48 -34 -119 -22 -164 6
-21 31 -67 56 -104 45 -67 51 -91 46 -167 -2 -38 -3 -37 -11 17 -9 64 -36 123
-68 152 -12 11 -31 35 -43 53 -17 29 -19 43 -14 95 l7 60 -61 -7 c-71 -8 -81
-3 -115 66 -30 59 -79 101 -113 97 -19 -2 -28 -12 -38 -41 -14 -39 -94 -161
-101 -153 -2 2 12 37 33 77 20 41 47 102 60 137 23 60 23 64 8 95 -41 79 -126
157 -171 157 -32 0 -113 -77 -147 -140 -40 -73 -38 -107 9 -177 55 -83 281
-304 410 -401 124 -93 199 -133 298 -159 l67 -17 218 53 c119 29 236 57 259
62 56 12 135 11 169 -1 43 -17 48 0 23 81 -27 92 -35 228 -19 334 7 44 14 123
17 175 4 85 2 98 -15 120 -19 23 -26 25 -104 23 -73 -3 -88 0 -123 22 -112 69
-176 83 -394 84 l-104 1 7 -62z"/>
<path d="M7583 6405 c-17 -7 -76 -19 -130 -25 -139 -17 -226 -35 -383 -80
-169 -48 -188 -48 -310 7 -112 52 -149 63 -211 63 -85 0 -100 -21 -110 -153
-6 -78 -17 -129 -44 -208 -53 -151 -64 -205 -62 -300 2 -94 2 -94 -156 -368
-37 -62 -76 -143 -88 -180 -45 -139 -144 -268 -251 -326 -49 -27 -61 -29 -168
-29 -89 -1 -123 -5 -149 -19 -49 -25 -48 -15 1 19 40 27 50 29 145 30 93 0
106 3 166 32 109 54 180 151 236 321 11 34 56 122 101 196 124 206 134 231
136 350 1 111 12 154 73 297 22 53 41 102 41 107 0 15 -226 13 -270 -2 -28 -9
-38 -20 -48 -51 -17 -52 -75 -130 -116 -155 -39 -25 -149 -28 -285 -10 -54 7
-86 8 -93 1 -6 -6 19 -41 71 -101 84 -94 94 -120 66 -157 -24 -32 -18 -87 20
-165 43 -90 44 -121 4 -184 -51 -81 -62 -87 -151 -80 -89 7 -145 -5 -188 -41
-24 -21 -30 -34 -30 -66 0 -42 -11 -69 -41 -102 -26 -28 -24 -47 15 -124 34
-68 54 -121 101 -272 15 -47 52 -137 83 -200 l57 -115 1 -110 c0 -132 4 -152
56 -322 l41 -132 -76 -148 c-131 -258 -247 -582 -247 -694 0 -77 -1 -76 330
-88 414 -16 717 -41 820 -68 176 -47 172 -47 449 -2 166 27 269 27 350 0 47
-15 89 -21 155 -21 132 0 156 14 339 195 l152 151 193 109 c106 61 216 128
245 151 108 85 138 203 117 468 -6 83 -16 166 -22 185 -22 71 -163 193 -291
251 l-66 30 -88 -32 c-178 -63 -183 -72 -186 -315 -2 -208 1 -218 83 -275 85
-59 141 -108 134 -119 -3 -6 -28 -28 -56 -49 -55 -44 -97 -51 -138 -23 -14 9
-63 53 -110 98 -100 97 -114 105 -183 109 -29 2 -70 12 -92 24 -109 55 -248
79 -290 49 -13 -11 -20 -33 -24 -88 -11 -124 -58 -179 -154 -179 -54 0 -114
-22 -133 -48 -24 -33 -36 -127 -32 -248 5 -140 16 -174 88 -285 29 -44 51 -82
48 -84 -8 -8 -97 108 -123 160 -36 73 -48 154 -42 281 10 190 44 238 179 250
108 9 121 22 138 135 23 160 10 179 -120 179 -51 0 -83 5 -97 15 -46 32 -89
196 -98 371 -8 144 -19 189 -48 209 -37 24 -118 45 -175 45 -57 0 -58 -1 -114
-84 -58 -87 -166 -121 -248 -78 -50 27 -107 116 -145 224 l-32 93 -224 10
-224 10 223 9 c123 4 224 6 225 4 1 -1 31 -63 67 -137 79 -162 107 -191 182
-191 28 0 68 5 90 12 33 10 43 20 70 71 39 72 75 92 153 84 75 -8 162 -36 193
-62 25 -22 27 -27 34 -166 9 -195 36 -338 75 -397 14 -23 18 -24 106 -17 86 6
94 5 121 -16 19 -15 55 -26 115 -36 47 -7 132 -31 188 -53 66 -26 115 -39 141
-38 50 2 76 -15 166 -104 104 -103 124 -118 159 -118 36 0 107 43 107 65 0 8
-32 35 -70 61 -120 79 -150 132 -150 264 0 96 19 248 35 280 34 67 118 125
197 135 85 12 88 14 88 43 0 15 -26 81 -59 148 -68 141 -95 219 -111 329 -7
44 -23 109 -36 144 -29 77 -30 105 -4 138 24 30 26 62 5 89 -21 28 -19 108 5
154 23 45 54 70 90 70 53 0 56 11 26 103 -35 106 -31 129 44 273 78 151 100
213 100 285 0 97 -49 165 -168 235 -50 30 -74 29 -166 -5 -73 -27 -92 -21
-156 54 -46 54 -88 85 -112 85 -7 -1 -27 -7 -45 -15z"/>
<path d="M8437 6194 c-65 -7 -131 -20 -145 -27 -26 -12 -27 -16 -24 -80 4 -85
-3 -109 -95 -292 -91 -184 -96 -208 -54 -300 53 -117 79 -132 162 -96 41 18
98 32 246 61 79 16 118 40 126 77 3 16 36 92 73 168 66 137 68 142 68 220 1
62 -6 98 -27 161 -15 45 -33 89 -40 98 -18 24 -139 29 -290 10z"/>
<path d="M4907 6152 c-22 -25 -21 -42 2 -42 35 0 51 12 51 36 0 29 -29 33 -53
6z"/>
<path d="M5125 5916 c-14 -10 -20 -26 -20 -56 0 -58 20 -70 111 -70 64 0 75 3
88 22 9 12 16 34 16 48 0 14 -7 36 -16 48 -13 19 -24 22 -88 22 -46 0 -79 -5
-91 -14z"/>
<path d="M5366 5908 c-9 -13 -16 -43 -16 -69 0 -67 -15 -76 -135 -85 -55 -3
-108 -11 -117 -16 -26 -13 -42 -51 -67 -161 -46 -195 -19 -276 144 -444 86
-89 105 -103 132 -103 42 0 63 30 63 93 0 59 24 87 108 124 50 22 66 25 132
19 89 -7 117 4 142 54 23 45 18 83 -27 199 -34 88 -35 94 -20 123 23 47 18 80
-17 129 -71 100 -165 159 -250 159 -47 0 -59 -4 -72 -22z"/>
<path d="M4690 5720 c-24 -24 -18 -40 14 -40 28 0 50 24 42 45 -8 21 -32 19
-56 -5z"/>
<path d="M8440 5416 c-91 -18 -131 -37 -171 -84 -38 -44 -51 -84 -73 -215 -17
-96 -39 -141 -91 -185 -85 -70 -85 -188 0 -384 51 -119 133 -234 234 -330 107
-102 180 -147 253 -155 93 -10 153 -77 190 -212 27 -100 72 -121 263 -121 135
0 203 12 390 70 191 59 207 48 25 -18 -217 -78 -333 -99 -457 -83 -144 18
-190 15 -208 -13 -21 -31 -39 -138 -31 -181 4 -21 30 -63 67 -107 81 -99 113
-166 117 -249 6 -92 -30 -160 -108 -208 -93 -56 -150 2 -150 154 0 68 -3 78
-27 104 -16 17 -65 52 -109 79 l-82 50 -148 -85 c-163 -94 -246 -146 -264
-168 -21 -25 -4 -45 37 -45 147 -1 393 -162 436 -285 22 -65 22 -85 -7 -208
-56 -235 -176 -516 -227 -532 -9 -3 -20 -16 -23 -28 -9 -33 -7 -144 4 -259 6
-57 15 -152 21 -213 6 -60 17 -148 25 -194 15 -80 14 -86 -4 -110 -25 -34 -77
-39 -129 -12 -51 25 -64 42 -69 88 -7 52 23 96 84 127 76 39 77 42 63 154 -7
53 -16 147 -22 207 -15 191 -12 186 -118 211 -84 20 -184 18 -230 -5 -78 -40
-253 -195 -297 -263 -13 -20 -45 -49 -71 -64 -67 -38 -101 -71 -128 -125 -52
-101 -120 -126 -231 -84 -114 44 -141 50 -171 39 -22 -7 -30 -19 -40 -56 -14
-58 -36 -88 -93 -127 -52 -36 -98 -51 -153 -51 -47 0 -52 12 -62 145 -9 117
-18 148 -43 143 -30 -6 -40 -80 -41 -313 l-1 -220 -53 -24 c-180 -83 -192 -84
-301 -29 -37 19 -77 31 -105 32 -41 1 -46 -2 -49 -22 -2 -15 14 -51 47 -100
27 -42 58 -102 69 -132 10 -30 43 -95 73 -145 80 -132 80 -132 78 -270 -3
-144 3 -158 103 -251 l62 -57 60 6 c34 3 105 17 160 31 54 14 141 33 192 41
90 16 98 16 198 -4 57 -12 117 -21 134 -21 76 0 230 77 362 183 249 198 489
446 602 622 25 39 80 103 124 144 43 40 82 83 87 94 4 12 1 43 -9 76 -23 79
-21 178 5 228 35 70 69 101 164 148 169 86 243 160 268 271 16 72 2 134 -67
290 -30 67 -54 129 -54 137 0 19 65 107 168 227 45 52 103 125 128 162 55 82
74 97 234 183 218 117 283 174 359 319 57 107 66 154 52 248 -7 46 -17 99 -22
119 -5 20 -11 104 -12 185 -4 166 -3 163 -99 388 -78 185 -94 253 -108 476
-14 226 -26 278 -94 400 -28 52 -58 109 -65 127 -16 39 -55 65 -246 164 -187
96 -332 158 -410 175 -71 16 -80 16 -165 0z m-648 -4486 c41 -12 98 -65 98
-92 0 -22 -31 -84 -57 -113 -42 -48 -90 -75 -132 -75 -36 0 -49 6 -92 47 -27
25 -52 57 -55 70 -12 46 77 140 152 163 39 11 44 11 86 0z"/>
<path d="M7675 881 c-27 -16 -63 -43 -79 -60 -27 -28 -28 -32 -16 -61 15 -35
62 -75 101 -85 36 -9 98 24 138 72 62 75 30 163 -58 163 -21 0 -56 -12 -86
-29z"/>
<path d="M8067 5366 c-20 -8 -45 -20 -54 -27 -37 -31 -57 -131 -31 -157 37
-37 192 31 229 100 16 30 -1 69 -37 84 -41 17 -58 17 -107 0z"/>
<path d="M8100 5163 c-48 -25 -117 -93 -125 -125 -8 -33 15 -107 37 -122 12
-7 29 -1 71 28 50 35 56 42 71 100 20 73 18 130 -4 133 -8 2 -31 -5 -50 -14z"/>
<path d="M11939 4734 c-9 -11 -10 -20 -2 -32 24 -39 82 -15 68 28 -8 24 -47
27 -66 4z"/>
<path d="M8597 4029 c-46 -27 -60 -117 -31 -199 28 -78 10 -318 -33 -437 -18
-49 -25 -39 88 -130 89 -72 109 -111 109 -206 0 -103 41 -133 118 -85 69 43
90 146 52 259 -24 71 -38 95 -95 164 -72 87 -78 99 -71 157 15 132 18 291 6
336 -18 67 -51 122 -82 138 -32 16 -37 17 -61 3z"/>
<path d="M10876 3480 c-65 -130 -156 -235 -314 -361 -91 -73 -143 -104 -227
-134 -83 -30 -108 -49 -139 -105 -40 -73 -52 -162 -38 -294 23 -223 23 -225
-94 -431 -87 -155 -96 -194 -79 -341 27 -221 45 -258 150 -317 64 -35 85 -38
155 -20 137 34 210 85 259 181 23 45 68 184 101 312 46 178 112 382 230 720
110 311 150 460 150 551 0 54 -35 178 -73 261 l-34 73 -47 -95z"/>
<path d="M10167 3533 c-13 -12 -7 -33 13 -53 24 -24 40 -18 40 15 0 29 -37 55
-53 38z"/>
<path d="M7831 2899 c-175 -184 -186 -191 -323 -198 l-107 -6 66 -110 c151
-252 346 -482 448 -529 84 -39 259 -64 325 -46 22 6 50 24 66 43 83 98 204
461 204 615 0 176 -96 252 -435 342 -44 11 -87 23 -95 25 -10 3 -64 -47 -149
-136z"/>
<path d="M5478 2794 c-79 -33 -70 -78 71 -354 160 -315 221 -491 290 -845 6
-27 15 -90 21 -140 19 -153 31 -218 52 -285 41 -132 65 -156 163 -162 55 -3
87 -11 149 -41 43 -20 93 -37 112 -37 19 0 64 13 100 30 51 23 67 36 78 62 10
24 17 132 25 398 12 401 13 413 81 580 75 185 83 222 88 436 l4 192 31 5 c18
3 131 13 252 22 218 16 298 32 309 60 17 47 -134 45 -384 -5 -141 -28 -214
-24 -415 21 -149 34 -207 39 -420 38 -183 -1 -240 2 -337 20 -136 25 -218 26
-270 5z"/>
<path d="M7260 2662 c-51 -25 -69 -27 -230 -34 -96 -4 -197 -11 -225 -15 l-50
-8 -6 -140 c-9 -207 -20 -260 -96 -453 -101 -260 -107 -380 -23 -467 41 -43
52 -78 59 -179 7 -111 15 -119 98 -91 75 25 143 88 143 133 0 41 42 90 84 97
24 5 55 -2 117 -26 106 -42 168 -45 203 -9 14 14 40 52 58 84 23 41 49 71 84
95 57 39 165 134 289 252 44 41 91 85 104 97 l24 21 -96 96 c-111 111 -219
248 -323 413 -117 182 -115 181 -214 134z"/>
<path d="M12064 2326 c-24 -22 -27 -27 -14 -36 24 -16 48 -12 61 11 9 17 8 24
-4 36 -12 13 -18 11 -43 -11z"/>
<path d="M11795 2190 c-14 -43 44 -67 68 -28 8 12 7 21 -2 32 -19 23 -58 20
-66 -4z"/>
<path d="M8175 1366 c-43 -43 -26 -115 38 -155 66 -41 104 -20 93 51 -16 107
-79 156 -131 104z"/>
</g>
</svg>
