<svg version="1.1" xmlns="http://www.w3.org/2000/svg"  viewBox="0 0 1600 700" >
<!--
LICENSE:

Note that the Go Gopher is licensed under the [Creative Commons 3.0 Attribution License](https://creativecommons.org/licenses/by/3.0/), and was drawn in SVG by [Renee French](http://reneefrench.blogspot.com/).

The logos from the different browsers and Node come from Wikimedia.

This whole image (including the Javascript man) fall under [Creative Commons 3.0 Attribution License](https://creativecommons.org/licenses/by/3.0/), attributable to Reinoud Elhorst (https://blog.claude.nl/)
-->
<style>
    .eyes, .teeth {
        fill: white;
        stroke: black;
        stroke-width: 6px;
    }
    .skin, .ears {
        fill: #69D5E3;
        stroke: black;
        stroke-width: 6px;
    }
    .innerear, .nose, .pupil {
        fill: black;
        stroke: none;
    }
    .lip, .hands, .feet {
        fill: #CCB69B;
        stroke: black;
        stroke-width: 6px;
        stroke-linecap: round;
    }
    #browsers {
        transform: translate(-1000px, -300px);
    }
    #chrome {
        transform: translate(1175px, 550px);
    }
    #node {
        transform: translate(1025px, 550px);
    }
    #firefox {
        transform: translate(1000px, 300px);
    }
    #safari {
        transform: translate(1200px, 300px);
    }
    #edge {
        transform: translate(1100px, 50px);
    }
    #gopher {
        transform: translate(calc(100% - 400px), 100px) scale(.9);
    }
    #man path {
        stroke: black;
        stroke-width: 6px;
        fill: none;
    }
    g.heart{
        fill: red;
        transform: translate(50%, calc(100% - 10px)) scale(.9, 1);
    }
</style>

<g class="heart">
    <path id="hearthalve" d="
        M 0, 0
        c -15,-8 -150,-75 -300,-300
        s 200,-400, 300,-150
        " />
    <use href="#hearthalve" style="transform: scale(-1, 1);" />

</g>



<g id="gopher">
        <path class="hands" d="
        M45.352,291.011c-13.378,1.876-28.958,5.754-37.066,10.684c-7.337,4.463-6.374,17.6-1.154,24.099
        c5.509,6.862,11.974,6.495,19.779,2.905c5.123-2.357,11.293-7.609,17.667-13.492c0.16-5.126,0.339-10.256,0.543-15.375
        C45.242,296.793,45.317,293.857,45.352,291.011z"/>

        <path class="hands" d="
        M429.717,297.195c-7.5-4.56-21.389-8.217-34.018-10.226c0.316,6.816,0.751,14.31,1.339,22.763c0.106,1.527,0.211,3.033,0.313,4.529
        c4.959,4.379,9.68,8.068,13.74,9.937c7.807,3.591,14.27,3.958,19.779-2.904C436.091,314.795,437.055,301.656,429.717,297.195z"/>

        <path class="feet" d="
        M55.17,564.844c-9.854,17.521,15.9,31.951,29.25,19.801c10.908-9.928,19.518-18.348,38.256-21.098
        c-14.35-5.906-27-13.281-37.752-21.871C71.807,546.805,61.188,554.146,55.17,564.844z"/>

        <path class="feet" d="
        M353.745,579.846c11.037,14.283,38.46,1.312,30.443-17.121c-5.267-12.111-15.218-22.156-27.677-28.195
        c-8.158,7.618-17.849,14.689-29.308,20.867C339.883,561.402,346.096,569.946,353.745,579.846z"/>
    <path class="hands" d="
        M5.048,322.396c3.333-2.397,5.688-4.991,11.784-8.097"/>
    <path class="hands" d="
        M432.955,317.896c-3.333-2.397-5.688-4.991-11.783-8.097"/>
    <path class="feet" d="
        M60.871,584.57c0.9-4.951,3.6-13.275,11.7-20.476"/>
    <path class="feet" d="
        M376.05,582.961c-0.026-5.031-1.304-15.266-8.866-22.195"/>

        <path class="ears" d="
        M41.071,74.477c0-6.969,5.641-12.618,12.6-12.618c4.081,0,7.697,1.951,10,4.964c5.569-9.111,12.283-16.97,19.913-23.729
        c-3.78-3.658-9.922-6.33-19.563-7.625c-31.05-4.174-46.917,11.166-50.542,31.725c-3.498,19.838,7.171,41.143,31.004,46.682
        c2.46-9.685,5.474-18.569,8.95-26.793C46.585,86.954,41.071,81.365,41.071,74.477z"/>
    <path class="innerear" d="M53.671,61.859c-6.959,0-12.6,5.649-12.6,12.618c0,6.888,5.514,12.477,12.362,12.605
        c2.479-5.866,5.191-11.399,8.112-16.638c0.687-1.231,1.4-2.434,2.126-3.622C61.368,63.81,57.751,61.859,53.671,61.859z"/>

        <path class="ears" d="
        M413.979,59.094c-3.625-20.56-19.492-35.899-50.541-31.725c-10.765,1.447-17.166,4.61-20.789,8.945
        c6.867,5.93,13.257,12.745,19.272,20.518c0.292,0.377,0.57,0.758,0.857,1.136c2.296-3.095,5.963-5.109,10.108-5.109
        c6.959,0,12.6,5.649,12.6,12.618c0,6.109-4.335,11.202-10.093,12.366c4.277,8.283,7.745,17.199,10.521,27.142
        C407.677,98.434,417.33,78.095,413.979,59.094z"/>
    <path class="innerear" d="M385.486,65.477c0-6.969-5.641-12.618-12.6-12.618c-4.146,0-7.812,2.014-10.108,5.109
        c4.815,6.345,9.007,12.886,12.615,19.875C381.151,76.679,385.486,71.586,385.486,65.477z"/>

        <path class="skin" d="
        M362.778,57.968c-0.287-0.378-0.565-0.759-0.857-1.136c-6.016-7.773-12.405-14.588-19.272-20.518
        c-29.797-25.728-68.582-34.79-124.728-33.123c-48.682,1.447-100.473,9.906-134.337,39.903c-7.63,6.758-14.343,14.617-19.913,23.729
        c-0.726,1.188-1.439,2.391-2.126,3.622c-2.921,5.239-5.633,10.771-8.112,16.638c-3.476,8.224-6.49,17.108-8.95,26.793
        c-4.767,18.77-7.463,40.533-7.462,66.257c0.002,45.133,8.866,67.528,8.332,110.879c-0.035,2.846-0.11,5.782-0.231,8.821
        c-0.204,5.119-0.383,10.249-0.543,15.375c-1.653,53.107-1.062,105.862-1.499,142.036c-0.401,33.204,14.646,62.704,41.845,84.433
        c10.752,8.59,23.402,15.965,37.752,21.871c25.113,10.337,55.418,16.186,89.844,16.186c50.265,0,87.456-9.652,114.684-24.336
        c11.459-6.178,21.149-13.249,29.308-20.867c20.359-19.008,31.17-41.422,36.009-61.896c11.47-48.523,9.966-84.08,4.831-158.371
        c-0.103-1.496-0.207-3.002-0.313-4.529c-0.588-8.453-1.022-15.947-1.339-22.763c-1.733-37.343,0.064-54.317-0.479-96.937
        c-0.463-36.271-3.195-63.161-9.306-85.047c-2.776-9.942-6.244-18.858-10.521-27.142C371.785,70.854,367.594,64.312,362.778,57.968z
        "/>

        <ellipse class="eyes" cx="144.121" cy="91.595" rx="54.9" ry="53.1"/>
        <circle class="pupil" cx="115.321" cy="94.294" r="18.9"/>
        <circle class="eyes" cx="123.421" cy="98.794" r="5.4"/>

        <ellipse class="eyes" cx="281.821" cy="85.294" rx="54.9" ry="53.1"/>
        <circle class="pupil" cx="253.021" cy="87.995" r="18.9"/>
        <circle class="eyes" fill="#FFFFFF" cx="261.121" cy="92.495" r="5.4"/>

        <path class="teeth" d="
        M214.968,170.343c-10.784,0.188-12.401,4.999-21.685,6.657c-0.328,5.727-0.745,13.566-1.163,22.896c-0.9,20.1,24.6,15.6,24.6,3.6
        c0-9.129,0-25.714,0-33.132C216.16,170.343,215.583,170.333,214.968,170.343z"/>

        <path class="teeth" d="
        M216.72,203.495c0,12,25.5,16.5,24.6-3.6c-0.429-9.582-0.857-17.59-1.189-23.353c-11.689-0.533-13.115-5.813-23.411-6.179
        C216.72,177.78,216.72,194.365,216.72,203.495z"/>

        <path class="lip" d="
        M254.674,150.297c-4.354-4.685-9.521-7.238-16.425-8.471c-3.664,5.366-12.791,9.169-23.479,9.169
        c-10.278,0-19.112-3.518-23.034-8.56c-7.391,1.417-12.753,4.185-17.15,9.26c-8.627,9.959-4.437,24.891,7.156,25.695
        c4.957,0.344,8.624,0.131,11.541-0.391c9.284-1.658,10.901-6.469,21.685-6.657c0.615-0.01,1.192,0,1.752,0.02
        c10.295,0.366,11.721,5.646,23.411,6.179c2.312,0.105,5.024,0.026,8.289-0.316C259.979,175.018,263.645,159.949,254.674,150.297z"
        />
        <path class="nose" d="M214.771,150.995c10.688,0,19.814-3.803,23.479-9.169c1.107-1.622,1.722-3.385,1.722-5.231c0-7.953-11.281-14.4-25.2-14.4
        c-13.917,0-25.2,6.447-25.2,14.4c0,2.08,0.778,4.054,2.166,5.84C195.658,147.477,204.493,150.995,214.771,150.995z"/>
</g>
<g id="browsers">
<g id="man">
    <path d="
    M1175,450
    v225
    m-60,170
    l60,-170
    l60,170
    M1075,675
    l100,-150
    l100,150
    "/>
</g>

<g id="chrome">
<svg viewBox="1 1 176 176" width="150"><style><![CDATA[.B{clip-path:url(#C)}.C{fill:#3e2723}.D{fill-opacity:.15}.E{fill-opacity:.2}]]></style><defs><circle id="A" cx="96" cy="96" r="88"/><path id="B" d="M8 184h83.77l38.88-38.88V116h-69.3L8 24.48z"/></defs><clipPath id="C"><use href="#A"/></clipPath><g class="B" transform="translate(-7 -7)"><path d="M21.97 8v108h39.4L96 56h88V8z" fill="#db4437"/><linearGradient id="D" x1="29.34" x2="81.84" y1="75.02" y2="44.35" gradientUnits="userSpaceOnUse"><stop stop-color="#a52714" stop-opacity=".6" offset="0"/><stop stop-color="#a52714" stop-opacity="0" offset=".66"/></linearGradient><path d="M21.97 8v108h39.4L96 56h88V8z" fill="url(#D)"/><path d="M62.3 115.6L22.48 47.3l-.58 1 39.54 67.8z" class="C D"/><use href="#B" fill="#0f9d58"/><linearGradient id="E" x1="110.9" x2="52.54" y1="164.5" y2="130.3" gradientUnits="userSpaceOnUse"><stop stop-color="#055524" stop-opacity=".4" offset="0"/><stop stop-color="#055524" stop-opacity="0" offset=".33"/></linearGradient><path d="M8 184h83.77l38.88-38.88V116h-69.3L8 24.48z" fill="url(#E)"/><path d="M129.8 117.3l-.83-.48-38.4 67.15h1.15l38.1-66.64z" fill="#263238" class="D"/><defs><path id="F" d="M8 184h83.77l38.88-38.88V116h-69.3L8 24.48z"/></defs><clipPath id="G"><use href="#F"/></clipPath><g clip-path="url(#G)"><path d="M96 56l34.65 60-38.88 68H184V56z" fill="#ffcd40"/><linearGradient id="H" x1="121.9" x2="136.6" y1="49.8" y2="114.1" gradientUnits="userSpaceOnUse"><stop stop-color="#ea6100" stop-opacity=".3" offset="0"/><stop stop-color="#ea6100" stop-opacity="0" offset=".66"/></linearGradient><path d="M96 56l34.65 60-38.88 68H184V56z" fill="url(#H)"/></g><path d="M96 56l34.65 60-38.88 68H184V56z" fill="#ffcd40"/><path d="M96 56l34.65 60-38.88 68H184V56z" fill="url(#H)"/><defs><path id="I" d="M96 56l34.65 60-38.88 68H184V56z"/></defs><clipPath id="J"><use href="#I"/></clipPath><g clip-path="url(#J)"><path d="M21.97 8v108h39.4L96 56h88V8z" fill="#db4437"/><path d="M21.97 8v108h39.4L96 56h88V8z" fill="url(#D)"/></g></g><radialGradient id="K" cx="668.2" cy="55.95" r="84.08" gradientTransform="translate(-576)" gradientUnits="userSpaceOnUse"><stop stop-color="#3e2723" stop-opacity=".2" offset="0"/><stop stop-color="#3e2723" stop-opacity="0" offset="1"/></radialGradient><g transform="translate(-7 -7)"><path d="M96 56v20.95L174.4 56z" fill="url(#K)" class="B"/><g class="B"><defs><path id="L" d="M21.97 8v40.34L61.36 116 96 56h88V8z"/></defs><clipPath id="M"><use href="#L"/></clipPath><g clip-path="url(#M)"><use href="#B" fill="#0f9d58"/><path d="M8 184h83.77l38.88-38.88V116h-69.3L8 24.48z" fill="url(#E)"/></g></g></g><radialGradient id="N" cx="597.9" cy="48.52" r="78.04" gradientTransform="translate(-576)" gradientUnits="userSpaceOnUse"><stop stop-color="#3e2723" stop-opacity=".2" offset="0"/><stop stop-color="#3e2723" stop-opacity="0" offset="1"/></radialGradient><path transform="translate(-7 -7)" d="M21.97 48.45l57.25 57.24L61.36 116z" fill="url(#N)" class="B"/><radialGradient id="O" cx="671.8" cy="96.14" r="87.87" gradientTransform="translate(-576)" gradientUnits="userSpaceOnUse"><stop stop-color="#263238" stop-opacity=".2" offset="0"/><stop stop-color="#263238" stop-opacity="0" offset="1"/></radialGradient><g transform="translate(-7 -7)"><path d="M91.83 183.9l20.96-78.2 17.86 10.3z" fill="url(#O)" class="B"/><g class="B"><circle cx="96" cy="96" r="40" fill="#f1f1f1"/><circle cx="96" cy="96" r="32" fill="#4285f4"/><path d="M96 55c-22.1 0-40 17.9-40 40v1c0-22.1 17.9-40 40-40h88v-1H96z" class="C E"/><path d="M130.6 116c-6.92 11.94-19.8 20-34.6 20-14.8 0-27.7-8.06-34.6-20h-.04L8 24.48v1L61.4 117c6.92 11.94 19.8 20 34.6 20 14.8 0 27.68-8.05 34.6-20h.05v-1h-.06z" fill="#fff" fill-opacity=".1"/><path d="M97 56c-.17 0-.33.02-.5.03C118.36 56.3 136 74.08 136 96s-17.64 39.7-39.5 39.97c.17 0 .33.03.5.03 22.1 0 40-17.9 40-40s-17.9-40-40-40z" opacity=".1" class="C"/><path d="M131 117.3c3.4-5.88 5.37-12.68 5.37-19.96a39.87 39.87 0 0 0-1.87-12.09c.95 3.42 1.5 7 1.5 10.73 0 7.28-1.97 14.08-5.37 19.96l.02.04-38.88 68h1.16L131 117.3z" fill="#fff" class="E"/><path d="M96 9c48.43 0 87.72 39.13 88 87.5 0-.17.01-.33.01-.5 0-48.6-39.4-88-88-88S8 47.4 8 96c0 .17.01.33.01.5C8.28 48.13 47.57 9 96 9z" fill="#fff" class="E"/><path d="M96 183c48.43 0 87.72-39.13 88-87.5 0 .17.01.33.01.5 0 48.6-39.4 88-88 88S8 144.6 8 96c0-.17.01-.33.01-.5.27 48.37 39.56 87.5 88 87.5z" class="C D"/></g></g></svg>
</g>

<g id="firefox">
<svg viewBox="0 0 1024 1024" width="150" x="10" y="10">
  <defs>
    <radialGradient id="radial-gradient" cx="-14480.522" cy="-8329.079" fx="-14509.281265145226" r="450.875" gradientTransform="matrix(0.762, 0.034, -0.05, 1.12, 11560.893, 10069.103)" gradientUnits="userSpaceOnUse">
      <stop offset="0.045" stop-color="#ffea00"/>
      <stop offset="0.12" stop-color="#ffde00"/>
      <stop offset="0.254" stop-color="#ffbf00"/>
      <stop offset="0.429" stop-color="#ff8e00"/>
      <stop offset="0.769" stop-color="#ff272d"/>
      <stop offset="0.872" stop-color="#e0255a"/>
      <stop offset="0.953" stop-color="#cc2477"/>
      <stop offset="1" stop-color="#c42482"/>
    </radialGradient>
    <radialGradient id="radial-gradient-2" cx="-7529.669" cy="-7921.608" r="791.229" gradientTransform="translate(9921.963 9899.103) scale(1.225 1.225)" gradientUnits="userSpaceOnUse">
      <stop offset="0" stop-color="#00ccda"/>
      <stop offset="0.22" stop-color="#0083ff"/>
      <stop offset="0.261" stop-color="#007af9"/>
      <stop offset="0.33" stop-color="#0060e8"/>
      <stop offset="0.333" stop-color="#005fe7"/>
      <stop offset="0.438" stop-color="#2639ad"/>
      <stop offset="0.522" stop-color="#401e84"/>
      <stop offset="0.566" stop-color="#4a1475"/>
    </radialGradient>
    <linearGradient id="linear-gradient" x1="575.669" y1="731.188" x2="384.231" y2="104.96" gradientUnits="userSpaceOnUse">
      <stop offset="0" stop-color="#000f43" stop-opacity="0.4"/>
      <stop offset="0.485" stop-color="#001962" stop-opacity="0.173"/>
      <stop offset="1" stop-color="#002079" stop-opacity="0"/>
    </linearGradient>
    <radialGradient id="radial-gradient-3" cx="-8260.94" cy="-6516.556" r="266.886" gradientTransform="matrix(1.219, 0.123, -0.123, 1.219, 10296.265, 9597.23)" gradientUnits="userSpaceOnUse">
      <stop offset="0.003" stop-color="#ffea00"/>
      <stop offset="0.497" stop-color="#ff272d"/>
      <stop offset="1" stop-color="#c42482"/>
    </radialGradient>
    <radialGradient id="radial-gradient-4" cx="-8285.087" cy="-6772.468" r="445.678" gradientTransform="matrix(1.219, 0.123, -0.123, 1.219, 10296.265, 9597.23)" gradientUnits="userSpaceOnUse">
      <stop offset="0.003" stop-color="#ffe900"/>
      <stop offset="0.157" stop-color="#ffaf0e"/>
      <stop offset="0.316" stop-color="#ff7a1b"/>
      <stop offset="0.472" stop-color="#ff4e26"/>
      <stop offset="0.621" stop-color="#ff2c2e"/>
      <stop offset="0.762" stop-color="#ff1434"/>
      <stop offset="0.892" stop-color="#ff0538"/>
      <stop offset="1" stop-color="#ff0039"/>
    </radialGradient>
    <radialGradient id="radial-gradient-5" cx="-8222.051" cy="-6359.332" r="408.958" gradientTransform="matrix(1.219, 0.123, -0.123, 1.219, 10296.265, 9597.23)" gradientUnits="userSpaceOnUse">
      <stop offset="0.003" stop-color="#ff272d"/>
      <stop offset="0.497" stop-color="#c42482"/>
      <stop offset="0.986" stop-color="#620700"/>
    </radialGradient>
    <radialGradient id="radial-gradient-6" cx="750.189" cy="396.041" fx="778.1665281038617" fy="382.2124050106231" r="782.18" gradientUnits="userSpaceOnUse">
      <stop offset="0.156" stop-color="#ffea00"/>
      <stop offset="0.231" stop-color="#ffde00"/>
      <stop offset="0.365" stop-color="#ffbf00"/>
      <stop offset="0.541" stop-color="#ff8e00"/>
      <stop offset="0.763" stop-color="#ff272d"/>
      <stop offset="0.796" stop-color="#f92433"/>
      <stop offset="0.841" stop-color="#e91c45"/>
      <stop offset="0.893" stop-color="#cf0e62"/>
      <stop offset="0.935" stop-color="#b5007f"/>
    </radialGradient>
    <radialGradient id="radial-gradient-7" cx="691.339" cy="3.289" r="923.615" gradientUnits="userSpaceOnUse">
      <stop offset="0.279" stop-color="#ffea00"/>
      <stop offset="0.402" stop-color="#fd0"/>
      <stop offset="0.63" stop-color="#ffba00"/>
      <stop offset="0.856" stop-color="#ff9100"/>
      <stop offset="0.933" stop-color="#ff6711"/>
      <stop offset="0.994" stop-color="#ff4a1d"/>
    </radialGradient>
    <linearGradient id="linear-gradient-2" x1="-8944.65" y1="-6677.742" x2="-8660.289" y2="-6750.226" gradientTransform="matrix(1.219, 0.123, -0.123, 1.219, 10296.265, 9597.23)" gradientUnits="userSpaceOnUse">
      <stop offset="0" stop-color="#c42482" stop-opacity="0.5"/>
      <stop offset="0.474" stop-color="#ff272d" stop-opacity="0.5"/>
      <stop offset="0.486" stop-color="#ff2c2c" stop-opacity="0.513"/>
      <stop offset="0.675" stop-color="#ff7a1a" stop-opacity="0.72"/>
      <stop offset="0.829" stop-color="#ffb20d" stop-opacity="0.871"/>
      <stop offset="0.942" stop-color="#ffd605" stop-opacity="0.964"/>
      <stop offset="1" stop-color="#ffe302"/>
    </linearGradient>
    <linearGradient id="linear-gradient-3" x1="245.347" y1="-1082.012" x2="190.775" y2="-1221.859" gradientTransform="matrix(0.995, 0.1, -0.1, 0.995, -173.696, 1313.941)" gradientUnits="userSpaceOnUse">
      <stop offset="0" stop-color="#891551" stop-opacity="0.6"/>
      <stop offset="1" stop-color="#c42482" stop-opacity="0"/>
    </linearGradient>
    <linearGradient id="linear-gradient-4" x1="22.04" y1="718.827" x2="116.148" y2="825.714" gradientTransform="matrix(0.995, 0.1, -0.1, 0.995, 305.439, -246.471)" gradientUnits="userSpaceOnUse">
      <stop offset="0.005" stop-color="#891551" stop-opacity="0.5"/>
      <stop offset="0.484" stop-color="#ff272d" stop-opacity="0.5"/>
      <stop offset="1" stop-color="#ff272d" stop-opacity="0"/>
    </linearGradient>
    <linearGradient id="linear-gradient-5" x1="200.104" y1="904.616" x2="200.171" y2="829.835" gradientTransform="matrix(0.995, 0.1, -0.1, 0.995, 305.439, -246.471)" gradientUnits="userSpaceOnUse">
      <stop offset="0" stop-color="#c42482"/>
      <stop offset="0.083" stop-color="#c42482" stop-opacity="0.81"/>
      <stop offset="0.206" stop-color="#c42482" stop-opacity="0.565"/>
      <stop offset="0.328" stop-color="#c42482" stop-opacity="0.362"/>
      <stop offset="0.447" stop-color="#c42482" stop-opacity="0.204"/>
      <stop offset="0.562" stop-color="#c42482" stop-opacity="0.091"/>
      <stop offset="0.673" stop-color="#c42482" stop-opacity="0.023"/>
      <stop offset="0.773" stop-color="#c42482" stop-opacity="0"/>
    </linearGradient>
    <linearGradient id="linear-gradient-6" x1="655.531" y1="38.12" x2="961.187" y2="721.615" gradientUnits="userSpaceOnUse">
      <stop offset="0" stop-color="#fff14f"/>
      <stop offset="0.268" stop-color="#ffee4c"/>
      <stop offset="0.452" stop-color="#ffe643"/>
      <stop offset="0.612" stop-color="#ffd834"/>
      <stop offset="0.757" stop-color="#ffc41e"/>
      <stop offset="0.892" stop-color="#ffab02"/>
      <stop offset="0.902" stop-color="#ffa900"/>
      <stop offset="0.949" stop-color="#ffa000"/>
      <stop offset="1" stop-color="#ff9100"/>
    </linearGradient>
    <linearGradient id="linear-gradient-7" x1="715.885" y1="431.21" x2="571.098" y2="819.96" gradientUnits="userSpaceOnUse">
      <stop offset="0" stop-color="#ff8e00"/>
      <stop offset="0.04" stop-color="#ff8e00" stop-opacity="0.858"/>
      <stop offset="0.084" stop-color="#ff8e00" stop-opacity="0.729"/>
      <stop offset="0.13" stop-color="#ff8e00" stop-opacity="0.628"/>
      <stop offset="0.178" stop-color="#ff8e00" stop-opacity="0.557"/>
      <stop offset="0.227" stop-color="#ff8e00" stop-opacity="0.514"/>
      <stop offset="0.282" stop-color="#ff8e00" stop-opacity="0.5"/>
      <stop offset="0.389" stop-color="#ff8e00" stop-opacity="0.478"/>
      <stop offset="0.524" stop-color="#ff8e00" stop-opacity="0.416"/>
      <stop offset="0.676" stop-color="#ff8e00" stop-opacity="0.314"/>
      <stop offset="0.838" stop-color="#ff8e00" stop-opacity="0.172"/>
      <stop offset="1" stop-color="#ff8e00" stop-opacity="0"/>
    </linearGradient>
  </defs>
  <title>firefox-logo</title>
  <g>
    <path d="M805.285,93.558c-23.947,27.884-35.1,90.639-10.818,154.256s61.5,49.8,84.7,114.673c30.623,85.6,16.369,200.589,16.369,200.589s36.814,106.609,62.468-6.633C1014.787,343.74,805.285,145.937,805.285,93.558Z" style="fill: url(#radial-gradient)"/>
    <path id="_Path_" d="M513.072,976.638c245.236,0,443.9-199.739,443.9-446.028S758.308,84.583,513.31,84.583,69.65,284.322,69.65,530.61C69.175,777.137,268.073,976.638,513.072,976.638Z" style="fill: url(#radial-gradient-2)"/>
    <path d="M845.675,805.636a246.888,246.888,0,0,1-30.123,18.183,704,704,0,0,0,38.3-62.961c9.46-10.47,18.126-20.648,25.188-31.653,3.437-5.407,7.313-12.079,11.416-19.819,24.921-44.9,52.4-117.563,53.179-192.2l0-.18c.018-1.837.029-3.675.014-5.515a257.6,257.6,0,0,0-5.712-55.748c.2,1.431.376,2.861.556,4.291-.221-1.1-.407-2.212-.644-3.314.366,2.034.66,4,.976,5.983,5.094,43.217,1.466,85.372-16.682,116.45-.286.454-.58.879-.869,1.323,9.41-47.234,12.558-99.387,2.088-151.6,0,0-4.187-25.383-35.376-102.441-17.952-44.353-49.833-80.716-78-107.207-24.69-30.546-47.114-51.045-59.475-64.06-25.821-27.189-36.643-47.569-41.087-60.867-3.853-1.932-53.135-49.807-57.05-51.631-21.511,33.352-89.162,137.675-56.981,235.146,14.584,44.172,51.467,90.017,90.067,115.736,1.695,1.936,22.969,25.042,33.086,77.157C728.992,524.551,723.5,566.564,702,628.692c-25.286,54.505-90.067,108.388-150.724,113.9C421.6,754.373,374.127,677.484,374.127,677.484c46.336,18.525,97.568,14.65,128.724-4.556,31.4-19.425,50.394-33.827,65.81-28.148,15.2,5.653,27.3-10.756,16.442-27.767a78.5,78.5,0,0,0-79.4-34.573c-31.433,5.109-60.226,30.009-101.412,5.894a85.528,85.528,0,0,1-7.729-5.062c-2.715-1.785,8.826,2.717,6.133.688-8.015-4.354-22.2-13.842-25.88-17.217-.613-.562,6.219,2.179,5.606,1.616-38.51-31.712-33.7-53.134-32.49-66.57.969-10.749,7.964-24.523,19.751-30.11,5.693,3.107,9.24,5.479,9.24,5.479s-2.428-4.961-3.741-7.576c.46-.2.9-.147,1.358-.342,4.664,2.251,14.977,8.1,20.407,11.667,7.072,4.988,9.326,9.436,9.326,9.436s1.862-1.025.485-5.375c-.5-1.784-2.647-7.453-9.652-13.174l.438.049a81.2,81.2,0,0,1,11.867,8.241c1.975-7.181,5.527-14.679,4.746-28.092-.477-9.431-.257-11.873-1.919-15.515-1.488-3.128.834-4.348,3.418-1.1a32.826,32.826,0,0,0-2.208-7.4l.022-.244c3.225-11.236,68.248-40.461,72.981-43.877a67.355,67.355,0,0,0,19.132-20.8c3.617-5.763,6.337-13.848,7-26.112.355-8.844-3.759-14.734-69.507-21.618-17.981-1.771-28.531-14.8-34.526-26.823-1.094-2.59-2.209-4.937-3.325-7.282a58,58,0,0,1-2.558-8.431c10.749-30.873,28.81-56.977,55.367-76.7,1.447-1.318-5.782.338-4.336-.98,1.687-1.538,12.706-5.977,14.787-6.977,2.542-1.2-10.882-6.9-22.732-5.512-12.069,1.36-14.632,2.8-21.073,5.531,2.673-2.661,11.173-6.149,9.18-6.126-13.011,1.995-29.179,9.558-43,18.124a10.731,10.731,0,0,1,.835-4.348c-6.441,2.732-22.26,13.788-26.865,23.142a44.329,44.329,0,0,0,.266-5.4A84.483,84.483,0,0,0,351.9,227.362l-.241.219c-37.358-15.05-70.233-16.024-98.053-9.276-6.086-6.112-9.059-1.644-22.907-32.069-.941-1.832.722,1.809,0,0-2.278-5.9,1.389,7.872,0,0-23.284,18.372-53.92,39.193-68.626,53.89-.182.586,17.156-4.9,0,0-6.008,1.716-5.6,5.281-6.513,37.5-.22,2.443-.025,5.179-.223,7.378-11.748,14.968-19.749,27.643-22.775,34.211-15.193,26.18-31.926,66.992-48.146,131.551A334.364,334.364,0,0,1,110.2,400.365c-13.488,34.267-26.527,88.078-29.134,170.945a483.614,483.614,0,0,1,12.533-50.66,473.038,473.038,0,0,0,34.74,201.061c9.329,22.821,24.76,57.455,51.029,95.4,82.533,86.839,198.945,140.9,327.852,140.9C641.792,958.012,762.635,899.133,845.675,805.636Z" style="fill: url(#linear-gradient)"/>
    <path d="M746.1,868.708c162.87-18.86,234.969-186.7,142.381-190-83.633-2.673-219.527,198.9-142.381,190Z" style="fill: url(#radial-gradient-3)"/>
    <path d="M900.207,644.424c112.056-65.214,82.839-206.08,82.839-206.08S939.8,488.582,910.421,568.664C881.4,647.963,832.837,683.812,900.207,644.424Z" style="fill: url(#radial-gradient-4)"/>
    <path d="M544.474,952.062c156.227,49.851,290.5-73.22,207.733-114.32C676.956,800.676,470.324,928.49,544.474,952.062Z" style="fill: url(#radial-gradient-5)"/>
    <path d="M911.849,704.234c3.8-5.363,8.94-22.535,13.48-30.211C952.911,629.5,953.106,594,953.106,593.187c16.659-83.219,15.148-117.2,4.9-180.043-8.251-50.6-44.322-123.092-75.57-158-32.2-35.965-9.514-24.247-40.692-50.518-27.327-30.293-53.823-60.291-68.253-72.355C669.215,45.094,671.571,26.577,673.579,23.42c-.339.371-.837.922-1.472,1.643C670.872,20.14,670,16,670,16s-57,57-69,152c-7.834,62.021,15.383,126.676,49,168a381.367,381.367,0,0,0,59,58l0-.026c25.4,36.477,39.38,81.489,39.38,129.909,0,121.244-98.341,219.531-219.652,219.531a220.455,220.455,0,0,1-49.134-5.519c-57.236-10.908-90.288-39.781-106.772-59.382-9.447-11.234-13.464-19.423-13.464-19.423,51.283,18.371,107.986,14.528,142.468-4.518,34.749-19.265,55.774-33.546,72.837-27.915,16.82,5.606,30.211-10.667,18.2-27.536-11.771-16.845-42.4-40.97-87.878-34.286-34.789,5.067-66.657,29.76-112.24,5.845a96.313,96.313,0,0,1-8.554-5.02c-3.005-1.771,9.768,2.695,6.787.682-8.87-4.318-24.573-13.728-28.643-17.074-.679-.557,6.883,2.161,6.2,1.6-42.621-31.449-37.3-52.693-35.959-66.018,1.073-10.66,8.814-24.32,21.859-29.86,6.3,3.081,10.226,5.433,10.226,5.433s-2.688-4.92-4.141-7.513c.509-.194.994-.145,1.5-.339,5.162,2.232,16.576,8.029,22.586,11.57,7.827,4.947,10.322,9.358,10.322,9.358s2.061-1.016.536-5.33c-.557-1.769-2.929-7.391-10.682-13.065l.485.049a90.851,90.851,0,0,1,13.134,8.173c2.186-7.121,6.118-14.557,5.253-27.859-.528-9.352-.284-11.775-2.124-15.386-1.647-3.1.924-4.312,3.782-1.088a30.038,30.038,0,0,0-2.444-7.343l.025-.242c3.57-11.143,75.535-40.125,80.773-43.513a70.31,70.31,0,0,0,21.175-20.63c4-5.715,7.014-13.733,7.748-25.895.246-5.48-1.441-9.817-20.5-13.965-11.439-2.49-29.136-4.913-56.433-7.474-19.9-1.756-31.577-14.676-38.212-26.6-1.211-2.569-2.445-4.9-3.68-7.222a53.108,53.108,0,0,1-2.831-8.36,158.47,158.47,0,0,1,61.279-76.063c1.6-1.308-6.4.335-4.8-.972,1.868-1.525,14.063-5.927,16.367-6.919,2.813-1.186-12.044-6.84-25.159-5.466-13.357,1.349-16.194,2.776-23.323,5.486,2.959-2.639,12.366-6.1,10.161-6.075-14.4,1.978-32.3,9.479-47.6,17.973a9.676,9.676,0,0,1,.924-4.312c-7.129,2.709-24.637,13.674-29.734,22.95a39.488,39.488,0,0,0,.294-5.354,88.678,88.678,0,0,0-14.6,13.7l-.267.218c-41.347-14.925-77.732-15.891-108.522-9.2-6.736-6.061-17.566-15.226-32.892-45.4-1.041-1.817-1.6,3.755-2.4,1.961-5.955-13.813-9.553-36.444-8.962-52.046,0,0-12.318,5.614-22.513,29.06-1.893,4.215-3.107,6.54-4.32,8.865-.558.678,1.265-7.7.974-7.244-1.772,3-6.356,7.192-8.371,12.618-1.384,4.021-3.325,6.273-4.564,11.288l-.291.46c-.1-1.478.367-6.081.027-5.137a236.1,236.1,0,0,0-12.308,29.841c-5.489,18.046-11.879,42.61-12.892,74.565-.244,2.423-.027,5.136-.247,7.317-13,14.844-21.858,27.413-25.207,33.928C75.18,329.762,56.66,370.236,38.707,434.259A319.143,319.143,0,0,1,67.245,384.27C52.316,418.253,37.885,471.618,35,553.8a438.522,438.522,0,0,1,13.872-50.24c-2.578,54.8,3.805,122.74,38.449,199.393,20.57,45.087,67.921,136.649,183.62,208.1l-.01.007s39.36,29.3,107.017,51.259c5,1.814,10.065,3.6,15.234,5.333-1.622-.655-3.191-1.344-4.715-2.052a484.883,484.883,0,0,0,138.8,20.4c175.18.149,226.846-70.2,226.846-70.2s-.182.137-.513.377q3.708-3.491,7.143-7.257c-27.639,26.1-90.715,27.832-114.3,25.949,40.223-11.813,66.691-21.806,118.175-41.519Q773.655,890,783.1,885.71c.681-.3,1.368-.625,2.052-.936,1.249-.582,2.486-1.132,3.747-1.744a349.205,349.205,0,0,0,70.262-43.987c51.7-41.3,62.949-81.557,68.829-108.1-.82,2.544-3.375,8.475-5.17,12.316-13.315,28.482-42.841,45.959-74.908,60.948A688.993,688.993,0,0,0,890.3,741.773C900.767,731.39,904.033,715.148,911.849,704.234Z" style="fill: url(#radial-gradient-6)"/>
    <path d="M848.921,802.982c21.08-23.241,40.01-49.824,54.349-79.968,36.9-77.582,93.952-206.58,49.018-341.306C916.775,275.225,868.016,217,806.107,160.122,705.563,67.756,677.482,26.521,677.482,2c0,0-116.089,129.409-65.742,264.381S765.2,396.405,833.419,537.255C913.694,703,768.47,883.869,648.375,934.493c7.353-1.633,266.97-60.383,280.614-208.882C928.68,728.342,922.83,769.414,848.921,802.982Z" style="fill: url(#radial-gradient-7)"/>
    <path d="M512.592,321.373c.393-8.77-4.156-14.66-76.682-21.463-29.839-2.755-41.265-30.334-44.748-41.941-10.61,27.565-14.991,56.49-12.636,91.477,1.61,22.92,17.009,47.521,24.37,61.965,0,0,1.636-2.126,2.391-2.912,13.861-14.431,71.936-36.419,77.392-39.541C488.693,365.159,511.582,348.435,512.592,321.373Z" style="fill: url(#linear-gradient-2)"/>
    <path d="M193.314,158.471c-1.041-1.818-1.6,3.754-2.4,1.961-5.955-13.813-9.578-36.2-8.72-52.022,0,0-12.318,5.614-22.513,29.06-1.893,4.215-3.107,6.54-4.32,8.865-.558.678,1.265-7.7.974-7.244-1.771,3-6.355,7.192-8.346,12.375-1.651,4.239-3.349,6.515-4.613,11.772-.389,1.429.392-6.323.052-5.379-23.711,45.825-28.237,115.114-25.738,112.184,50.478-53.9,108.325-66.683,108.325-66.683-6.155-4.534-19.528-17.625-32.7-44.889Z" style="fill: url(#linear-gradient-3)"/>
    <path d="M384.844,722.1c-69.724-29.769-148.992-71.755-146-167.138,4.075-125.619,117.145-100.791,117.145-100.791-4.267,1.039-15.675,9.162-19.718,17.82-4.273,10.827-12.069,35.276,11.551,60.9,37.089,40.192-76.2,95.356,98.663,199.567,4.41,2.4-40.991-1.43-61.639-10.358Z" style="fill: url(#linear-gradient-4)"/>
    <path d="M360.074,659.5c49.442,17.207,107.04,14.189,141.523-4.858,23.085-12.851,52.7-33.434,70.922-28.353-15.777-6.236-27.726-9.15-42.1-9.862-2.448,0-5.382-.052-8.048-.32a136.228,136.228,0,0,0-15.757.863c-8.9.818-18.766,6.433-27.735,5.532-.485-.049,8.7-3.774,7.953-3.605-4.752.991-9.915,1.205-15.37,1.881-3.467.386-6.449.82-9.891.963-102.982,8.733-190.017-55.813-190.017-55.813-7.408,24.95,33.166,74.3,88.521,93.572Z" style="fill: url(#linear-gradient-5)"/>
    <path d="M848.738,803.646C952.9,701.376,1005.6,577.061,983.321,437.627c0,0,8.9,71.5-24.848,144.628,16.213-71.393,18.1-160.114-24.975-251.988C876.005,207.636,781.45,143.109,745.351,116.189,690.656,75.4,667.983,33.87,667.574,25.3c-16.339,33.477-65.766,148.2-5.31,247,56.64,92.564,145.865,120.039,208.328,204.947C985.667,633.667,848.738,803.646,848.738,803.646Z" style="fill: url(#linear-gradient-6)"/>
    <path d="M833.814,537.551C797.412,462.35,751.978,429.55,709,394c5,7,6.232,9.473,9,14,37.827,40.316,93.607,138.656,53.11,262.107C694.881,902.482,389.967,793.057,358,762.319c12.932,134.489,238.036,198.845,384.6,111.63C826,795,893.468,660.788,833.814,537.551Z" style="fill: url(#linear-gradient-7)"/>
  </g>
</svg>
</g>

<g id="safari">
<svg
   viewBox="0 0 66.165833 65.803795"
   version="1.1"
   width="150"
   >
  <title
     id="title2819">Safari browser logo</title>
  <defs
     id="defs2">
    <linearGradient
       id="linearGradient2135">
      <stop
         style="stop-color:#06c2e7;stop-opacity:1"
         offset="0"
         id="stop2131" />
      <stop
         id="stop2143"
         offset="0.25000015"
         style="stop-color:#0db8ec;stop-opacity:1" />
      <stop
         id="stop2139"
         offset="0.5000003"
         style="stop-color:#12aef1;stop-opacity:1" />
      <stop
         style="stop-color:#1f86f9;stop-opacity:1"
         offset="0.75000012"
         id="stop2141" />
      <stop
         style="stop-color:#107ddd;stop-opacity:1"
         offset="1"
         id="stop2133" />
    </linearGradient>
    <linearGradient
       id="linearGradient2127">
      <stop
         style="stop-color:#bdbdbd;stop-opacity:1"
         offset="0"
         id="stop2123" />
      <stop
         style="stop-color:#ffffff;stop-opacity:1"
         offset="1"
         id="stop2125" />
    </linearGradient>
    <linearGradient
       href="#linearGradient2127"
       id="linearGradient2129"
       x1="412.97501"
       y1="237.60777"
       x2="412.97501"
       y2="59.392235"
       gradientUnits="userSpaceOnUse"
       gradientTransform="matrix(0.35154274,0,0,0.35154274,206.79018,159.77261)" />
    <radialGradient
       href="#linearGradient2135"
       id="radialGradient2137"
       cx="413.06128"
       cy="136.81819"
       fx="413.06128"
       fy="136.81819"
       r="82.125351"
       gradientUnits="userSpaceOnUse"
       gradientTransform="matrix(0.38143305,0,0,0.38143298,194.54473,155.58044)" />
    <filter
       style="color-interpolation-filters:sRGB"
       id="filter2222"
       x="-0.020909378"
       width="1.0418189"
       y="-0.0223378"
       height="1.0446756">
      <feGaussianBlur
         stdDeviation="0.95767362"
         id="feGaussianBlur2224" />
    </filter>
    <filter
       style="color-interpolation-filters:sRGB"
       id="filter2248"
       x="-0.048"
       width="1.096"
       y="-0.048"
       height="1.096">
      <feGaussianBlur
         stdDeviation="3.5643107"
         id="feGaussianBlur2250" />
    </filter>
  </defs>
  <g
     id="layer1"
     transform="translate(-318.88562,-180.59501)">
    <g
       id="g2858">
      <path
         transform="matrix(0.33864636,0,0,0.32609457,212.11606,166.11668)"
         style="opacity:0.52999998;fill:#000000;fill-opacity:1;stroke:none;stroke-width:2.93077397;stroke-linecap:round;stroke-linejoin:round;stroke-miterlimit:4;stroke-dasharray:none;stroke-dashoffset:0;stroke-opacity:1;paint-order:markers stroke fill;filter:url(#filter2248)"
         d="M 502.08277,148.5 A 89.107765,89.107765 0 0 1 412.975,237.60777 89.107765,89.107765 0 0 1 323.86724,148.5 89.107765,89.107765 0 0 1 412.975,59.392235 89.107765,89.107765 0 0 1 502.08277,148.5 Z"
         id="path2226"
         />
      <path
         id="path826"
         d="m 383.29373,211.97671 a 31.325188,31.325188 0 0 1 -31.32519,31.32519 31.325188,31.325188 0 0 1 -31.32518,-31.32519 31.325188,31.325188 0 0 1 31.32518,-31.32519 31.325188,31.325188 0 0 1 31.32519,31.32519 z"
         style="opacity:1;fill:url(#linearGradient2129);fill-opacity:1;stroke:#cdcdcd;stroke-width:0.09301235;stroke-linecap:round;stroke-linejoin:round;stroke-miterlimit:4;stroke-dasharray:none;stroke-dashoffset:0;stroke-opacity:1;paint-order:markers stroke fill" />
      <path
         id="circle828"
         d="m 380.83911,211.97671 a 28.870571,28.870571 0 0 1 -28.87057,28.87057 28.870571,28.870571 0 0 1 -28.87057,-28.87057 28.870571,28.870571 0 0 1 28.87057,-28.87057 28.870571,28.870571 0 0 1 28.87057,28.87057 z"
         style="opacity:1;fill:url(#radialGradient2137);fill-opacity:1;stroke:none;stroke-width:0.94955933;stroke-linecap:round;stroke-linejoin:round;stroke-miterlimit:4;stroke-dasharray:none;stroke-dashoffset:0;stroke-opacity:1;paint-order:markers stroke fill" />
      <path
         id="rect830"
         d="m 351.96854,184.61172 c -0.23319,0 -0.42092,0.18772 -0.42092,0.42092 v 4.85517 c 0,0.2332 0.18773,0.42092 0.42092,0.42092 0.2332,0 0.42092,-0.18772 0.42092,-0.42092 v -4.85517 c 0,-0.2332 -0.18772,-0.42092 -0.42092,-0.42092 z m -2.75367,0.17404 c -0.0279,-0.003 -0.0566,-0.003 -0.0856,3.5e-4 -0.23194,0.0242 -0.39917,0.2304 -0.37495,0.46234 l 0.21218,2.03119 c 0.0242,0.23194 0.23041,0.39918 0.46233,0.37496 0.23195,-0.0242 0.39919,-0.2304 0.37496,-0.46234 l -0.212,-2.03118 c -0.0212,-0.20295 -0.18177,-0.35637 -0.37695,-0.37532 z m 5.5266,0.002 c -0.19519,0.0188 -0.35578,0.17221 -0.37714,0.37513 l -0.21363,2.03102 c -0.0244,0.23192 0.14285,0.43831 0.37478,0.4627 0.23191,0.0244 0.43811,-0.14268 0.46251,-0.3746 l 0.21364,-2.03119 c 0.0244,-0.23192 -0.14286,-0.43814 -0.37478,-0.46252 -0.029,-0.003 -0.0575,-0.003 -0.0854,-5.2e-4 z m -8.3553,0.4082 c -0.028,2.2e-4 -0.0565,0.003 -0.085,0.009 -0.22814,0.0483 -0.37294,0.27089 -0.32464,0.49903 l 1.00552,4.74981 c 0.0483,0.22814 0.27088,0.37293 0.49902,0.32464 0.22814,-0.0483 0.37294,-0.27072 0.32465,-0.49886 l -1.00552,-4.74998 c -0.0423,-0.19963 -0.21792,-0.33543 -0.41401,-0.3339 z m 11.18382,0.004 c -0.19609,-0.002 -0.3718,0.13394 -0.41419,0.33353 l -1.00897,4.74925 c -0.0485,0.22811 0.0962,0.45076 0.32427,0.49922 0.22811,0.0485 0.45076,-0.0962 0.49921,-0.32428 l 1.00897,-4.74926 c 0.0485,-0.2281 -0.0962,-0.45076 -0.32427,-0.49921 -0.0285,-0.006 -0.057,-0.009 -0.085,-0.009 z m -13.88337,0.75717 c -0.0545,-0.005 -0.11077,0.001 -0.16622,0.0194 -0.22178,0.0721 -0.34238,0.3085 -0.27031,0.53028 l 0.6311,1.94236 c 0.0721,0.22179 0.30868,0.34238 0.53046,0.27032 0.22179,-0.0721 0.3422,-0.30868 0.27013,-0.53046 l -0.63109,-1.94236 c -0.054,-0.16634 -0.20059,-0.27568 -0.36407,-0.28958 z m 16.56765,0.001 c -0.16348,0.0139 -0.30999,0.12324 -0.36406,0.28957 l -0.63147,1.94218 c -0.0721,0.22177 0.0484,0.45837 0.27014,0.53046 0.22178,0.0721 0.45837,-0.0484 0.53047,-0.27013 l 0.63146,-1.94236 c 0.0721,-0.22178 -0.0484,-0.45837 -0.27014,-0.53046 -0.0554,-0.018 -0.11191,-0.0239 -0.1664,-0.0193 z m -19.23721,0.9759 c -0.0547,0.001 -0.11004,0.013 -0.16331,0.0367 -0.21298,0.0947 -0.30836,0.34244 -0.21364,0.55553 l 1.97197,4.43662 c 0.0947,0.21308 0.34244,0.30836 0.55553,0.21364 0.21298,-0.0947 0.30854,-0.34244 0.21382,-0.55553 l -1.97216,-4.43662 c -0.071,-0.15983 -0.22817,-0.25351 -0.39221,-0.25033 z m 21.93693,0.0149 c -0.16403,-0.003 -0.32132,0.0901 -0.39257,0.24979 l -1.97798,4.4339 c -0.095,0.21296 -4e-5,0.46088 0.21292,0.55589 0.21297,0.095 0.46088,5e-5 0.5559,-0.21291 l 1.97796,-4.43389 c 0.095,-0.21297 5e-5,-0.46089 -0.21291,-0.5559 -0.0532,-0.0237 -0.10864,-0.0357 -0.16332,-0.0369 z m -24.41484,1.29618 c -0.0808,-0.006 -0.16406,0.012 -0.23979,0.0558 -0.20196,0.1166 -0.27065,0.37302 -0.15406,0.57497 l 1.02115,1.76869 c 0.1166,0.20196 0.373,0.27065 0.57496,0.15405 0.20195,-0.1166 0.27065,-0.37301 0.15406,-0.57497 l -1.02115,-1.76868 c -0.0729,-0.12623 -0.20047,-0.20041 -0.33517,-0.20983 z m 26.85877,0 c -0.13468,0.009 -0.26211,0.0836 -0.33498,0.20983 l -1.02133,1.76868 c -0.1166,0.20196 -0.0477,0.45837 0.15424,0.57497 0.20196,0.1166 0.45837,0.0479 0.57497,-0.15405 l 1.02114,-1.76869 c 0.1166,-0.20195 0.0479,-0.45837 -0.15406,-0.57497 -0.0757,-0.0437 -0.15916,-0.0614 -0.23998,-0.0558 z m -29.26491,1.50073 c -0.081,0.003 -0.16211,0.029 -0.2329,0.0803 -0.18875,0.13693 -0.23048,0.39911 -0.0935,0.58787 l 2.85086,3.92995 c 0.13693,0.18876 0.39929,0.23049 0.58805,0.0936 0.18876,-0.13693 0.23049,-0.39911 0.0935,-0.58787 l -2.85104,-3.92995 c -0.0856,-0.11798 -0.22004,-0.17847 -0.35497,-0.17386 z m 31.70122,0.0214 c -0.13493,-0.005 -0.26941,0.0555 -0.35516,0.17331 l -2.8563,3.92614 c -0.1372,0.18857 -0.0958,0.45086 0.0928,0.58805 0.18858,0.13718 0.45087,0.0959 0.58806,-0.0926 l 2.85613,-3.92614 c 0.13718,-0.18858 0.0957,-0.45086 -0.0928,-0.58805 -0.0707,-0.0514 -0.15176,-0.0778 -0.23272,-0.0807 z m -33.85196,1.78231 c -0.10744,-0.006 -0.21708,0.0299 -0.30374,0.10791 -0.17332,0.15602 -0.18725,0.42109 -0.0312,0.59441 l 1.36648,1.51799 c 0.15601,0.17332 0.42109,0.18726 0.59441,0.0312 0.17332,-0.15602 0.18726,-0.42127 0.0312,-0.59459 l -1.3663,-1.51781 c -0.078,-0.0867 -0.18339,-0.13351 -0.29085,-0.13916 z m 35.97562,0.003 c -0.10745,0.006 -0.21282,0.0525 -0.29084,0.13915 l -1.36648,1.51763 c -0.15606,0.1733 -0.14224,0.43855 0.0311,0.59459 0.17329,0.15604 0.43837,0.14205 0.59441,-0.0312 l 1.36666,-1.51762 c 0.15605,-0.17331 0.14205,-0.43856 -0.0312,-0.59459 -0.0867,-0.078 -0.19611,-0.11354 -0.30357,-0.10791 z m -38.03696,1.97705 c -0.10745,0.006 -0.21266,0.0525 -0.29067,0.13916 -0.15602,0.17332 -0.14207,0.43839 0.0312,0.59441 l 3.60841,3.24834 c 0.17332,0.15603 0.43839,0.14207 0.5944,-0.0312 0.15603,-0.17331 0.14226,-0.43839 -0.0311,-0.59441 l -3.60858,-3.24834 c -0.0867,-0.078 -0.1963,-0.11356 -0.30376,-0.10791 z m 40.10831,0.0142 c -0.10745,-0.006 -0.21722,0.0298 -0.30393,0.10773 l -3.61059,3.24581 c -0.17342,0.15589 -0.18768,0.42097 -0.0318,0.5944 0.1559,0.17342 0.42117,0.18751 0.59459,0.0316 l 3.61077,-3.2458 c 0.17342,-0.1559 0.1875,-0.42098 0.0316,-0.59441 -0.078,-0.0867 -0.18322,-0.13361 -0.29066,-0.13933 z m -41.8225,2.18998 c -0.13494,-0.005 -0.26949,0.0558 -0.35515,0.17367 -0.13707,0.18866 -0.0955,0.4508 0.0932,0.58787 l 1.65224,1.20044 c 0.18866,0.13708 0.45079,0.0957 0.58786,-0.093 0.13708,-0.18866 0.0956,-0.45098 -0.093,-0.58805 l -1.65224,-1.20044 c -0.0707,-0.0514 -0.15193,-0.0776 -0.23289,-0.0805 z m 43.53505,0.0153 c -0.081,0.003 -0.16211,0.0289 -0.23289,0.0803 l -1.65297,1.19936 c -0.18875,0.13694 -0.2305,0.39929 -0.0936,0.58805 0.13695,0.18875 0.39912,0.23031 0.58787,0.0934 l 1.65316,-1.19935 c 0.18875,-0.13694 0.23031,-0.39912 0.0934,-0.58787 -0.0856,-0.11797 -0.22004,-0.17847 -0.35497,-0.17385 z m -45.13697,2.33585 c -0.13469,0.009 -0.26211,0.0836 -0.33499,0.20982 -0.1166,0.20195 -0.0479,0.45837 0.15405,0.57497 l 4.20463,2.42758 c 0.20195,0.1166 0.45837,0.0479 0.57497,-0.15405 0.1166,-0.20195 0.0479,-0.45837 -0.15405,-0.57497 l -4.20463,-2.42759 c -0.0757,-0.0437 -0.15917,-0.0614 -0.23998,-0.0558 z m 46.72744,0 c -0.0808,-0.006 -0.16425,0.012 -0.23998,0.0558 l -4.20463,2.42759 c -0.20195,0.1166 -0.27065,0.37302 -0.15405,0.57497 0.1166,0.20195 0.37302,0.27065 0.57497,0.15405 l 4.20482,-2.42758 c 0.20195,-0.1166 0.27064,-0.37302 0.15404,-0.57497 -0.0729,-0.12622 -0.20048,-0.20041 -0.33517,-0.20982 z m -47.9386,2.50606 c -0.16403,-0.004 -0.32133,0.0899 -0.39258,0.2496 -0.095,0.21298 -6e-5,0.46091 0.21292,0.5559 l 1.86532,0.83202 c 0.21298,0.095 0.46091,7e-5 0.5559,-0.2129 0.095,-0.21298 -1.2e-4,-0.46091 -0.21309,-0.5559 l -1.86515,-0.83202 c -0.0532,-0.0238 -0.10865,-0.0356 -0.16332,-0.0367 z m 49.15794,0.0173 c -0.0547,10e-4 -0.11024,0.013 -0.16351,0.0367 l -1.86569,0.83057 c -0.21304,0.0949 -0.3083,0.34267 -0.21346,0.55571 0.0949,0.21304 0.34286,0.3083 0.5559,0.21346 l 1.8657,-0.83076 c 0.21303,-0.0948 0.30811,-0.34267 0.21327,-0.55571 -0.0711,-0.15978 -0.22818,-0.25323 -0.39221,-0.24997 z m -50.23739,2.60199 c -0.16349,0.0137 -0.31006,0.12291 -0.36424,0.28921 -0.0722,0.22172 0.048,0.45839 0.26977,0.53064 l 4.61629,1.50418 c 0.22171,0.0722 0.45839,-0.0481 0.53064,-0.26977 0.0722,-0.22172 -0.048,-0.4584 -0.26977,-0.53064 l -4.61628,-1.50419 c -0.0554,-0.0181 -0.11192,-0.024 -0.16641,-0.0194 z m 51.31484,0.018 c -0.0545,-0.005 -0.11078,10e-4 -0.16623,0.0194 l -4.61736,1.50092 c -0.22178,0.0721 -0.34223,0.30869 -0.27014,0.53046 0.0721,0.22177 0.30868,0.34223 0.53046,0.27014 l 4.61719,-1.50092 c 0.22178,-0.0721 0.3424,-0.30869 0.27032,-0.53046 -0.0541,-0.16633 -0.20077,-0.2757 -0.36424,-0.28957 z m -51.98736,2.73152 c -0.1961,-0.002 -0.37196,0.13412 -0.41438,0.33371 -0.0485,0.2281 0.0962,0.45073 0.32427,0.49922 l 1.99777,0.42455 c 0.2281,0.0485 0.45072,-0.0962 0.49921,-0.32427 0.0485,-0.22811 -0.0962,-0.45074 -0.32427,-0.49922 l -1.99759,-0.42455 c -0.0285,-0.006 -0.057,-0.009 -0.085,-0.009 z m 52.65462,0.004 c -0.028,2.3e-4 -0.0563,0.004 -0.0848,0.009 l -1.99778,0.42437 c -0.2281,0.0485 -0.37271,0.27093 -0.32426,0.49904 0.0485,0.2281 0.2711,0.3729 0.49921,0.32445 l 1.99759,-0.42437 c 0.2281,-0.0485 0.3729,-0.27111 0.32445,-0.49922 -0.0424,-0.19959 -0.21829,-0.33537 -0.41437,-0.33371 z m -53.16365,2.76167 c -0.1952,0.0187 -0.35587,0.17185 -0.37731,0.37477 -0.0245,0.2319 0.14232,0.43838 0.37422,0.46288 l 4.82829,0.51048 c 0.2319,0.0245 0.43838,-0.1425 0.46288,-0.37441 0.0245,-0.2319 -0.1425,-0.43838 -0.37441,-0.46288 l -4.82828,-0.51048 c -0.029,-0.003 -0.0575,-0.003 -0.0854,-3.5e-4 z m 53.6763,0.0363 c -0.0279,-0.003 -0.0566,-0.003 -0.0856,3.5e-4 l -4.82883,0.50394 c -0.23194,0.0242 -0.39914,0.2304 -0.37496,0.46233 0.0242,0.23194 0.2304,0.39918 0.46234,0.37496 l 4.82883,-0.50394 c 0.23193,-0.0242 0.39914,-0.2304 0.37496,-0.46234 -0.0212,-0.20294 -0.1816,-0.35634 -0.37678,-0.37532 z m -53.75805,2.79473 c -0.2332,0 -0.42091,0.18772 -0.42091,0.42092 0,0.23319 0.18771,0.42091 0.42091,0.42091 h 2.04228 c 0.23319,0 0.4211,-0.18772 0.4211,-0.42091 0,-0.2332 -0.18791,-0.42092 -0.4211,-0.42092 z m 51.79298,0 c -0.23319,0 -0.42092,0.18772 -0.42092,0.42092 10e-6,0.23319 0.18773,0.42091 0.42092,0.42091 h 2.04228 c 0.23319,0 0.42092,-0.18772 0.42092,-0.42091 0,-0.2332 -0.18773,-0.42092 -0.42092,-0.42092 z m -46.80319,2.29461 c -0.0279,-0.003 -0.0564,-0.003 -0.0854,3.5e-4 l -4.82902,0.50394 c -0.23194,0.0242 -0.39913,0.2304 -0.37495,0.46233 0.0242,0.23194 0.2304,0.39918 0.46233,0.37496 l 4.82902,-0.50394 c 0.23194,-0.0242 0.39913,-0.2304 0.37495,-0.46234 -0.0212,-0.20294 -0.18177,-0.35634 -0.37695,-0.37531 z m 43.85314,0.0298 c -0.19521,0.0187 -0.35588,0.17186 -0.37732,0.37478 -0.0245,0.2319 0.14233,0.43838 0.37423,0.46288 l 4.82829,0.51048 c 0.23191,0.0245 0.43837,-0.14251 0.46288,-0.37441 0.0245,-0.2319 -0.14251,-0.43838 -0.37441,-0.46288 l -4.8281,-0.51048 c -0.029,-0.003 -0.0577,-0.003 -0.0856,-3.5e-4 z m -46.2602,2.8436 c -0.028,2.4e-4 -0.0565,0.003 -0.085,0.009 l -1.99777,0.42436 c -0.22811,0.0485 -0.37271,0.27111 -0.32427,0.49922 0.0485,0.22811 0.27111,0.37272 0.49922,0.32427 l 1.99777,-0.42419 c 0.2281,-0.0485 0.37271,-0.27111 0.32426,-0.49921 -0.0424,-0.1996 -0.2181,-0.33537 -0.41419,-0.33372 z m 48.66925,0.004 c -0.19609,-0.002 -0.37177,0.13394 -0.41419,0.33353 -0.0485,0.2281 0.096,0.45074 0.32409,0.49922 l 1.99777,0.42455 c 0.22809,0.0485 0.45073,-0.096 0.49921,-0.32409 0.0485,-0.2281 -0.0962,-0.45092 -0.32426,-0.4994 l -1.9976,-0.42455 c -0.0285,-0.006 -0.057,-0.009 -0.085,-0.009 z m -45.30519,1.65787 c -0.0545,-0.005 -0.11077,0.001 -0.16622,0.0194 l -4.61736,1.50091 c -0.22178,0.0721 -0.34223,0.30869 -0.27014,0.53046 0.0721,0.22178 0.30868,0.34222 0.53046,0.27014 l 4.61719,-1.50092 c 0.22178,-0.0721 0.34241,-0.30869 0.27032,-0.53046 -0.0541,-0.16633 -0.20077,-0.2757 -0.36425,-0.28957 z m 41.93713,0.0149 c -0.16349,0.0137 -0.31005,0.12292 -0.36423,0.28921 -0.0722,0.22173 0.048,0.4584 0.26977,0.53065 l 4.61628,1.50418 c 0.22172,0.0722 0.4584,-0.0481 0.53064,-0.26977 0.0723,-0.22172 -0.048,-0.4584 -0.26977,-0.53065 l -4.61628,-1.50418 c -0.0554,-0.0181 -0.11191,-0.024 -0.16641,-0.0194 z m -43.69909,3.27251 c -0.0547,0.001 -0.11006,0.0128 -0.16332,0.0365 l -1.86587,0.83075 c -0.21304,0.0948 -0.30812,0.34267 -0.21328,0.55571 0.0949,0.21304 0.34268,0.30812 0.55571,0.21328 l 1.86589,-0.83058 c 0.21303,-0.0948 0.30811,-0.34267 0.21327,-0.55571 -0.0711,-0.15978 -0.22837,-0.25323 -0.3924,-0.24997 z m 45.45888,0.016 c -0.16403,-0.004 -0.32133,0.0899 -0.39258,0.24961 -0.095,0.21297 -6e-5,0.4609 0.21291,0.55589 l 1.86515,0.83202 c 0.21297,0.095 0.46091,6e-5 0.5559,-0.21291 0.095,-0.21297 6e-5,-0.4609 -0.21291,-0.55589 l -1.86515,-0.83203 c -0.0532,-0.0238 -0.10864,-0.0356 -0.16332,-0.0367 z m -41.82613,0.91214 c -0.0808,-0.006 -0.16424,0.012 -0.23998,0.0558 l -4.20463,2.42758 c -0.20195,0.1166 -0.27065,0.37302 -0.15405,0.57497 0.1166,0.20195 0.37302,0.27065 0.57497,0.15405 l 4.20463,-2.4274 c 0.20195,-0.1166 0.27064,-0.3732 0.15405,-0.57515 -0.0729,-0.12622 -0.2003,-0.20041 -0.33499,-0.20982 z m 38.20028,0 c -0.13469,0.009 -0.26229,0.0836 -0.33517,0.20982 -0.1166,0.20195 -0.0479,0.45855 0.15405,0.57515 l 4.20463,2.4274 c 0.20196,0.1166 0.45855,0.0479 0.57515,-0.15405 0.1166,-0.20195 0.0479,-0.45837 -0.15404,-0.57497 l -4.20482,-2.42758 c -0.0757,-0.0437 -0.15899,-0.0614 -0.2398,-0.0558 z m -39.24903,3.56244 c -0.081,0.003 -0.16211,0.0291 -0.2329,0.0805 l -1.65296,1.19935 c -0.18875,0.13694 -0.2305,0.39912 -0.0936,0.58787 0.13695,0.18875 0.39912,0.2305 0.58787,0.0935 l 1.65314,-1.19935 c 0.18877,-0.13693 0.23051,-0.39911 0.0936,-0.58786 -0.0856,-0.11797 -0.22022,-0.17866 -0.35516,-0.17404 z m 40.28761,0.0142 c -0.13494,-0.005 -0.26948,0.0558 -0.35515,0.17367 -0.13708,0.18865 -0.0955,0.45098 0.0932,0.58805 l 1.65224,1.20044 c 0.18866,0.13707 0.4508,0.0955 0.58787,-0.0932 0.13707,-0.18866 0.0956,-0.4508 -0.093,-0.58787 l -1.65224,-1.20044 c -0.0707,-0.0514 -0.15193,-0.0778 -0.23289,-0.0807 z m -36.54387,0.14533 c -0.10743,-0.006 -0.21702,0.0298 -0.30374,0.10773 l -3.61076,3.2458 c -0.17342,0.15589 -0.18751,0.42098 -0.0316,0.59441 0.15589,0.17342 0.42097,0.1875 0.5944,0.0316 l 3.61077,-3.2458 c 0.17342,-0.15589 0.18751,-0.42098 0.0316,-0.59441 -0.0779,-0.0867 -0.18322,-0.13361 -0.29067,-0.13933 z m 32.80012,0.0116 c -0.10745,0.006 -0.21283,0.0525 -0.29084,0.13915 -0.15603,0.17332 -0.14207,0.43839 0.0312,0.59441 l 3.60841,3.24834 c 0.17332,0.15604 0.43857,0.14208 0.59459,-0.0312 0.15603,-0.17331 0.14207,-0.43839 -0.0312,-0.5944 l -3.6086,-3.24835 c -0.0867,-0.078 -0.19611,-0.11355 -0.30356,-0.10791 z m -29.37464,3.08358 c -0.13493,-0.005 -0.2696,0.0554 -0.35534,0.1733 l -2.85613,3.92614 c -0.13719,0.18858 -0.0959,0.45087 0.0926,0.58805 0.18857,0.13719 0.45087,0.0959 0.58805,-0.0927 l 2.85613,-3.92614 c 0.13718,-0.18857 0.0959,-0.45086 -0.0926,-0.58805 -0.0707,-0.0514 -0.15175,-0.0778 -0.23271,-0.0806 z m 25.93573,0.0176 c -0.081,0.003 -0.16211,0.0289 -0.2329,0.0803 -0.18875,0.13694 -0.23048,0.39911 -0.0936,0.58787 l 2.85086,3.92995 c 0.13693,0.18876 0.39911,0.2305 0.58787,0.0936 0.18876,-0.13693 0.23049,-0.3991 0.0936,-0.58786 l -2.85086,-3.92996 c -0.0856,-0.11797 -0.22004,-0.17846 -0.35498,-0.17385 z m -29.6228,0.6064 c -0.10745,0.006 -0.21282,0.0525 -0.29084,0.13915 l -1.36649,1.51763 c -0.15605,0.1733 -0.14223,0.43855 0.0311,0.59459 0.1733,0.15604 0.43837,0.14205 0.5944,-0.0313 l 1.36666,-1.51762 c 0.15606,-0.1733 0.14206,-0.43856 -0.0312,-0.59459 -0.0867,-0.078 -0.19611,-0.11354 -0.30357,-0.10791 z m 33.33076,0.002 c -0.10745,-0.006 -0.21691,0.0299 -0.30356,0.10791 -0.17333,0.156 -0.18726,0.42108 -0.0313,0.5944 l 1.3663,1.51799 c 0.15602,0.17333 0.42109,0.18726 0.59442,0.0312 0.17332,-0.15601 0.18726,-0.42126 0.0312,-0.59459 l -1.36631,-1.5178 c -0.078,-0.0867 -0.18339,-0.13351 -0.29084,-0.13916 z m -25.65524,1.68366 c -0.16403,-0.004 -0.32114,0.0899 -0.39239,0.24961 l -1.97816,4.43389 c -0.095,0.21297 -5e-5,0.46089 0.21292,0.5559 0.21296,0.095 0.46089,5e-5 0.55589,-0.21291 l 1.97815,-4.4339 c 0.095,-0.21296 5e-5,-0.46089 -0.21292,-0.55589 -0.0532,-0.0238 -0.10881,-0.0356 -0.16349,-0.0367 z m 17.95556,0.0122 c -0.0547,0.001 -0.11023,0.0128 -0.1635,0.0365 -0.21297,0.0947 -0.30836,0.34244 -0.21363,0.55553 l 1.97196,4.43662 c 0.0947,0.21297 0.34262,0.30836 0.55571,0.21364 0.21298,-0.0947 0.30836,-0.34244 0.21364,-0.55553 l -1.97197,-4.43662 c -0.071,-0.15973 -0.22818,-0.25329 -0.39221,-0.25015 z m -21.43154,1.35867 c -0.13468,0.009 -0.26212,0.0836 -0.33498,0.20982 l -1.02115,1.76869 c -0.11659,0.20195 -0.0479,0.45837 0.15406,0.57497 0.20195,0.1166 0.45837,0.0479 0.57496,-0.15405 l 1.02115,-1.76869 c 0.11659,-0.20195 0.0479,-0.45837 -0.15406,-0.57497 -0.0757,-0.0437 -0.15916,-0.0614 -0.23998,-0.0558 z m 24.93421,0 c -0.0808,-0.006 -0.16406,0.0121 -0.23979,0.0558 -0.20195,0.1166 -0.27065,0.37302 -0.15405,0.57497 l 1.02114,1.76869 c 0.1166,0.20195 0.37302,0.27064 0.57496,0.15405 0.20196,-0.1166 0.27066,-0.37302 0.15406,-0.57497 l -1.02114,-1.76869 c -0.0729,-0.12622 -0.20049,-0.20041 -0.33518,-0.20982 z m -17.0545,0.0634 c -0.19609,-0.002 -0.3718,0.13394 -0.41419,0.33354 l -1.00897,4.74926 c -0.0485,0.2281 0.0962,0.45076 0.32427,0.49921 0.22811,0.0485 0.45076,-0.0962 0.49922,-0.32427 l 1.00896,-4.74926 c 0.0485,-0.2281 -0.0962,-0.45076 -0.32427,-0.49921 -0.0285,-0.006 -0.057,-0.009 -0.085,-0.009 z m 9.1599,0.003 c -0.028,2.2e-4 -0.0563,0.003 -0.0848,0.009 -0.22814,0.0483 -0.37294,0.27071 -0.32465,0.49885 l 1.00553,4.74999 c 0.0483,0.22814 0.27088,0.37293 0.49903,0.32464 0.22814,-0.0483 0.37293,-0.27089 0.32464,-0.49903 l -1.0057,-4.74965 c -0.0423,-0.19963 -0.21793,-0.33543 -0.41402,-0.33391 z m -4.5725,0.47905 c -0.23319,0 -0.42092,0.18772 -0.42092,0.42092 v 4.85517 c 0,0.2332 0.18773,0.42092 0.42092,0.42092 0.2332,0 0.42092,-0.18772 0.42092,-0.42092 v -4.85517 c 0,-0.2332 -0.18772,-0.42092 -0.42092,-0.42092 z m -7.72657,1.56886 c -0.16347,0.0139 -0.31017,0.12324 -0.36423,0.28957 l -0.63129,1.94236 c -0.0721,0.22178 0.0484,0.45837 0.27014,0.53047 0.22177,0.0721 0.45836,-0.0486 0.53046,-0.27032 l 0.63128,-1.94218 c 0.0721,-0.22177 -0.0484,-0.45836 -0.27013,-0.53046 -0.0554,-0.018 -0.11173,-0.024 -0.16623,-0.0194 z m 15.44987,0.001 c -0.0545,-0.005 -0.11078,0.001 -0.16622,0.0193 -0.22178,0.0721 -0.34238,0.30868 -0.27033,0.53047 l 0.63111,1.94235 c 0.0721,0.22179 0.30868,0.3422 0.53046,0.27014 0.22178,-0.0721 0.34238,-0.3085 0.27032,-0.53028 l -0.63128,-1.94236 c -0.0541,-0.16634 -0.20058,-0.27568 -0.36406,-0.28957 z m -10.36543,1.08181 c -0.1952,0.0188 -0.356,0.17203 -0.37732,0.37496 l -0.21346,2.03119 c -0.0244,0.23192 0.14268,0.43812 0.3746,0.46252 0.23192,0.0244 0.4383,-0.14268 0.4627,-0.3746 l 0.21345,-2.03101 c 0.0244,-0.23192 -0.14268,-0.4383 -0.37458,-0.4627 -0.029,-0.003 -0.0575,-0.003 -0.0854,-3.5e-4 z m 5.26736,0.002 c -0.0279,-0.003 -0.0566,-0.003 -0.0856,3.5e-4 -0.23193,0.0242 -0.39917,0.2304 -0.37495,0.46233 l 0.21218,2.03138 c 0.0242,0.23193 0.2304,0.399 0.46234,0.37478 0.23193,-0.0242 0.39918,-0.23041 0.37496,-0.46234 l -0.212,-2.03119 c -0.0212,-0.20295 -0.18178,-0.35637 -0.37697,-0.37533 z"
         style="opacity:1;fill:#f4f2f3;fill-opacity:1;stroke:none;stroke-width:0.38088897;stroke-linecap:round;stroke-linejoin:round;stroke-miterlimit:4;stroke-dasharray:none;stroke-dashoffset:0;stroke-opacity:1;paint-order:markers stroke fill" />
      <path
         transform="matrix(0.35154274,0,0,0.35154274,206.79018,159.77261)"
         id="path2150"
         d="m 469.09621,100.6068 -65.50955,38.06124 -41.41979,65.20654 60.59382,-44.88117 z"
         style="opacity:0.40900005;fill:#000000;fill-opacity:1;stroke:none;stroke-width:1.5614785;stroke-linecap:round;stroke-linejoin:round;stroke-miterlimit:4;stroke-dasharray:none;stroke-dashoffset:0;stroke-opacity:1;paint-order:markers stroke fill;filter:url(#filter2222)" />
      <g
         id="g2847">
        <path
           style="opacity:1;fill:#ff5150;fill-opacity:1;stroke:none;stroke-width:1.01970422;stroke-linecap:round;stroke-linejoin:round;stroke-miterlimit:4;stroke-dasharray:none;stroke-dashoffset:0;stroke-opacity:1;paint-order:markers stroke fill"
           id="path2096"
           d="m 129.8387,160.80256 -23.01419,-23.01419 31.43796,-8.42378 z"
           transform="matrix(0.64804473,-0.3316906,-0.36122382,0.63205852,329.21345,156.86272)" />
        <path
           transform="matrix(-0.36122382,0.63205852,0.64804473,-0.3316906,297.96259,186.70411)"
           d="m 129.8387,160.80256 -23.01419,-23.01419 31.43796,-8.42378 z"
           id="path2099"
           style="opacity:1;fill:#f1f1f1;fill-opacity:1;stroke:none;stroke-width:1.01970422;stroke-linecap:round;stroke-linejoin:round;stroke-miterlimit:4;stroke-dasharray:none;stroke-dashoffset:0;stroke-opacity:1;paint-order:markers stroke fill"
           />
        <path
           style="opacity:0.243;fill:#000000;stroke:none;stroke-width:0.09301235px;stroke-linecap:butt;stroke-linejoin:miter;stroke-opacity:1"
           d="m 331.85294,231.18507 23.41607,-15.75201 16.81513,-22.66472 z"
           id="path2112"
           />
      </g>
    </g>
  </g>
</svg>
</g>

<g id="edge">
<svg version="1.1" viewBox="0 0 60 64" width="150"><path d="m18.87 38c0 1.54 0.23 2.94 0.7 4.2 0.5 1.24 1.15 2.35 1.98 3.32s1.8 1.8 2.94 2.5c1.1 0.7 2.3 1.28 3.58 1.73 1.27 0.46 2.6 0.8 3.95 1.02 1.37 0.22 2.7 0.33 4.05 0.33 1.7 0 3.28-0.13 4.78-0.4 1.5-0.28 2.96-0.65 4.4-1.12s2.83-1.03 4.22-1.67c1.4-0.64 2.82-1.34 4.28-2.12v13.56c-1.63 0.8-3.23 1.47-4.83 2.05-1.6 0.56-3.2 1.05-4.83 1.44-1.63 0.4-3.28 0.7-4.97 0.88s-3.42 0.28-5.22 0.28c-2.4 0-4.72-0.28-6.95-0.83s-4.32-1.34-6.28-2.38-3.75-2.3-5.38-3.78c-1.64-1.48-3.03-3.15-4.2-5s-2.07-3.88-2.72-6.06c-0.63-2.18-0.95-4.5-0.95-6.96 0-2.63 0.36-5.13 1.08-7.52 0.73-2.4 1.76-4.58 3.12-6.58 1.35-2 3-3.78 4.95-5.33s4.14-2.82 6.58-3.8c-1.33 1.33-2.37 2.9-3.1 4.73-0.75 1.82-1.22 3.65-1.43 5.48h22.78c0-2.3-0.23-4.3-0.7-6.02s-1.22-3.15-2.27-4.28c-1.04-1.14-2.38-2-4.03-2.56-1.65-0.57-3.64-0.86-5.97-0.86-2.75 0-5.5 0.4-8.25 1.23-2.75 0.8-5.36 1.95-7.84 3.4-2.48 1.47-4.76 3.2-6.84 5.18-2.08 2-3.83 4.15-5.25 6.48 0.3-2.7 0.9-5.3 1.73-7.77s1.93-4.77 3.25-6.9c1.32-2.1 2.87-4.02 4.64-5.74s3.73-3.2 5.9-4.4 4.47-2.17 6.97-2.82c2.5-0.57 5.16-0.91 7.96-0.91 1.64 0 3.27 0.15 4.9 0.44 1.63 0.3 3.22 0.7 4.77 1.22 3.08 1.06 5.83 2.54 8.25 4.42 2.42 1.9 4.45 4.06 6.1 6.53s2.9 5.2 3.76 8.17 1.3 6.06 1.3 9.27v7.95h-40.91z" fill="#0078D7"/></svg>
</g>

<g id="node">
<svg
   version="1.1"
   width="150"
   viewBox="588 557 100 103"
   >
    <path
       d="m 633.98311,557.86282 c -1.37141,0 -2.70474,0.2836 -3.8843,0.95126 l -37.33686,21.56183 c -2.41619,1.39112 -3.8843,4.02065 -3.8843,6.81735 l 0,43.04452 c 0,2.79518 1.46811,5.42166 3.8843,6.8171 l 9.75039,5.6284 c 4.73726,2.33476 6.48441,2.29874 8.64059,2.29874 7.01394,0 11.01873,-4.2558 11.01873,-11.65278 l 0,-42.48949 c 0,-0.60069 -0.52002,-1.03066 -1.1098,-1.03066 l -4.67701,0 c -0.5993,0 -1.10981,0.42997 -1.10981,1.03066 l 0,42.48949 c 0,3.27867 -3.41501,6.57586 -8.95767,3.80503 l -10.14674,-5.94523 c -0.35831,-0.19532 -0.63418,-0.54006 -0.63418,-0.95126 l 0,-43.04452 c 0,-0.40866 0.2727,-0.82366 0.63418,-1.0304 l 37.25758,-21.48269 c 0.34879,-0.2004 0.76417,-0.2004 1.1098,0 l 37.25758,21.48269 c 0.35514,0.21308 0.63417,0.60931 0.63417,1.0304 l 0,43.04452 c 0,0.4112 -0.20623,0.83229 -0.5549,1.03041 l -37.33685,21.48269 c -0.32026,0.19025 -0.76101,0.19025 -1.1098,0 l -9.59185,-5.70755 c -0.28538,-0.16742 -0.67539,-0.15474 -0.95126,0 -2.64766,1.50096 -3.14549,1.67548 -5.62827,2.53669 -0.61197,0.21308 -1.54104,0.54463 0.31709,1.58543 l 12.52489,7.37212 c 1.19224,0.68997 2.52083,1.0304 3.8843,1.0304 1.38249,0 2.69206,-0.34043 3.8843,-1.0304 l 37.33685,-21.48269 c 2.4162,-1.40533 3.8843,-4.02192 3.8843,-6.8171 l 0,-43.04452 c 0,-2.7967 -1.4681,-5.42039 -3.8843,-6.81735 l -37.33685,-21.56183 c -1.17005,-0.66766 -2.51289,-0.95126 -3.8843,-0.95126 z m 10,31 c -10.63189,0 -16.96409,4.52469 -16.96409,12.04926 0,8.16281 6.28464,10.40549 16.48846,11.41509 12.20781,1.19504 13.15906,2.98746 13.15906,5.39046 0,4.16803 -3.32306,5.94523 -11.17727,5.94523 -9.86771,0 -12.03658,-2.46337 -12.76271,-7.37211 -0.0855,-0.52637 -0.49148,-0.95126 -1.03052,-0.95126 l -4.83556,0 c -0.59612,0 -1.1098,0.51266 -1.1098,1.1098 0,6.28337 3.41818,13.71409 19.73859,13.71409 11.81462,0 18.62879,-4.63757 18.62879,-12.76283 0,-8.055 -5.50461,-10.21702 -16.96409,-11.73218 -11.57998,-1.53216 -12.68343,-2.282 -12.68343,-4.99397 0,-2.23863 0.9354,-5.23217 9.51257,-5.23217 7.66079,0 10.49237,1.65214 11.6529,6.8176 0.10147,0.48552 0.52954,0.87185 1.03053,0.87185 l 4.83556,0 c 0.29806,0 0.58661,-0.18264 0.79272,-0.39648 0.20293,-0.2283 0.34562,-0.48552 0.31708,-0.79246 -0.74832,-8.89591 -6.681,-13.07992 -18.62879,-13.07992 z"
       style="fill:#83cd29;fill-opacity:1;fill-rule:evenodd;stroke:none" />
</svg>
</g>
</g>

</svg>

